<svg width="107" height="116" viewBox="0 0 107 116" fill="none" xmlns="http://www.w3.org/2000/svg">
<g clip-path="url(#clip0_0_8698)">
<path d="M106.389 29.3445V86.4533L53.5371 115.008L0.685547 86.4533V29.3445L53.5371 0.790039L106.389 29.3445Z" fill="white"/>
<path d="M53.3929 115.503L53.1913 115.393L0.109375 86.7145V29.0968L0.33659 28.9763L53.3929 0.294922L53.5945 0.404796L106.676 29.0968V86.7295L53.3929 115.503ZM0.973433 86.1908L53.3929 114.512L105.812 86.1908V29.6067L53.3929 1.28592L0.973433 29.6067V86.1908Z" fill="#6A797D"/>
<path d="M103.796 30.8978V84.9004L53.3931 111.903L2.98975 84.9004V30.8978L53.3931 3.89551L103.796 30.8978Z" fill="#6A797D"/>
<path d="M103.796 42.0576H2.98975V73.7397H103.796V42.0576Z" fill="#17313B"/>
<path d="M98.9004 33.0569V82.7413L53.5373 107.582L8.17432 82.7413V33.0569L53.5373 8.21582L98.9004 33.0569Z" fill="white" stroke="#17313B" stroke-width="0.213348" stroke-miterlimit="10"/>
<path d="M102.356 44.9385H4.42969V70.8602H102.356V44.9385Z" fill="#17313B"/>
<path d="M15.2305 73.7402H91.5556" stroke="#17313B" stroke-width="0.106674" stroke-miterlimit="10"/>
<path d="M15.2305 42.0576H91.5556" stroke="#17313B" stroke-width="0.106674" stroke-miterlimit="10"/>
<path d="M43.0502 50.9863H40.458V64.5232H43.0502V50.9863Z" fill="white"/>
<path d="M51.4028 60.491C51.4028 62.5989 49.407 62.7664 48.848 62.7664C47.4484 62.7664 47.0825 61.5333 47.0825 60.7908V55.5947H45.0664V60.7791C45.0664 62.0869 45.4782 63.1664 46.2441 63.8843C46.9983 64.55 47.9775 64.9031 48.9835 64.8689C49.8411 64.8476 50.6774 64.5948 51.4028 64.1372V64.5233H53.707V55.5947H51.4028V60.491Z" fill="white"/>
<path d="M58.6031 52.4268H56.0109V55.595H54.5708V57.3231H56.0109V64.5236H58.6031V57.3231H60.3312V55.595H58.6031V52.4268Z" fill="white"/>
<path d="M67.7938 62.0405C67.2487 62.4853 66.565 62.7232 65.8609 62.7114C64.2192 62.7114 63.0149 61.585 63.0149 60.0382C63.0149 58.4914 64.1669 57.414 65.8609 57.414C66.5671 57.4012 67.2551 57.6348 67.8077 58.0733L68.1651 58.3613L69.7545 56.8753L69.3566 56.5414C68.3699 55.7275 67.125 55.2891 65.846 55.3061C62.8996 55.3061 60.7598 57.2967 60.7598 60.0297C60.7598 62.7626 62.9519 64.8108 65.846 64.8108C67.1314 64.831 68.3816 64.3883 69.3683 63.5638L69.7513 63.2267L68.1384 61.7407L67.7928 62.0405H67.7938Z" fill="white"/>
<path d="M78.2287 56.4352C77.4607 55.7706 76.4708 55.4197 75.4552 55.4528C74.5826 55.4421 73.7282 55.697 73.0039 56.1845V50.9863H70.6997V64.5232H73.0039V59.8285C73.0039 57.7206 74.8557 57.55 75.4147 57.55C76.8142 57.55 77.0361 58.7852 77.0361 59.5288V64.5232H79.3403V59.5405C79.3403 58.2327 79.0064 57.1553 78.2287 56.4352Z" fill="white"/>
<path d="M65.7694 61.6585C66.7097 61.6585 67.4719 60.944 67.4719 60.0626C67.4719 59.1813 66.7097 58.4668 65.7694 58.4668C64.8291 58.4668 64.0669 59.1813 64.0669 60.0626C64.0669 60.944 64.8291 61.6585 65.7694 61.6585Z" fill="#FF3D2E"/>
<path d="M37.6146 61.3805C36.6994 62.2467 35.4822 62.7246 34.2213 62.7108C31.595 62.7108 29.6856 60.781 29.6856 58.1313C29.6856 55.4815 31.595 53.54 34.2213 53.54C35.4747 53.5336 36.6844 54.0062 37.6029 54.8596L37.9602 55.1967L39.5358 53.7224L39.1902 53.3853C37.8493 52.117 36.0668 51.4215 34.2213 51.4439C30.3533 51.4439 27.4443 54.3241 27.4443 58.143C27.4443 61.9619 30.3651 64.8112 34.2213 64.8112C36.0732 64.8325 37.861 64.1306 39.2041 62.8558L39.5497 62.522L37.9858 61.0243L37.6146 61.3816V61.3805Z" fill="white"/>
<path d="M46.9347 14.2371V13.7038H50.6586V14.2371H49.0973V18.6689H48.496V14.2371H46.9347ZM55.5692 16.1864C55.5692 16.71 55.4747 17.1626 55.2856 17.544C55.0965 17.9255 54.837 18.2196 54.5073 18.4265C54.1776 18.6334 53.801 18.7368 53.3776 18.7368C52.9541 18.7368 52.5775 18.6334 52.2478 18.4265C51.9181 18.2196 51.6587 17.9255 51.4695 17.544C51.2804 17.1626 51.1859 16.71 51.1859 16.1864C51.1859 15.6627 51.2804 15.2101 51.4695 14.8287C51.6587 14.4472 51.9181 14.1531 52.2478 13.9462C52.5775 13.7393 52.9541 13.6359 53.3776 13.6359C53.801 13.6359 54.1776 13.7393 54.5073 13.9462C54.837 14.1531 55.0965 14.4472 55.2856 14.8287C55.4747 15.2101 55.5692 15.6627 55.5692 16.1864ZM54.9874 16.1864C54.9874 15.7564 54.9154 15.3936 54.7716 15.0978C54.6294 14.802 54.4362 14.5782 54.1922 14.4262C53.9497 14.2743 53.6782 14.1983 53.3776 14.1983C53.0769 14.1983 52.8046 14.2743 52.5605 14.4262C52.3181 14.5782 52.1249 14.802 51.9811 15.0978C51.8389 15.3936 51.7677 15.7564 51.7677 16.1864C51.7677 16.6163 51.8389 16.9791 51.9811 17.2749C52.1249 17.5707 52.3181 17.7945 52.5605 17.9465C52.8046 18.0984 53.0769 18.1744 53.3776 18.1744C53.6782 18.1744 53.9497 18.0984 54.1922 17.9465C54.4362 17.7945 54.6294 17.5707 54.7716 17.2749C54.9154 16.9791 54.9874 16.6163 54.9874 16.1864ZM56.5802 18.6689V13.7038H58.2579C58.6474 13.7038 58.9658 13.7741 59.2131 13.9147C59.462 14.0537 59.6463 14.242 59.7659 14.4796C59.8855 14.7172 59.9453 14.9822 59.9453 15.2748C59.9453 15.5673 59.8855 15.8332 59.7659 16.0724C59.6479 16.3116 59.4652 16.5023 59.2179 16.6446C58.9707 16.7852 58.6539 16.8555 58.2676 16.8555H57.0651V16.3221H58.2482C58.5149 16.3221 58.729 16.2761 58.8906 16.1839C59.0523 16.0918 59.1695 15.9674 59.2422 15.8106C59.3165 15.6522 59.3537 15.4736 59.3537 15.2748C59.3537 15.076 59.3165 14.8982 59.2422 14.7414C59.1695 14.5846 59.0515 14.4618 58.8882 14.3729C58.725 14.2824 58.5084 14.2371 58.2385 14.2371H57.1814V18.6689H56.5802Z" fill="#17313B"/>
<path d="M30.1086 28.2695V23.3044H30.7098V27.7362H33.0179V28.2695H30.1086ZM37.9449 25.7869C37.9449 26.3106 37.8503 26.7632 37.6612 27.1446C37.4721 27.526 37.2127 27.8202 36.883 28.0271C36.5532 28.234 36.1767 28.3374 35.7532 28.3374C35.3297 28.3374 34.9531 28.234 34.6234 28.0271C34.2937 27.8202 34.0343 27.526 33.8452 27.1446C33.6561 26.7632 33.5615 26.3106 33.5615 25.7869C33.5615 25.2633 33.6561 24.8107 33.8452 24.4293C34.0343 24.0478 34.2937 23.7537 34.6234 23.5468C34.9531 23.3399 35.3297 23.2365 35.7532 23.2365C36.1767 23.2365 36.5532 23.3399 36.883 23.5468C37.2127 23.7537 37.4721 24.0478 37.6612 24.4293C37.8503 24.8107 37.9449 25.2633 37.9449 25.7869ZM37.363 25.7869C37.363 25.357 37.2911 24.9942 37.1472 24.6984C37.005 24.4026 36.8119 24.1788 36.5678 24.0268C36.3254 23.8749 36.0538 23.7989 35.7532 23.7989C35.4526 23.7989 35.1802 23.8749 34.9362 24.0268C34.6937 24.1788 34.5006 24.4026 34.3567 24.6984C34.2145 24.9942 34.1434 25.357 34.1434 25.7869C34.1434 26.2169 34.2145 26.5797 34.3567 26.8755C34.5006 27.1713 34.6937 27.3951 34.9362 27.5471C35.1802 27.699 35.4526 27.775 35.7532 27.775C36.0538 27.775 36.3254 27.699 36.5678 27.5471C36.8119 27.3951 37.005 27.1713 37.1472 26.8755C37.2911 26.5797 37.363 26.2169 37.363 25.7869ZM42.35 24.856C42.2967 24.6927 42.2264 24.5465 42.1391 24.4172C42.0534 24.2862 41.9508 24.1747 41.8312 24.0826C41.7132 23.9905 41.579 23.9201 41.4287 23.8717C41.2784 23.8232 41.1136 23.7989 40.9341 23.7989C40.64 23.7989 40.3725 23.8749 40.1317 24.0268C39.8908 24.1788 39.6993 24.4026 39.5571 24.6984C39.4149 24.9942 39.3437 25.357 39.3437 25.7869C39.3437 26.2169 39.4157 26.5797 39.5595 26.8755C39.7034 27.1713 39.8981 27.3951 40.1438 27.5471C40.3895 27.699 40.6658 27.775 40.9729 27.775C41.2574 27.775 41.5079 27.7143 41.7245 27.5931C41.9427 27.4703 42.1124 27.2973 42.2336 27.0743C42.3565 26.8496 42.4179 26.5854 42.4179 26.2815L42.6021 26.3203H41.1087V25.7869H42.9997V26.3203C42.9997 26.7292 42.9125 27.0848 42.7379 27.387C42.565 27.6893 42.3258 27.9236 42.0203 28.0901C41.7164 28.255 41.3673 28.3374 40.9729 28.3374C40.5333 28.3374 40.147 28.234 39.8141 28.0271C39.4827 27.8202 39.2241 27.526 39.0383 27.1446C38.854 26.7632 38.7619 26.3106 38.7619 25.7869C38.7619 25.3942 38.8144 25.041 38.9195 24.7275C39.0261 24.4123 39.1765 24.144 39.3704 23.9226C39.5644 23.7011 39.7939 23.5314 40.0589 23.4134C40.324 23.2955 40.6157 23.2365 40.9341 23.2365C41.196 23.2365 41.44 23.2761 41.6663 23.3553C41.8942 23.4328 42.0971 23.5436 42.2748 23.6874C42.4542 23.8296 42.6038 24.0002 42.7234 24.199C42.843 24.3961 42.9254 24.6151 42.9706 24.856H42.35ZM48.2189 25.7869C48.2189 26.3106 48.1243 26.7632 47.9352 27.1446C47.7461 27.526 47.4867 27.8202 47.157 28.0271C46.8273 28.234 46.4507 28.3374 46.0272 28.3374C45.6038 28.3374 45.2272 28.234 44.8974 28.0271C44.5677 27.8202 44.3083 27.526 44.1192 27.1446C43.9301 26.7632 43.8356 26.3106 43.8356 25.7869C43.8356 25.2633 43.9301 24.8107 44.1192 24.4293C44.3083 24.0478 44.5677 23.7537 44.8974 23.5468C45.2272 23.3399 45.6038 23.2365 46.0272 23.2365C46.4507 23.2365 46.8273 23.3399 47.157 23.5468C47.4867 23.7537 47.7461 24.0478 47.9352 24.4293C48.1243 24.8107 48.2189 25.2633 48.2189 25.7869ZM47.637 25.7869C47.637 25.357 47.5651 24.9942 47.4212 24.6984C47.279 24.4026 47.0859 24.1788 46.8418 24.0268C46.5994 23.8749 46.3278 23.7989 46.0272 23.7989C45.7266 23.7989 45.4542 23.8749 45.2102 24.0268C44.9677 24.1788 44.7746 24.4026 44.6308 24.6984C44.4885 24.9942 44.4174 25.357 44.4174 25.7869C44.4174 26.2169 44.4885 26.5797 44.6308 26.8755C44.7746 27.1713 44.9677 27.3951 45.2102 27.5471C45.4542 27.699 45.7266 27.775 46.0272 27.775C46.3278 27.775 46.5994 27.699 46.8418 27.5471C47.0859 27.3951 47.279 27.1713 47.4212 26.8755C47.5651 26.5797 47.637 26.2169 47.637 25.7869ZM52.6822 28.2695H51.15V23.3044H52.7501C53.2317 23.3044 53.6439 23.4038 53.9865 23.6026C54.3292 23.7997 54.5918 24.0834 54.7745 24.4535C54.9571 24.822 55.0484 25.2633 55.0484 25.7772C55.0484 26.2944 54.9563 26.7397 54.772 27.1131C54.5878 27.4848 54.3195 27.7709 53.9671 27.9713C53.6148 28.1701 53.1865 28.2695 52.6822 28.2695ZM51.7512 27.7362H52.6434C53.0539 27.7362 53.3942 27.657 53.6641 27.4986C53.934 27.3402 54.1352 27.1147 54.2678 26.8222C54.4003 26.5296 54.4666 26.1813 54.4666 25.7772C54.4666 25.3764 54.4011 25.0313 54.2702 24.742C54.1393 24.4511 53.9437 24.228 53.6835 24.0729C53.4233 23.9161 53.0992 23.8377 52.7113 23.8377H51.7512V27.7362ZM56.057 28.2695V23.3044H59.0535V23.8377H56.6582V25.5154H58.8984V26.0488H56.6582V27.7362H59.0923V28.2695H56.057ZM62.8526 24.5456C62.8235 24.3 62.7055 24.1093 62.4986 23.9735C62.2917 23.8377 62.038 23.7698 61.7374 23.7698C61.5175 23.7698 61.3252 23.8054 61.1603 23.8765C60.9971 23.9476 60.8694 24.0454 60.7773 24.1699C60.6868 24.2943 60.6415 24.4357 60.6415 24.5941C60.6415 24.7267 60.673 24.8406 60.7361 24.936C60.8007 25.0297 60.8832 25.1081 60.9834 25.1711C61.0836 25.2326 61.1886 25.2835 61.2985 25.3239C61.4084 25.3627 61.5095 25.3942 61.6016 25.4184L62.1059 25.5542C62.2352 25.5881 62.379 25.635 62.5374 25.6948C62.6974 25.7546 62.8502 25.8362 62.9956 25.9397C63.1427 26.0415 63.2639 26.1724 63.3593 26.3324C63.4546 26.4924 63.5023 26.6888 63.5023 26.9216C63.5023 27.1899 63.432 27.4323 63.2914 27.6489C63.1524 27.8655 62.9487 28.0376 62.6804 28.1653C62.4138 28.293 62.0897 28.3568 61.7083 28.3568C61.3527 28.3568 61.0448 28.2994 60.7846 28.1847C60.526 28.0699 60.3223 27.9099 60.1736 27.7046C60.0265 27.4994 59.9433 27.261 59.9239 26.9894H60.5445C60.5607 27.1769 60.6237 27.3321 60.7336 27.4549C60.8452 27.5762 60.9858 27.6667 61.1555 27.7265C61.3268 27.7847 61.5111 27.8137 61.7083 27.8137C61.9378 27.8137 62.1438 27.7766 62.3265 27.7022C62.5091 27.6263 62.6538 27.5212 62.7605 27.387C62.8671 27.2513 62.9205 27.0929 62.9205 26.9119C62.9205 26.747 62.8744 26.6129 62.7823 26.5094C62.6901 26.406 62.5689 26.3219 62.4186 26.2573C62.2683 26.1926 62.1059 26.1361 61.9313 26.0876L61.3204 25.913C60.9325 25.8015 60.6254 25.6423 60.3991 25.4354C60.1728 25.2285 60.0597 24.9578 60.0597 24.6232C60.0597 24.3452 60.1348 24.1028 60.2851 23.8959C60.4371 23.6874 60.6407 23.5258 60.8961 23.411C61.1531 23.2947 61.44 23.2365 61.7567 23.2365C62.0768 23.2365 62.3612 23.2938 62.6101 23.4086C62.859 23.5217 63.0562 23.6769 63.2017 23.8741C63.3488 24.0713 63.4264 24.2951 63.4344 24.5456H62.8526ZM65.0921 23.3044V28.2695H64.4909V23.3044H65.0921ZM69.6918 24.856C69.6385 24.6927 69.5682 24.5465 69.4809 24.4172C69.3952 24.2862 69.2926 24.1747 69.173 24.0826C69.055 23.9905 68.9209 23.9201 68.7705 23.8717C68.6202 23.8232 68.4554 23.7989 68.276 23.7989C67.9818 23.7989 67.7143 23.8749 67.4735 24.0268C67.2327 24.1788 67.0411 24.4026 66.8989 24.6984C66.7567 24.9942 66.6856 25.357 66.6856 25.7869C66.6856 26.2169 66.7575 26.5797 66.9013 26.8755C67.0452 27.1713 67.2399 27.3951 67.4856 27.5471C67.7313 27.699 68.0077 27.775 68.3148 27.775C68.5992 27.775 68.8497 27.7143 69.0663 27.5931C69.2845 27.4703 69.4542 27.2973 69.5755 27.0743C69.6983 26.8496 69.7597 26.5854 69.7597 26.2815L69.944 26.3203H68.4505V25.7869H70.3416V26.3203C70.3416 26.7292 70.2543 27.0848 70.0797 27.387C69.9068 27.6893 69.6676 27.9236 69.3621 28.0901C69.0582 28.255 68.7091 28.3374 68.3148 28.3374C67.8751 28.3374 67.4888 28.234 67.1559 28.0271C66.8246 27.8202 66.566 27.526 66.3801 27.1446C66.1958 26.7632 66.1037 26.3106 66.1037 25.7869C66.1037 25.3942 66.1562 25.041 66.2613 24.7275C66.368 24.4123 66.5183 24.144 66.7122 23.9226C66.9062 23.7011 67.1357 23.5314 67.4008 23.4134C67.6658 23.2955 67.9576 23.2365 68.276 23.2365C68.5378 23.2365 68.7819 23.2761 69.0081 23.3553C69.236 23.4328 69.4389 23.5436 69.6167 23.6874C69.7961 23.8296 69.9456 24.0002 70.0652 24.199C70.1848 24.3961 70.2672 24.6151 70.3125 24.856H69.6918ZM75.3086 23.3044V28.2695H74.7267L72.0211 24.3711H71.9726V28.2695H71.3713V23.3044H71.9532L74.6685 27.2125H74.717V23.3044H75.3086Z" fill="#17313B"/>
<path d="M40.814 34.4566H40.2127C40.1771 34.2836 40.1149 34.1317 40.026 34.0008C39.9387 33.8699 39.8321 33.7599 39.706 33.671C39.5816 33.5805 39.4434 33.5127 39.2914 33.4674C39.1395 33.4221 38.9811 33.3995 38.8162 33.3995C38.5156 33.3995 38.2433 33.4755 37.9992 33.6274C37.7568 33.7793 37.5636 34.0032 37.4198 34.299C37.2776 34.5947 37.2064 34.9576 37.2064 35.3875C37.2064 35.8175 37.2776 36.1803 37.4198 36.4761C37.5636 36.7719 37.7568 36.9957 37.9992 37.1476C38.2433 37.2996 38.5156 37.3755 38.8162 37.3755C38.9811 37.3755 39.1395 37.3529 39.2914 37.3077C39.4434 37.2624 39.5816 37.1953 39.706 37.1064C39.8321 37.0159 39.9387 36.9052 40.026 36.7743C40.1149 36.6418 40.1771 36.4898 40.2127 36.3185H40.814C40.7687 36.5723 40.6863 36.7993 40.5667 36.9998C40.4471 37.2002 40.2984 37.3707 40.1206 37.5113C39.9428 37.6503 39.7432 37.7562 39.5217 37.8289C39.3019 37.9016 39.0668 37.938 38.8162 37.938C38.3928 37.938 38.0162 37.8346 37.6865 37.6277C37.3568 37.4208 37.0973 37.1266 36.9082 36.7452C36.7191 36.3638 36.6246 35.9112 36.6246 35.3875C36.6246 34.8639 36.7191 34.4113 36.9082 34.0299C37.0973 33.6484 37.3568 33.3543 37.6865 33.1474C38.0162 32.9405 38.3928 32.8371 38.8162 32.8371C39.0668 32.8371 39.3019 32.8734 39.5217 32.9462C39.7432 33.0189 39.9428 33.1256 40.1206 33.2662C40.2984 33.4052 40.4471 33.5749 40.5667 33.7753C40.6863 33.9741 40.7687 34.2012 40.814 34.4566ZM45.9749 35.3875C45.9749 35.9112 45.8804 36.3638 45.6913 36.7452C45.5021 37.1266 45.2427 37.4208 44.913 37.6277C44.5833 37.8346 44.2067 37.938 43.7832 37.938C43.3598 37.938 42.9832 37.8346 42.6535 37.6277C42.3238 37.4208 42.0643 37.1266 41.8752 36.7452C41.6861 36.3638 41.5916 35.9112 41.5916 35.3875C41.5916 34.8639 41.6861 34.4113 41.8752 34.0299C42.0643 33.6484 42.3238 33.3543 42.6535 33.1474C42.9832 32.9405 43.3598 32.8371 43.7832 32.8371C44.2067 32.8371 44.5833 32.9405 44.913 33.1474C45.2427 33.3543 45.5021 33.6484 45.6913 34.0299C45.8804 34.4113 45.9749 34.8639 45.9749 35.3875ZM45.393 35.3875C45.393 34.9576 45.3211 34.5947 45.1773 34.299C45.035 34.0032 44.8419 33.7793 44.5978 33.6274C44.3554 33.4755 44.0839 33.3995 43.7832 33.3995C43.4826 33.3995 43.2103 33.4755 42.9662 33.6274C42.7238 33.7793 42.5306 34.0032 42.3868 34.299C42.2446 34.5947 42.1734 34.9576 42.1734 35.3875C42.1734 35.8175 42.2446 36.1803 42.3868 36.4761C42.5306 36.7719 42.7238 36.9957 42.9662 37.1476C43.2103 37.2996 43.4826 37.3755 43.7832 37.3755C44.0839 37.3755 44.3554 37.2996 44.5978 37.1476C44.8419 36.9957 45.035 36.7719 45.1773 36.4761C45.3211 36.1803 45.393 35.8175 45.393 35.3875ZM46.9859 32.9049H47.7035L49.3909 37.0264H49.4491L51.1365 32.9049H51.8541V37.8701H51.2916V34.0977H51.2431L49.6915 37.8701H49.1485L47.5968 34.0977H47.5483V37.8701H46.9859V32.9049ZM53.0596 37.8701V32.9049H54.7373C55.1268 32.9049 55.4452 32.9752 55.6925 33.1159C55.9414 33.2549 56.1257 33.4432 56.2453 33.6807C56.3649 33.9183 56.4247 34.1834 56.4247 34.476C56.4247 34.7685 56.3649 35.0344 56.2453 35.2736C56.1273 35.5128 55.9447 35.7035 55.6974 35.8457C55.4501 35.9864 55.1333 36.0567 54.747 36.0567H53.5445V35.5233H54.7276C54.9943 35.5233 55.2085 35.4772 55.3701 35.3851C55.5317 35.293 55.6489 35.1685 55.7216 35.0117C55.796 34.8534 55.8331 34.6748 55.8331 34.476C55.8331 34.2772 55.796 34.0994 55.7216 33.9426C55.6489 33.7858 55.5309 33.663 55.3677 33.5741C55.2044 33.4836 54.9878 33.4383 54.7179 33.4383H53.6609V37.8701H53.0596ZM57.0902 37.8701H56.4598L58.283 32.9049H58.9036L60.7268 37.8701H60.0965L58.6127 33.6904H58.5739L57.0902 37.8701ZM57.3229 35.9306H59.8637V36.464H57.3229V35.9306ZM65.4374 32.9049V37.8701H64.8556L62.1499 33.9717H62.1014V37.8701H61.5002V32.9049H62.082L64.7974 36.8131H64.8459V32.9049H65.4374ZM66.2138 32.9049H66.9024L68.2794 35.2227H68.3376L69.7147 32.9049H70.4032L68.6091 35.8239V37.8701H68.0079V35.8239L66.2138 32.9049Z" fill="#17313B"/>
<path d="M44.0235 79.3083H44.6247V82.8576C44.6247 83.1744 44.5665 83.4435 44.4502 83.6649C44.3338 83.8863 44.1697 84.0544 43.958 84.1692C43.7463 84.2839 43.4966 84.3413 43.2089 84.3413C42.9373 84.3413 42.6957 84.292 42.484 84.1934C42.2722 84.0932 42.1058 83.951 41.9845 83.7667C41.8633 83.5825 41.8027 83.3635 41.8027 83.1097H42.3943C42.3943 83.2503 42.429 83.3732 42.4985 83.4782C42.5696 83.5817 42.6666 83.6625 42.7894 83.7207C42.9123 83.7789 43.0521 83.808 43.2089 83.808C43.3818 83.808 43.5289 83.7716 43.6501 83.6989C43.7713 83.6261 43.8635 83.5194 43.9265 83.3788C43.9911 83.2366 44.0235 83.0629 44.0235 82.8576V79.3083ZM46.0333 84.2734H45.403L47.2261 79.3083H47.8468L49.6699 84.2734H49.0396L47.5558 80.0938H47.517L46.0333 84.2734ZM46.266 82.3339H48.8068V82.8673H46.266V82.3339ZM51.0445 79.3083V84.2734H50.4433V79.3083H51.0445ZM52.2501 84.2734V79.3083H53.9278C54.3173 79.3083 54.6357 79.3786 54.883 79.5192C55.1319 79.6582 55.3161 79.8465 55.4357 80.0841C55.5554 80.3217 55.6152 80.5867 55.6152 80.8793C55.6152 81.1718 55.5554 81.4377 55.4357 81.6769C55.3178 81.9161 55.1351 82.1068 54.8878 82.2491C54.6405 82.3897 54.3238 82.46 53.9375 82.46H52.735V81.9266H53.9181C54.1848 81.9266 54.3989 81.8806 54.5605 81.7884C54.7222 81.6963 54.8393 81.5718 54.9121 81.4151C54.9864 81.2567 55.0236 81.0781 55.0236 80.8793C55.0236 80.6805 54.9864 80.5027 54.9121 80.3459C54.8393 80.1891 54.7214 80.0663 54.5581 79.9774C54.3949 79.8869 54.1783 79.8416 53.9084 79.8416H52.8513V84.2734H52.2501ZM59.8421 79.3083H60.4434V82.5957C60.4434 82.9352 60.3633 83.2382 60.2033 83.5049C60.0449 83.77 59.8211 83.9793 59.5318 84.1328C59.2425 84.2848 58.903 84.3607 58.5135 84.3607C58.124 84.3607 57.7846 84.2848 57.4953 84.1328C57.206 83.9793 56.9813 83.77 56.8213 83.5049C56.6629 83.2382 56.5837 82.9352 56.5837 82.5957V79.3083H57.185V82.5473C57.185 82.7897 57.2383 83.0055 57.345 83.1946C57.4516 83.3821 57.6036 83.53 57.8008 83.6382C57.9996 83.7449 58.2371 83.7983 58.5135 83.7983C58.7899 83.7983 59.0275 83.7449 59.2263 83.6382C59.4251 83.53 59.577 83.3821 59.6821 83.1946C59.7888 83.0055 59.8421 82.7897 59.8421 82.5473V79.3083ZM61.644 84.2734V79.3083H63.3217C63.7096 79.3083 64.028 79.3745 64.2769 79.5071C64.5258 79.638 64.7101 79.8182 64.8297 80.0477C64.9493 80.2772 65.0091 80.5382 65.0091 80.8308C65.0091 81.1233 64.9493 81.3827 64.8297 81.609C64.7101 81.8353 64.5267 82.0131 64.2794 82.1424C64.0321 82.2701 63.7161 82.3339 63.3314 82.3339H61.9738V81.7908H63.312C63.5771 81.7908 63.7904 81.7521 63.9521 81.6745C64.1153 81.5969 64.2333 81.487 64.306 81.3448C64.3804 81.2009 64.4176 81.0296 64.4176 80.8308C64.4176 80.632 64.3804 80.4582 64.306 80.3095C64.2317 80.1608 64.1129 80.0461 63.9496 79.9653C63.7864 79.8828 63.5706 79.8416 63.3023 79.8416H62.2453V84.2734H61.644ZM63.9812 82.043L65.2031 84.2734H64.5048L63.3023 82.043H63.9812Z" fill="#17313B"/>
<path d="M45.2796 93.874V93.4376L46.9185 91.6436C47.1108 91.4335 47.2692 91.2508 47.3937 91.0957C47.5181 90.9389 47.6103 90.7918 47.6701 90.6544C47.7315 90.5154 47.7622 90.37 47.7622 90.218C47.7622 90.0435 47.7202 89.8923 47.6361 89.7647C47.5537 89.637 47.4406 89.5384 47.2967 89.4689C47.1529 89.3994 46.9912 89.3646 46.8118 89.3646C46.6211 89.3646 46.4546 89.4042 46.3124 89.4834C46.1718 89.561 46.0627 89.6701 45.9851 89.8107C45.9091 89.9513 45.8712 90.1162 45.8712 90.3053H45.299C45.299 90.0144 45.3661 89.759 45.5002 89.5392C45.6344 89.3194 45.817 89.1481 46.0481 89.0252C46.2809 88.9024 46.5419 88.841 46.8312 88.841C47.1221 88.841 47.3799 88.9024 47.6046 89.0252C47.8293 89.1481 48.0054 89.3137 48.1331 89.5222C48.2608 89.7307 48.3247 89.9627 48.3247 90.218C48.3247 90.4007 48.2915 90.5793 48.2252 90.7538C48.1606 90.9268 48.0475 91.1199 47.8858 91.3332C47.7258 91.545 47.5036 91.8036 47.2191 92.1091L46.1039 93.3019V93.3407H48.4119V93.874H45.2796ZM51.0327 93.9419C50.6674 93.9419 50.3563 93.8425 50.0993 93.6437C49.8423 93.4433 49.646 93.1532 49.5102 92.7733C49.3744 92.3919 49.3065 91.9313 49.3065 91.3914C49.3065 90.8548 49.3744 90.3966 49.5102 90.0168C49.6476 89.6354 49.8448 89.3444 50.1017 89.144C50.3603 88.942 50.6707 88.841 51.0327 88.841C51.3948 88.841 51.7043 88.942 51.9613 89.144C52.2199 89.3444 52.417 89.6354 52.5528 90.0168C52.6902 90.3966 52.7589 90.8548 52.7589 91.3914C52.7589 91.9313 52.691 92.3919 52.5552 92.7733C52.4195 93.1532 52.2231 93.4433 51.9661 93.6437C51.7091 93.8425 51.398 93.9419 51.0327 93.9419ZM51.0327 93.4085C51.3948 93.4085 51.676 93.234 51.8764 92.8849C52.0768 92.5358 52.177 92.0379 52.177 91.3914C52.177 90.9615 52.131 90.5954 52.0388 90.2932C51.9483 89.9909 51.8174 89.7606 51.6461 89.6022C51.4764 89.4438 51.2719 89.3646 51.0327 89.3646C50.6739 89.3646 50.3935 89.5416 50.1914 89.8956C49.9894 90.2479 49.8884 90.7465 49.8884 91.3914C49.8884 91.8214 49.9336 92.1866 50.0242 92.4873C50.1147 92.7879 50.2448 93.0166 50.4145 93.1734C50.5858 93.3301 50.7919 93.4085 51.0327 93.4085ZM53.6802 93.874V93.4376L55.3191 91.6436C55.5114 91.4335 55.6698 91.2508 55.7942 91.0957C55.9187 90.9389 56.0108 90.7918 56.0706 90.6544C56.132 90.5154 56.1627 90.37 56.1627 90.218C56.1627 90.0435 56.1207 89.8923 56.0367 89.7647C55.9543 89.637 55.8411 89.5384 55.6973 89.4689C55.5534 89.3994 55.3918 89.3646 55.2124 89.3646C55.0217 89.3646 54.8552 89.4042 54.713 89.4834C54.5723 89.561 54.4632 89.6701 54.3857 89.8107C54.3097 89.9513 54.2717 90.1162 54.2717 90.3053H53.6996C53.6996 90.0144 53.7666 89.759 53.9008 89.5392C54.0349 89.3194 54.2176 89.1481 54.4487 89.0252C54.6814 88.9024 54.9425 88.841 55.2318 88.841C55.5227 88.841 55.7805 88.9024 56.0052 89.0252C56.2298 89.1481 56.406 89.3137 56.5337 89.5222C56.6614 89.7307 56.7252 89.9627 56.7252 90.218C56.7252 90.4007 56.6921 90.5793 56.6258 90.7538C56.5612 90.9268 56.448 91.1199 56.2864 91.3332C56.1264 91.545 55.9041 91.8036 55.6197 92.1091L54.5045 93.3019V93.3407H56.8125V93.874H53.6802ZM59.4915 93.9419C59.1714 93.9419 58.8862 93.887 58.6356 93.777C58.3867 93.6671 58.1887 93.5144 58.0417 93.3188C57.8962 93.1216 57.817 92.8929 57.8041 92.6327H58.415C58.428 92.7927 58.4829 92.9309 58.5799 93.0473C58.6769 93.1621 58.8037 93.251 58.9605 93.314C59.1173 93.377 59.291 93.4085 59.4818 93.4085C59.6951 93.4085 59.8842 93.3714 60.0491 93.297C60.2139 93.2227 60.3432 93.1192 60.437 92.9867C60.5307 92.8542 60.5776 92.7006 60.5776 92.5261C60.5776 92.3434 60.5323 92.1826 60.4418 92.0436C60.3513 91.903 60.2188 91.7931 60.0442 91.7139C59.8697 91.6347 59.6563 91.5951 59.4042 91.5951H59.0066V91.0617H59.4042C59.6014 91.0617 59.7743 91.0262 59.923 90.955C60.0733 90.8839 60.1905 90.7837 60.2745 90.6544C60.3602 90.5251 60.403 90.3732 60.403 90.1986C60.403 90.0305 60.3659 89.8843 60.2915 89.7598C60.2172 89.6354 60.1121 89.5384 59.9763 89.4689C59.8422 89.3994 59.6838 89.3646 59.5012 89.3646C59.3298 89.3646 59.1682 89.3961 59.0163 89.4592C58.866 89.5206 58.7431 89.6103 58.6478 89.7283C58.5524 89.8447 58.5007 89.9853 58.4926 90.1501H57.9107C57.9204 89.8899 57.9988 89.662 58.1459 89.4665C58.293 89.2693 58.4853 89.1157 58.7229 89.0058C58.9621 88.8959 59.2248 88.841 59.5109 88.841C59.8179 88.841 60.0814 88.9032 60.3012 89.0276C60.521 89.1505 60.6899 89.3129 60.8079 89.5149C60.9259 89.717 60.9849 89.9352 60.9849 90.1695C60.9849 90.4491 60.9113 90.6875 60.7643 90.8847C60.6188 91.0819 60.4208 91.2185 60.1703 91.2945V91.3332C60.4838 91.385 60.7287 91.5183 60.9049 91.7333C61.0811 91.9466 61.1691 92.2109 61.1691 92.5261C61.1691 92.796 61.0956 93.0384 60.9485 93.2534C60.8031 93.4667 60.6043 93.6348 60.3521 93.7577C60.1 93.8805 59.8131 93.9419 59.4915 93.9419Z" fill="#17313B"/>
</g>
<defs>
<clipPath id="clip0_0_8698">
<rect width="106.567" height="115.208" fill="white" transform="translate(0.109375 0.294922)"/>
</clipPath>
</defs>
</svg>
