<svg width="91" height="91" viewBox="0 0 91 91" fill="none" xmlns="http://www.w3.org/2000/svg">
<circle cx="45.1897" cy="45.1672" r="43.3453" fill="url(#paint0_linear_34_9065)" stroke="white" stroke-width="3.54823"/>
<g clip-path="url(#clip0_34_9065)">
<path fill-rule="evenodd" clip-rule="evenodd" d="M15.1094 41.3884L29.1869 31.4058L43.3372 41.3884H15.1094ZM61.9337 38.881H69.3631V37.4428C68.9378 35.8695 68.2622 34.8038 67.3856 34.1552C66.5114 33.5078 65.3776 33.2305 64.0487 33.2399L63.91 33.247H41.9766C41.2269 33.247 40.6183 32.6383 40.6183 31.8887C40.6183 31.139 41.2269 30.5304 41.9766 30.5304L64.0134 30.5351C65.9263 30.5186 67.6112 30.9546 68.9965 31.9815C69.1222 32.0743 69.2433 32.1707 69.3631 32.2717V31.4563C69.3631 30.1885 68.8403 29.0299 67.999 28.1886C67.16 27.3497 66.0038 26.8268 64.7337 26.8268H35.1734C33.8986 26.8268 32.74 27.3462 31.9046 28.1828L31.8987 28.1875C31.605 28.4812 31.3512 28.8149 31.1444 29.1803L30.8824 28.9947C30.1703 28.4953 29.2691 28.3343 28.4302 28.5576C28.8005 27.7055 29.3279 26.9306 29.9847 26.2734L29.9906 26.2675C31.3265 24.9363 33.1607 24.1115 35.1734 24.1115H64.7337C66.7535 24.1115 68.59 24.9398 69.9189 26.2699C71.2513 27.6012 72.0785 29.44 72.0785 31.4563V38.9586C72.854 39.116 73.5519 39.5026 74.096 40.0442L74.1101 40.0583C74.8245 40.7786 75.2686 41.7668 75.2686 42.8466V51.7753C75.2686 52.915 74.8033 53.9502 74.056 54.6975C73.9902 54.7633 73.9221 54.8244 73.8516 54.8796C73.3443 55.3262 72.7357 55.642 72.0785 55.7996V59.9802C72.0785 61.993 71.2478 63.8306 69.9154 65.1631L69.8296 65.2406C68.5019 66.5284 66.6994 67.3262 64.7337 67.3262H35.1734C33.1654 67.3262 31.3277 66.4979 29.9929 65.1654L29.987 65.1595C28.6558 63.8248 27.8286 61.9918 27.8286 59.9802V59.6489H30.544V59.9802C30.544 61.2527 31.0657 62.4101 31.9011 63.2455L31.907 63.2502C32.7459 64.0891 33.9044 64.6108 35.1734 64.6108H64.7337C65.9686 64.6108 67.1001 64.1126 67.9332 63.3089L67.9954 63.2431C68.8379 62.4007 69.3631 61.2433 69.3631 59.9802V55.9112H61.9337C59.646 55.9112 57.5639 54.9736 56.0541 53.4649L56.0447 53.4555C54.536 51.9457 53.5984 49.8636 53.5984 47.5747V47.2164C53.5984 44.9275 54.536 42.8466 56.0447 41.3367V41.3273C57.5545 39.8186 59.6401 38.881 61.9337 38.881ZM62.6222 44.1449C63.5152 44.1449 64.3271 44.5092 64.917 45.0967L64.9205 45.1014C65.5103 45.6924 65.8734 46.5043 65.8734 47.3961C65.8734 48.2926 65.5092 49.1069 64.9205 49.6956L64.8477 49.7614C64.2637 50.3113 63.4811 50.6473 62.6222 50.6473C61.7257 50.6473 60.9115 50.2842 60.3228 49.6956C59.7341 49.1069 59.3699 48.2926 59.3699 47.3961C59.3699 46.502 59.7353 45.6889 60.3251 45.099C60.626 44.7961 60.9839 44.5558 61.3782 44.3921C61.7725 44.2283 62.1953 44.1443 62.6222 44.1449ZM15.6052 54.8608H16.9353V54.1358H17.86V45.4386H15.9706V43.3554H42.4007V45.4386H40.5149V54.1358H41.4384V54.8608H42.9636V56.695H15.6052V54.8608ZM23.3284 54.8608V54.1358H24.2519V45.4386H21.338V54.1358H22.2627V54.8608H23.3284ZM29.7227 54.8608V54.1358H30.6438V45.4386H27.7299V54.1358H28.6546V54.8608H29.7227ZM36.1146 54.8608V54.1358H37.0393V45.4386H34.1218V54.1358H35.0465V54.8608H36.1146Z" fill="white"/>
</g>
<defs>
<linearGradient id="paint0_linear_34_9065" x1="45.1897" y1="0.0477905" x2="45.1897" y2="90.2866" gradientUnits="userSpaceOnUse">
<stop stop-color="#FA741F"/>
<stop offset="1" stop-color="#994713"/>
</linearGradient>
<clipPath id="clip0_34_9065">
<rect width="60.1592" height="43.2148" fill="white" transform="translate(15.1094 24.1115)"/>
</clipPath>
</defs>
</svg>
