<svg width="130" height="130" viewBox="0 0 130 130" fill="none" xmlns="http://www.w3.org/2000/svg">
<circle cx="64.9012" cy="64.9012" r="64.9012" fill="#12B3E9" fill-opacity="0.16"/>
<circle cx="65.5582" cy="65.559" r="52.111" fill="url(#paint0_linear_34_9066)"/>
<circle cx="65.5578" cy="65.559" r="37.7355" fill="white"/>
<mask id="mask0_34_9066" style="mask-type:alpha" maskUnits="userSpaceOnUse" x="41" y="41" width="49" height="49">
<rect x="41.2422" y="41.2405" width="48.6369" height="48.6369" fill="#D9D9D9"/>
</mask>
<g mask="url(#mask0_34_9066)">
<path d="M79.7469 65.4576C79.7469 61.5058 78.3705 58.1536 75.6178 55.4009C72.8651 52.6482 69.5129 51.2718 65.5611 51.2718V47.2188C68.0943 47.2188 70.467 47.7001 72.6793 48.6627C74.8916 49.6253 76.8168 50.9256 78.455 52.5637C80.0931 54.2019 81.3934 56.1271 82.356 58.3394C83.3186 60.5517 83.7999 62.9244 83.7999 65.4576H79.7469ZM71.6407 65.4576C71.6407 63.7688 71.0496 62.3333 69.8675 61.1512C68.6854 59.9691 67.2499 59.378 65.5611 59.378V55.3249C68.3645 55.3249 70.7541 56.3128 72.73 58.2887C74.7059 60.2646 75.6938 62.6542 75.6938 65.4576H71.6407ZM81.6721 83.7978C77.4501 83.7978 73.2788 82.8774 69.1582 81.0366C65.0376 79.1958 61.2885 76.5867 57.9109 73.2091C54.5334 69.8315 51.9242 66.0824 50.0834 61.9618C48.2427 57.8412 47.3223 53.6699 47.3223 49.4479C47.3223 48.84 47.5249 48.3333 47.9302 47.928C48.3355 47.5227 48.8422 47.3201 49.4501 47.3201H57.6576C58.1305 47.3201 58.5527 47.4805 58.9242 47.8014C59.2957 48.1222 59.5153 48.5022 59.5828 48.9413L60.9001 56.0342C60.9676 56.5746 60.9507 57.0306 60.8494 57.4021C60.7481 57.7736 60.5623 58.0945 60.2921 58.3647L55.3778 63.3297C56.0533 64.5794 56.8554 65.7869 57.7843 66.9522C58.7131 68.1174 59.7348 69.2405 60.8494 70.3213C61.8965 71.3683 62.9942 72.3394 64.1425 73.2344C65.2909 74.1295 66.5068 74.9485 67.7903 75.6916L72.5527 70.9292C72.8566 70.6253 73.2535 70.3973 73.7433 70.2453C74.233 70.0933 74.7143 70.0511 75.1872 70.1186L82.1787 71.5372C82.6516 71.6723 83.04 71.9172 83.344 72.2718C83.648 72.6265 83.7999 73.0233 83.7999 73.4624V81.6699C83.7999 82.2779 83.5973 82.7845 83.192 83.1898C82.7867 83.5951 82.28 83.7978 81.6721 83.7978Z" fill="url(#paint1_linear_34_9066)"/>
</g>
<defs>
<linearGradient id="paint0_linear_34_9066" x1="65.5582" y1="13.4481" x2="65.5582" y2="117.67" gradientUnits="userSpaceOnUse">
<stop stop-color="#12B3E9"/>
<stop offset="1" stop-color="#066EB5"/>
</linearGradient>
<linearGradient id="paint1_linear_34_9066" x1="65.5611" y1="47.2188" x2="65.5611" y2="83.7978" gradientUnits="userSpaceOnUse">
<stop stop-color="#12B3E9"/>
<stop offset="1" stop-color="#1665A4"/>
</linearGradient>
</defs>
</svg>
