<svg width="128" height="129" viewBox="0 0 128 129" fill="none" xmlns="http://www.w3.org/2000/svg">
<circle cx="64" cy="64.4138" r="64" fill="#EAFAFF"/>
<circle cx="64" cy="64.4138" r="62" stroke="black" stroke-opacity="0.2" stroke-width="4"/>
<path d="M84.0315 54.029C83.1863 49.6011 80.8234 45.6066 77.3499 42.7334C73.8764 39.8603 69.5097 38.2883 65.0019 38.2883C60.4941 38.2883 56.1274 39.8603 52.6539 42.7334C49.1804 45.6066 46.8176 49.6011 45.9723 54.029C42.3982 54.6674 39.1927 56.6213 36.9876 59.5057C34.7825 62.3901 33.7377 65.9958 34.059 69.6123C34.3803 73.2288 36.0445 76.5938 38.7236 79.0443C41.4026 81.4947 44.9024 82.8529 48.5331 82.8512H49.5019V78.9762H48.5331C45.771 78.978 43.1163 77.9064 41.1293 75.9877C39.1424 74.069 37.9787 71.4533 37.8839 68.6928C37.7892 65.9323 38.7707 63.243 40.6214 61.1926C42.4721 59.1422 45.0471 57.8911 47.8029 57.7034L49.4234 57.5928L49.5978 55.9779C50.0122 52.1819 51.8137 48.6726 54.6566 46.1232C57.4995 43.5738 61.1836 42.1639 65.0021 42.1639C68.8207 42.1639 72.5047 43.5738 75.3476 46.1232C78.1905 48.6726 79.992 52.1819 80.4064 55.9779L80.5808 57.5928L82.2013 57.7034C84.9571 57.8911 87.5322 59.1422 89.3829 61.1927C91.2336 63.2432 92.2151 65.9326 92.1203 68.6931C92.0254 71.4537 90.8616 74.0694 88.8746 75.988C86.8875 77.9067 84.2327 78.9781 81.4705 78.9762H80.5018V82.8512H81.4705C85.1013 82.853 88.601 81.4948 91.2802 79.0444C93.9593 76.5939 95.6235 73.2289 95.9448 69.6124C96.2662 65.9959 95.2214 62.3902 93.0163 59.5058C90.8111 56.6213 87.6057 54.6674 84.0315 54.029Z" fill="#066EB5"/>
<path d="M78.5644 77.0388V73.1638H74.4935C74.2437 71.9511 73.7622 70.7979 73.0755 69.7676L75.9623 66.8807L73.2227 64.1411L70.3358 67.0279C69.3055 66.3411 68.1522 65.8596 66.9394 65.6097V61.5388H63.0644V65.6097C61.8517 65.8595 60.6985 66.341 59.6682 67.0278L56.7813 64.1409L54.0417 66.8805L56.9286 69.7674C56.2417 70.7977 55.7602 71.951 55.5103 73.1638H51.4395V77.0388H55.5103C55.7602 78.2516 56.2416 79.4047 56.9284 80.4351L54.0415 83.3219L56.7811 86.0616L59.668 83.1747C60.6984 83.8615 61.8516 84.3431 63.0644 84.5929V88.6638H66.9394V84.5929C68.1522 84.3431 69.3053 83.8616 70.3356 83.1749L73.2225 86.0617L75.9621 83.3221L73.0753 80.4352C73.7621 79.4049 74.2436 78.2516 74.4935 77.0388H78.5644ZM65.0019 80.9138C63.8523 80.9138 62.7285 80.5729 61.7727 79.9342C60.8168 79.2955 60.0718 78.3878 59.6319 77.3257C59.1919 76.2636 59.0768 75.0949 59.3011 73.9673C59.5254 72.8398 60.079 71.8041 60.8919 70.9913C61.7048 70.1784 62.7404 69.6248 63.868 69.4005C64.9955 69.1762 66.1642 69.2913 67.2263 69.7313C68.2883 70.1712 69.1961 70.9162 69.8348 71.8721C70.4735 72.8279 70.8144 73.9517 70.8144 75.1013C70.8127 76.6424 70.1998 78.1198 69.1101 79.2095C68.0204 80.2992 66.543 80.9121 65.0019 80.9138Z" fill="#066EB5"/>
</svg>
