<svg width="87" height="87" viewBox="0 0 87 87" fill="none" xmlns="http://www.w3.org/2000/svg">
<circle cx="43.1671" cy="43.2428" r="43.1671" fill="white" fill-opacity="0.18"/>
<g clip-path="url(#clip0_34_9009)">
<path d="M34.6019 41.2334H39.038V59.5121C39.038 59.873 39.3302 60.1654 39.6907 60.1654H47.2123C47.5728 60.1654 47.865 59.873 47.865 59.5121V41.3195H52.9646C53.2962 41.3195 53.5752 41.0704 53.6131 40.7408L54.3876 34.0115C54.4089 33.8263 54.3502 33.6409 54.2265 33.502C54.1026 33.363 53.9253 33.2834 53.7393 33.2834H47.8653V29.0652C47.8653 27.7936 48.5493 27.1488 49.8986 27.1488C50.0909 27.1488 53.7393 27.1488 53.7393 27.1488C54.0999 27.1488 54.392 26.8562 54.392 26.4955V20.3186C54.392 19.9577 54.0999 19.6653 53.7393 19.6653H48.4463C48.409 19.6635 48.3261 19.6605 48.2039 19.6605C47.2855 19.6605 44.0933 19.8409 41.5717 22.1628C38.7777 24.7357 39.1661 27.8165 39.2589 28.3506V33.2833H34.6019C34.2414 33.2833 33.9492 33.5757 33.9492 33.9366V40.5799C33.9492 40.9408 34.2414 41.2334 34.6019 41.2334Z" fill="white"/>
</g>
<defs>
<clipPath id="clip0_34_9009">
<rect width="40.4692" height="40.458" fill="white" transform="translate(24.2812 20.0029)"/>
</clipPath>
</defs>
</svg>
