<svg width="87" height="87" viewBox="0 0 87 87" fill="none" xmlns="http://www.w3.org/2000/svg">
<circle cx="43.7316" cy="43.2428" r="43.1671" fill="white" fill-opacity="0.18"/>
<path d="M56.7985 32.8008C56.7985 33.8943 55.8873 34.7144 54.885 34.7144C53.7915 34.7144 52.9714 33.8031 52.9714 32.8008C52.9714 31.7073 53.8826 30.8873 54.885 30.8873C55.8873 30.7961 56.7985 31.7073 56.7985 32.8008ZM64.2705 33.6209V53.4854C64.2705 59.135 59.6233 63.7822 53.9738 63.7822H34.1092C28.4597 63.7822 23.8125 59.135 23.8125 53.4854V33.6209C23.8125 27.9714 28.4597 23.3242 34.1092 23.3242H53.9738C59.7144 23.3242 64.2705 27.9714 64.2705 33.6209ZM60.4434 33.6209C60.4434 30.0672 57.5275 27.1513 53.9738 27.1513H34.1092C30.5555 27.1513 27.6396 30.0672 27.6396 33.6209V53.4854C27.6396 57.0392 30.5555 59.9551 34.1092 59.9551H53.9738C57.6186 59.9551 60.5345 57.0392 60.5345 53.4854L60.4434 33.6209ZM54.6116 43.5532C54.6116 37.7214 49.8733 32.9831 44.0415 32.9831C38.2097 32.9831 33.4714 37.7214 33.4714 43.5532C33.4714 49.3849 38.2097 54.1233 44.0415 54.1233C49.8733 54.1233 54.6116 49.3849 54.6116 43.5532ZM50.7845 43.5532C50.7845 47.2891 47.7775 50.2962 44.0415 50.2962C40.3055 50.2962 37.2985 47.2891 37.2985 43.5532C37.2985 39.8172 40.3055 36.8102 44.0415 36.8102C47.7775 36.8102 50.7845 39.8172 50.7845 43.5532Z" fill="white"/>
</svg>
