<svg width="87" height="87" viewBox="0 0 87 87" fill="none" xmlns="http://www.w3.org/2000/svg">
<circle cx="43.421" cy="43.2428" r="43.1671" fill="white" fill-opacity="0.18"/>
<path d="M27.7321 36.478H33.314V60.3241H27.7321V36.478ZM30.5454 32.5483C29.5332 32.5483 28.6847 32.2357 28 31.6106C27.3153 30.9556 26.9729 30.1518 26.9729 29.1991C26.9729 28.2465 27.3153 27.4576 28 26.8324C28.6847 26.1774 29.5332 25.85 30.5454 25.85C31.5576 25.85 32.406 26.1626 33.0908 26.7877C33.7755 27.3832 34.1178 28.1423 34.1178 29.0652C34.1178 30.0476 33.7755 30.8812 33.0908 31.5659C32.4358 32.2208 31.5873 32.5483 30.5454 32.5483ZM54.171 36.2101C57.1778 36.2101 59.5892 37.0883 61.4052 38.8448C63.2212 40.6012 64.1292 43.2061 64.1292 46.6595V60.3241H58.5473V47.374C58.5473 45.2901 58.056 43.7271 57.0736 42.6852C56.0912 41.6134 54.692 41.0775 52.876 41.0775C50.8218 41.0775 49.1993 41.7027 48.0085 42.9531C46.8177 44.1737 46.2223 45.945 46.2223 48.2671V60.3241H40.6403V36.478H45.9544V39.5593C46.8772 38.4577 48.0383 37.6242 49.4375 37.0585C50.8367 36.4929 52.4145 36.2101 54.171 36.2101Z" fill="white"/>
</svg>
