<svg width="88" height="87" viewBox="0 0 88 87" fill="none" xmlns="http://www.w3.org/2000/svg">
<circle cx="43.8585" cy="43.2428" r="43.1671" fill="white" fill-opacity="0.18"/>
<path d="M53.0755 52.0858C52.2817 53.2319 51.1153 54.1219 49.5912 54.7646C48.0639 55.4073 46.2597 55.7309 44.1751 55.7309C41.6769 55.7309 39.6084 55.295 37.9764 54.4095C36.819 53.7758 35.8779 52.9308 35.1542 51.8746C34.4287 50.8137 34.0616 49.78 34.0616 48.7687C34.0616 48.1709 34.289 47.654 34.7313 47.2315C35.1785 46.8045 35.7547 46.5932 36.4339 46.5932C36.9912 46.5932 37.4689 46.7596 37.8587 47.0921C38.2452 47.4247 38.5688 47.9056 38.8344 48.5439C39.1518 49.281 39.4974 49.9013 39.8647 50.3912C40.2296 50.8767 40.7433 51.2857 41.4086 51.6048C42.0666 51.9195 42.9421 52.0813 44.038 52.0813C45.5374 52.0813 46.7497 51.7577 47.6769 51.1149C48.6091 50.4721 49.0573 49.6856 49.0573 48.7373C49.0573 47.9776 48.8154 47.3753 48.321 46.9079C47.8217 46.4315 47.1762 46.0719 46.3757 45.8201C45.572 45.5639 44.4929 45.2942 43.1404 45.0111C41.3245 44.611 39.8053 44.1526 38.5761 43.6223C37.3445 43.0918 36.3637 42.3637 35.6369 41.4468C34.9083 40.5164 34.5452 39.3657 34.5452 37.9994C34.5452 36.6959 34.9281 35.5362 35.6963 34.5205C36.4635 33.5046 37.5733 32.7271 39.021 32.1877C40.4634 31.6438 42.1614 31.3742 44.1067 31.3742C45.6623 31.3742 47.0076 31.554 48.1471 31.9136C49.2833 32.2732 50.2298 32.7495 50.9868 33.3473C51.7397 33.9407 52.2929 34.5699 52.6436 35.2307C52.9937 35.8913 53.1703 36.5385 53.1703 37.1678C53.1703 37.7566 52.9429 38.287 52.5002 38.7545C52.0574 39.2219 51.4907 39.4602 50.8295 39.4557C50.233 39.4557 49.7652 39.3208 49.4406 39.0286C49.1246 38.7454 48.7925 38.296 48.4338 37.6712C47.9803 36.7993 47.4368 36.1205 46.8049 35.6352C46.1892 35.1587 45.1743 34.907 43.7615 34.9115C42.4545 34.9115 41.4086 35.1767 40.6193 35.7026C39.8251 36.2329 39.4453 36.8488 39.4434 37.5678C39.4453 38.0218 39.5747 38.4038 39.8364 38.7276C40.1015 39.0556 40.4715 39.3433 40.946 39.5814C41.4211 39.8287 41.9048 40.0174 42.3907 40.1523C42.8819 40.2917 43.6973 40.4939 44.8304 40.7591C46.2516 41.0647 47.5411 41.4063 48.6995 41.7794C49.8554 42.1569 50.8421 42.6064 51.6574 43.1458C52.479 43.6807 53.1213 44.3683 53.5798 45.1953C54.041 46.0224 54.271 47.0337 54.271 48.2248C54.271 49.6586 53.8711 50.944 53.0755 52.0858ZM62.7027 46.4809C62.8537 45.528 62.9333 44.5481 62.9333 43.5503C62.9333 33.1855 54.5309 24.7849 44.1652 24.7849C43.1705 24.7849 42.1907 24.8658 41.236 25.0142C39.5073 23.9445 37.4677 23.3242 35.2814 23.3242C29.0176 23.3242 23.9395 28.4032 23.9395 34.6688C23.9395 36.8532 24.5588 38.8938 25.6281 40.6242C25.4803 41.5817 25.3989 42.5525 25.3989 43.5503C25.3989 53.9195 33.8013 62.3157 44.1652 62.3157C45.1603 62.3157 46.1401 62.2393 47.0948 62.091C48.8249 63.1562 50.8631 63.7765 53.0494 63.7765C59.315 63.7765 64.3918 58.702 64.3918 52.4363C64.3918 50.2519 63.7733 48.2113 62.7027 46.4809Z" fill="white"/>
</svg>
