<svg width="128" height="129" viewBox="0 0 128 129" fill="none" xmlns="http://www.w3.org/2000/svg">
<circle cx="64" cy="64.4138" r="64" fill="#EAFAFF"/>
<circle cx="64" cy="64.4138" r="62" stroke="black" stroke-opacity="0.2" stroke-width="4"/>
<path d="M80.543 47.8279C80.543 48.7343 81.4528 49.6407 82.7247 49.6407C84.542 49.6407 85.0874 48.9156 85.0874 47.8279C85.0874 47.6466 85.0874 47.6466 85.0874 47.4661C84.9064 46.9223 84.3602 46.5597 83.8164 46.1972C83.6338 46.1972 83.2709 46.0159 82.9081 46.0159C81.6338 46.0167 80.543 46.741 80.543 47.8279Z" fill="#066EB5"/>
<path d="M84.3617 41.8457C84.1783 40.758 83.4518 39.8516 82.5436 39.8516C81.6337 39.8516 81.0883 40.758 81.2717 41.8457C81.4551 42.9334 82.18 43.8398 83.089 43.8398C83.8163 43.8398 84.5427 42.9334 84.3617 41.8457Z" fill="#066EB5"/>
<path d="M76.1799 55.4417L79.2707 52.3599C81.088 53.8102 83.2722 54.7166 85.6349 54.7166C91.2702 54.7166 95.8163 50.1837 95.8163 44.5648C95.8147 38.9451 91.2702 34.4138 85.6341 34.4138C79.9996 34.4138 75.4527 38.9459 75.4527 44.5656C75.4527 47.1035 76.3609 49.2781 77.8162 50.9105L74.7246 53.9931C75.27 54.5361 75.8155 55.0807 76.1799 55.4417ZM87.2704 41.3017H89.2695V39.3084H89.9967V41.3025H91.9975V42.0276H89.9967V44.0226H89.2695V42.0268H87.2704V41.3017ZM82.7251 44.7461C82.7251 44.5648 82.7251 44.3835 82.9085 44.2022C82.7251 44.2022 82.7251 44.2022 82.5457 44.2022C81.0904 44.2022 79.9996 43.1145 79.9996 41.8456C79.9996 40.5766 81.4532 39.4889 82.9085 39.4889H86.1795L85.4523 40.0327H84.3614C85.0886 40.2148 85.4523 41.1212 85.4523 42.0268C85.4523 42.752 85.0886 43.2958 84.5424 43.8397C83.997 44.2022 83.8152 44.3835 83.8152 44.7461C83.8152 45.1086 84.3614 45.6525 84.7242 45.8338C85.6325 46.3776 85.8151 47.1027 85.8151 48.0091C85.8151 49.2773 84.7242 50.3658 82.5433 50.3658C80.726 50.3658 79.0889 49.6407 79.0889 48.3717C79.0889 47.1027 80.5426 46.015 82.3607 46.015C82.5433 46.015 82.7235 46.015 82.9061 46.015C82.9061 45.472 82.7251 45.1094 82.7251 44.7461Z" fill="#066EB5"/>
<path d="M85.635 76.1087C83.2723 76.1087 80.9088 77.0143 79.2709 78.4654L76.1809 75.3828C75.8164 75.9267 75.271 76.2876 74.9082 76.6502L77.9998 79.7328C76.5453 81.544 75.6363 83.7218 75.6363 86.0784C75.6363 91.6974 80.1832 96.2302 85.8185 96.2302C91.453 96.2302 96.0007 91.6974 96.0007 86.0784C95.8156 80.4587 91.2712 76.1087 85.635 76.1087ZM82.7261 90.7926H80.7262V84.4469H82.7261V90.7926ZM81.817 83.5421C81.0898 83.5421 80.5452 82.9975 80.5452 82.4528C80.5452 81.909 81.0906 81.3651 81.817 81.3651C82.5434 81.3651 83.0889 81.909 83.0889 82.4528C82.9071 83.1787 82.5443 83.5421 81.817 83.5421ZM90.9076 90.7926H88.544V87.5303C88.544 86.6247 88.1812 86.0801 87.4523 86.0801C86.9069 86.0801 86.5441 86.4426 86.3615 86.8052C86.3615 86.9889 86.3615 87.1686 86.3615 87.3498V90.795H84.1797C84.1797 90.795 84.1797 84.994 84.1797 84.4493H86.3615V85.3557C86.5441 84.994 87.2713 84.268 88.3622 84.268C89.8159 84.268 90.9076 85.1736 90.9076 87.1685V90.7926Z" fill="#066EB5"/>
<path d="M53.6356 75.3843L50.5448 78.4669C48.7267 77.0158 46.545 76.1102 44.1814 76.1102C38.5453 76.1102 34 80.6439 34 86.2612C34 91.8809 38.5453 96.4138 44.1814 96.4138C49.8167 96.4138 54.3628 91.8809 54.3628 86.2612C54.3628 83.9045 53.4538 81.5487 51.9993 79.9163L55.0901 76.8337C54.5446 76.2891 53.9992 75.7444 53.6356 75.3843ZM48.5457 84.6288C48.5457 87.7106 46.1821 91.1542 42.0005 91.1542C40.7286 91.1542 39.4551 90.7916 38.5461 90.0649C38.7279 90.0649 38.9097 90.0649 39.0915 90.0649C40.1824 90.0649 41.0914 89.7031 42.0005 89.1593C41.0914 89.1593 40.1824 88.4341 39.8188 87.5269C40.0006 87.5269 40.1816 87.5269 40.1816 87.5269C40.3642 87.5269 40.5452 87.5269 40.7278 87.5269C39.6361 87.344 38.9097 86.4392 38.9097 85.3515C39.2733 85.5336 39.637 85.7133 40.0006 85.7133C39.4551 85.3515 38.9097 84.6256 38.9097 83.9005C38.9097 83.5395 39.0915 83.1753 39.2733 82.8128C40.3642 84.2638 41.9997 85.1694 43.9996 85.1694C43.9996 84.9865 43.9996 84.8077 43.9996 84.6256C43.9996 83.3566 45.0913 82.2689 46.3631 82.2689C47.0904 82.2689 47.6358 82.6307 48.0003 82.9941C48.5457 82.812 49.0911 82.6315 49.4547 82.4502C49.2721 82.9941 48.9085 83.3558 48.3631 83.7176C48.9085 83.7176 49.2721 83.5355 49.6357 83.3558C49.2721 83.8997 48.9085 84.2614 48.5449 84.4435C48.5457 84.4467 48.5457 84.4467 48.5457 84.6288Z" fill="#066EB5"/>
<path d="M44.1814 54.7174C46.545 54.7174 48.9077 53.811 50.5448 52.3607L53.6356 55.4425C53.9992 54.8987 54.5446 54.5369 54.9083 54.1744L51.8167 51.0926C53.2711 49.2798 54.1802 47.1044 54.1802 44.7477C54.1802 39.128 49.6349 34.5959 43.9988 34.5959C38.3635 34.5959 34 39.128 34 44.7477C34 50.1846 38.5453 54.7174 44.1814 54.7174ZM41.8179 42.9333H42.9087V41.8456C42.9087 40.3953 43.4542 39.4889 45.2723 39.4889H46.7268V41.3018H45.8177C45.0905 41.3018 45.0905 41.483 45.0905 42.0269V42.9333H46.7268L46.545 44.7461H44.907V49.822H42.7253V44.7461H41.6352V42.9333H41.8179Z" fill="#066EB5"/>
<path d="M74.1818 70.4881C73.9984 70.1272 73.6355 69.9435 73.4545 69.9435C71.8182 69.3996 70.3646 69.0387 68.7283 68.494C68.5465 68.494 68.1828 68.1323 68.1828 67.4063C68.1828 67.0429 68.1828 66.8617 67.82 66.8617C67.6366 66.8617 67.82 66.8617 67.6366 66.6804C67.4556 65.9553 67.4556 65.5919 67.4556 65.4114C67.4556 65.2309 67.6366 65.2293 67.6366 65.0488C68.1828 64.3237 68.3638 63.2368 68.3638 62.8735C68.3638 62.8735 68.5465 62.8735 68.5465 62.6914C68.7283 62.3288 68.7283 62.3288 68.7283 61.7842C68.9117 61.4232 68.9117 60.8794 68.5465 60.8794C68.3638 61.0607 68.3638 60.8794 68.3638 60.5168V58.3414C68.3638 57.6163 67.8176 57.0733 67.4556 56.892C66.9085 56.5286 66.7283 56.3473 66.5457 56.3473C66.3631 56.166 66.3631 55.9848 66.5457 55.8035C66.7275 55.623 66.9085 55.623 66.9085 55.4409C66.9085 55.4409 66.9085 55.4409 66.7259 55.4409C66.5433 55.4409 65.4541 55.6238 64.9086 55.8035C63.9996 55.9848 63.0905 56.3473 62.3625 56.892C61.817 57.2537 61.4534 57.7976 61.4534 58.5243C61.4534 58.8853 61.4534 59.9738 61.4534 60.6997C61.4534 60.8826 61.4534 61.0623 61.2716 60.8826C60.7262 60.8826 61.0898 61.6077 61.0898 61.7874C61.0898 62.15 61.2716 62.3321 61.4526 62.6946C61.4526 62.8767 61.6352 62.8767 61.6352 62.8767C61.817 63.4205 61.9988 64.5082 62.3625 65.0521C62.3625 65.0521 62.5451 65.2342 62.5451 65.4146C62.5451 65.7772 62.5451 66.3211 62.3625 66.6836C62.3625 66.6836 62.3625 66.8657 62.1806 66.8657C61.817 66.8657 61.817 67.047 61.817 67.4096C61.817 67.9534 61.4534 68.4981 61.2716 68.4981C60.3625 68.859 57.6362 69.7662 56.7263 69.9475C56.1809 70.1304 55.9991 70.3101 55.8173 70.4913L54.9082 72.6667C58.5436 72.6667 60.3625 74.8421 64.1806 75.5672H65.9987C69.8167 75.0234 72.5431 72.6667 75.0892 72.6667L74.1818 70.4881Z" fill="#066EB5"/>
</svg>
