<svg width="128" height="129" viewBox="0 0 128 129" fill="none" xmlns="http://www.w3.org/2000/svg">
<circle cx="64" cy="64.4138" r="64" fill="#EAFAFF"/>
<circle cx="64" cy="64.4138" r="62" stroke="black" stroke-opacity="0.2" stroke-width="4"/>
<g clip-path="url(#clip0_34_3124)">
<path d="M95.5156 81.7614V36.7146H34.4844V81.7614H61.3672V88.7849H52.1641V94.113H77.8359V88.7849H68.6328V81.7614H95.5156ZM38.6016 40.8318H91.1562V77.4021H38.6016V40.8318ZM65.2971 52.6539V50.8797L63.4374 50.5655C63.3001 49.9576 63.0603 49.388 62.7372 48.8758L63.8305 47.3391L62.5752 46.0839L61.0385 47.1771C60.5275 46.854 59.9576 46.6152 59.3488 46.4769L59.0359 44.6181H57.2604L56.9475 46.4769C56.3384 46.6155 55.7688 46.854 55.2578 47.1771L53.7211 46.0839L52.4658 47.3391L53.5591 48.8758C53.236 49.388 52.9962 49.9576 52.8589 50.5655L50.9991 50.8797V52.6539L52.8589 52.9668C52.9962 53.5759 53.236 54.1455 53.5591 54.6578L52.4658 56.1945L53.7211 57.4485L55.2578 56.3553C55.7688 56.6783 56.3386 56.9181 56.9475 57.0554L57.2604 58.9152H59.0359L59.3488 57.0554C59.9579 56.9181 60.5275 56.6783 61.0385 56.3553L62.5752 57.4485L63.8305 56.1945L62.7372 54.6578C63.0603 54.1455 63.3001 53.5759 63.4374 52.9668L65.2971 52.6539ZM58.1473 54.588C56.5903 54.588 55.3273 53.3248 55.3273 51.7668C55.3273 50.2088 56.5905 48.9455 58.1473 48.9455C59.7053 48.9455 60.9685 50.2088 60.9685 51.7668C60.9685 53.325 59.7053 54.588 58.1473 54.588ZM77.6516 62.8294L79.8189 61.4843L78.9098 59.263L76.4213 59.8231C75.9517 59.1523 75.3668 58.556 74.6797 58.0661L75.261 55.5827L73.0474 54.6549L71.6841 56.8101C70.8532 56.6636 70.0176 56.6645 69.2102 56.7999L67.8651 54.6326L65.6437 55.5418L66.2039 58.0302C65.533 58.4998 64.9368 59.0847 64.4468 59.7718L61.9634 59.1906L61.0356 61.4041L63.1908 62.7674C63.0443 63.5984 63.0453 64.4339 63.1807 65.2414L61.0133 66.5865L61.9225 68.8078L64.411 68.2476C64.8806 68.9185 65.4655 69.5148 66.1526 70.0047L65.5713 72.4881L67.7849 73.4159L69.1482 71.2607C69.9791 71.4072 70.8147 71.4062 71.6221 71.2709L72.9672 73.438L75.1886 72.5288L74.6284 70.0403C75.2992 69.5707 75.8955 68.9858 76.3855 68.2987L78.8688 68.88L79.7967 66.6664L77.6414 65.3031C77.7877 64.4724 77.787 63.6371 77.6516 62.8294ZM73.9348 65.5107C73.12 67.454 70.8844 68.369 68.9411 67.5543C66.9978 66.7395 66.0828 64.5039 66.8975 62.5606C67.7122 60.6173 69.9479 59.7023 71.8912 60.517C73.8345 61.3317 74.7492 63.5674 73.9348 65.5107ZM56.2197 65.2261C56.2197 65.9483 55.6344 66.5337 54.9122 66.5337C54.1907 66.5337 53.6053 65.9483 53.6053 65.2261C53.6053 64.5039 54.1907 63.9185 54.9122 63.9185C55.6341 63.9185 56.2197 64.5039 56.2197 65.2261ZM59.6435 65.8132V64.639L58.4127 64.4312C58.3219 64.029 58.163 63.6519 57.9494 63.3131L58.6728 62.2961L57.8421 61.4654L56.8252 62.1888C56.4869 61.975 56.11 61.8171 55.707 61.7255L55.4999 60.4955H54.3251L54.118 61.7255C53.715 61.8171 53.3379 61.9752 52.9998 62.1888L51.9829 61.4654L51.1522 62.2961L51.8756 63.3131C51.6618 63.6521 51.5031 64.029 51.4123 64.4312L50.1815 64.639V65.8132L51.4123 66.0202C51.5031 66.4232 51.662 66.8003 51.8756 67.1391L51.1522 68.1561L51.9829 68.9861L52.9998 68.2627C53.3382 68.4765 53.715 68.6351 54.118 68.726L54.3251 69.9567H55.4999L55.707 68.726C56.11 68.6351 56.4871 68.4763 56.8252 68.2627L57.8421 68.9861L58.6728 68.1561L57.9494 67.1391C58.1633 66.8001 58.3219 66.4232 58.4127 66.0202L59.6435 65.8132Z" fill="#066EB5"/>
</g>
<defs>
<clipPath id="clip0_34_3124">
<rect width="62" height="62" fill="white" transform="translate(34 34.4138)"/>
</clipPath>
</defs>
</svg>
