<svg width="130" height="130" viewBox="0 0 130 130" fill="none" xmlns="http://www.w3.org/2000/svg">
<circle cx="64.9012" cy="64.9012" r="64.9012" fill="#12B3E9" fill-opacity="0.16"/>
<circle cx="64.4723" cy="65.559" r="52.111" fill="url(#paint0_linear_34_9067)"/>
<circle cx="65.55" cy="65.5504" r="37.7355" fill="white"/>
<path d="M62.4276 87.7712V82.8263H82.207V65.2721C82.207 60.4509 80.5278 56.3611 77.1695 53.0027C73.8111 49.6443 69.7213 47.9651 64.9 47.9651C60.0788 47.9651 55.989 49.6443 52.6306 53.0027C49.2722 56.3611 47.5931 60.4509 47.5931 65.2721V80.3539H45.1206C43.7608 80.3539 42.5967 79.8697 41.6283 78.9014C40.66 77.933 40.1758 76.7689 40.1758 75.4091V70.4642C40.1758 69.5989 40.3921 68.785 40.8248 68.0227C41.2575 67.2603 41.8653 66.6525 42.6482 66.1993L42.8336 62.9233C43.1633 60.1212 43.9771 57.5252 45.2752 55.1352C46.5732 52.7452 48.2009 50.6642 50.1582 48.8923C52.1155 47.1204 54.3613 45.7399 56.8956 44.751C59.4298 43.762 62.098 43.2675 64.9 43.2675C67.7021 43.2675 70.36 43.762 72.8736 44.751C75.3872 45.7399 77.633 47.1101 79.611 48.8614C81.5889 50.6127 83.2166 52.6833 84.494 55.0734C85.7714 57.4634 86.5956 60.0594 86.9664 62.8615L87.1519 66.0756C87.9348 66.4465 88.5426 67.0028 88.9753 67.7445C89.408 68.4863 89.6243 69.2692 89.6243 70.0933V75.7799C89.6243 76.6041 89.408 77.387 88.9753 78.1287C88.5426 78.8705 87.9348 79.4267 87.1519 79.7976V82.8263C87.1519 84.1862 86.6677 85.3503 85.6993 86.3186C84.731 87.287 83.5669 87.7712 82.207 87.7712H62.4276ZM57.4828 70.4642C56.7822 70.4642 56.195 70.2273 55.7212 69.7534C55.2473 69.2795 55.0103 68.6923 55.0103 67.9918C55.0103 67.2913 55.2473 66.7041 55.7212 66.2302C56.195 65.7563 56.7822 65.5194 57.4828 65.5194C58.1833 65.5194 58.7705 65.7563 59.2444 66.2302C59.7182 66.7041 59.9552 67.2913 59.9552 67.9918C59.9552 68.6923 59.7182 69.2795 59.2444 69.7534C58.7705 70.2273 58.1833 70.4642 57.4828 70.4642ZM72.3173 70.4642C71.6168 70.4642 71.0296 70.2273 70.5557 69.7534C70.0818 69.2795 69.8449 68.6923 69.8449 67.9918C69.8449 67.2913 70.0818 66.7041 70.5557 66.2302C71.0296 65.7563 71.6168 65.5194 72.3173 65.5194C73.0178 65.5194 73.605 65.7563 74.0789 66.2302C74.5528 66.7041 74.7897 67.2913 74.7897 67.9918C74.7897 68.6923 74.5528 69.2795 74.0789 69.7534C73.605 70.2273 73.0178 70.4642 72.3173 70.4642ZM50.1273 66.6319C49.8388 62.264 51.1575 58.5141 54.0832 55.3824C57.0089 52.2507 60.6557 50.6848 65.0237 50.6848C68.6911 50.6848 71.9156 51.8489 74.697 54.1771C77.4785 56.5053 79.1577 59.4825 79.7346 63.1087C75.9847 63.0675 72.5337 62.058 69.3813 60.08C66.229 58.1021 63.8081 55.4236 62.1186 52.0446C61.4592 55.3412 60.0685 58.2772 57.9463 60.8526C55.8242 63.4281 53.2178 65.3545 50.1273 66.6319Z" fill="url(#paint1_linear_34_9067)"/>
<defs>
<linearGradient id="paint0_linear_34_9067" x1="64.4723" y1="13.4481" x2="64.4723" y2="117.67" gradientUnits="userSpaceOnUse">
<stop stop-color="#12B3E9"/>
<stop offset="1" stop-color="#066EB5"/>
</linearGradient>
<linearGradient id="paint1_linear_34_9067" x1="64.9" y1="43.2675" x2="64.9" y2="87.7712" gradientUnits="userSpaceOnUse">
<stop stop-color="#12B3E9"/>
<stop offset="1" stop-color="#1665A4"/>
</linearGradient>
</defs>
</svg>
