<svg width="88" height="87" viewBox="0 0 88 87" fill="none" xmlns="http://www.w3.org/2000/svg">
<circle cx="43.9855" cy="43.2428" r="43.1671" fill="white" fill-opacity="0.18"/>
<path fill-rule="evenodd" clip-rule="evenodd" d="M45.4716 25.957C46.9996 25.957 48.5647 25.997 50.0831 26.0602L51.8773 26.146L53.5944 26.2474L55.2022 26.358L56.6686 26.4712C59.9517 26.7376 62.5901 29.2783 62.9111 32.5858L62.9821 33.3442L63.1161 34.9695C63.2414 36.6544 63.3339 38.4915 63.3339 40.2468C63.3339 42.0021 63.2414 43.8393 63.1161 45.5241L62.9821 47.1494C62.9587 47.409 62.9349 47.6621 62.9111 47.9077C62.5901 51.2153 59.9517 53.756 56.6686 54.0224L55.2022 54.1356L53.5944 54.2462L51.8773 54.3476L50.0831 54.4334C48.5647 54.4965 46.9996 54.5366 45.4716 54.5366C43.9437 54.5366 42.3786 54.4965 40.8602 54.4334L39.066 54.3476L37.3488 54.2462L35.741 54.1356L34.2747 54.0224C30.9916 53.756 28.3532 51.2153 28.0321 47.9077L27.9611 47.1494L27.8272 45.5241C27.7019 43.8393 27.6094 42.0021 27.6094 40.2468C27.6094 38.4915 27.7019 36.6544 27.8272 34.9695L27.9611 33.3442C27.9845 33.0846 28.0083 32.8315 28.0321 32.5858C28.3532 29.2783 30.9916 26.7376 34.2747 26.4712L35.741 26.358L37.3488 26.2474L39.066 26.146L40.8602 26.0602C42.3786 25.997 43.9437 25.957 45.4716 25.957ZM41.8992 35.9154V44.5782C41.8992 45.4033 42.7923 45.9188 43.5068 45.5063L51.0089 41.1749C51.7234 40.7625 51.7234 39.7311 51.0089 39.3187L43.5068 34.9873C42.7923 34.5748 41.8992 35.0904 41.8992 35.9154Z" fill="white"/>
</svg>
