<svg width="822" height="365" viewBox="0 0 822 365" fill="none" xmlns="http://www.w3.org/2000/svg">
<path d="M521.093 48.3248C520.821 47.3006 520.02 46.4937 519.001 46.2201C517.157 45.7227 509.76 45.7227 509.76 45.7227C509.76 45.7227 502.363 45.7227 500.519 46.2201C499.501 46.4937 498.7 47.3006 498.427 48.3248C497.934 50.1815 497.934 54.0552 497.934 54.0552C497.934 54.0552 497.934 57.9288 498.427 59.7855C498.7 60.8097 499.501 61.6166 500.519 61.8902C502.363 62.3877 509.76 62.3877 509.76 62.3877C509.76 62.3877 517.157 62.3877 519.001 61.8902C520.019 61.6166 520.821 60.8097 521.093 59.7855C521.587 57.9288 521.587 54.0552 521.587 54.0552C521.587 54.0552 521.587 50.1808 521.093 48.3248Z" fill="white"/>
<path d="M507.342 57.5717V50.5377L513.524 54.0551L507.342 57.5717Z" fill="#263238"/>
<path d="M507.223 291.754C494.315 291.754 483.812 302.256 483.812 315.165C483.812 328.073 494.315 338.575 507.223 338.575C520.132 338.575 530.634 328.073 530.634 315.165C530.634 302.256 520.132 291.754 507.223 291.754Z" fill="#263238"/>
<path d="M503.282 330.201H509.337V315.036H513.562L514.012 309.959H509.337C509.337 309.959 509.337 308.063 509.337 307.067C509.337 305.87 509.578 305.397 510.735 305.397C511.666 305.397 514.012 305.397 514.012 305.397V300.127C514.012 300.127 510.557 300.127 509.819 300.127C505.313 300.127 503.281 302.112 503.281 305.91C503.281 309.219 503.281 309.959 503.281 309.959H500.131V315.099H503.281L503.282 330.201Z" fill="white"/>
<path d="M710.406 280.96C707.456 280.96 705.064 283.352 705.064 286.301C705.064 289.251 707.456 291.643 710.406 291.643C713.355 291.643 715.747 289.251 715.747 286.301C715.747 283.352 713.356 280.96 710.406 280.96ZM710.406 289.769C708.49 289.769 706.939 288.217 706.939 286.301C706.939 284.386 708.491 282.834 710.406 282.834C712.321 282.834 713.873 284.386 713.873 286.301C713.873 288.217 712.321 289.769 710.406 289.769Z" fill="white"/>
<path d="M717.206 280.749C717.206 281.438 716.647 281.997 715.958 281.997C715.268 281.997 714.709 281.438 714.709 280.749C714.709 280.06 715.268 279.501 715.958 279.501C716.647 279.501 717.206 280.06 717.206 280.749Z" fill="white"/>
<path d="M628.519 53.7356C620.425 53.7356 613.863 47.1741 613.863 39.0801C613.863 30.9861 620.425 24.4247 628.519 24.4247C636.613 24.4247 643.174 30.9861 643.174 39.0801C643.174 47.1741 636.613 53.7356 628.519 53.7356Z" fill="#808080"/>
<path fill-rule="evenodd" clip-rule="evenodd" d="M637.01 43.3824V43.3787C637.006 43.3743 637.002 43.3743 636.994 43.3663C636.994 43.3663 636.994 43.3663 636.991 43.3663C636.784 43.2346 636.572 43.2149 636.441 43.1673C636.438 43.1673 636.433 43.1673 636.433 43.1637C635.533 42.8805 634.756 42.2675 634.176 41.5191C633.853 41.1006 633.582 40.6507 633.403 40.1686C633.403 40.1642 633.403 40.1642 633.403 40.1606C633.331 39.9535 633.327 39.7224 633.431 39.5826C633.431 39.5826 633.435 39.5826 633.435 39.579C633.598 39.3478 633.897 39.2008 634.211 39.0852C634.215 39.0852 634.215 39.0852 634.215 39.0852C634.57 38.9615 634.952 38.8225 635.266 38.5431C635.27 38.5431 635.27 38.5387 635.274 38.5387C635.322 38.4948 635.382 38.4356 635.426 38.3441C635.434 38.3244 635.446 38.3002 635.45 38.2724C635.474 38.189 635.474 38.0851 635.43 37.9973C635.43 37.9937 635.43 37.9937 635.43 37.9937C635.339 37.8108 635.184 37.7106 635.064 37.6433H635.059C634.865 37.5277 634.634 37.5196 634.43 37.5877H634.426C634.211 37.6513 634.031 37.7311 633.868 37.7508C633.865 37.7508 633.86 37.7508 633.856 37.7552C633.625 37.7947 633.398 37.8027 633.223 37.7391C633.219 37.715 633.219 37.663 633.211 37.5994H633.215C633.199 37.2168 633.235 36.8232 633.239 36.4128C633.239 36.4128 633.239 36.4128 633.239 36.4091C633.26 35.788 633.283 35.1508 633.192 34.5056C633.192 34.5012 633.192 34.4975 633.192 34.4975C632.989 33.4104 632.292 32.4748 631.407 31.8529C630.766 31.3986 630.001 31.1477 629.225 31.076C628.958 31.0519 628.699 31.0438 628.441 31.0438C627.393 31.0519 626.306 31.3269 625.458 31.9919C624.821 32.4901 624.319 33.1507 624.005 33.8874V33.8911C623.702 34.6475 623.73 35.4559 623.77 36.205C623.794 36.731 623.853 37.2402 623.806 37.7259C623.802 37.742 623.802 37.7501 623.798 37.7581C623.563 37.802 623.304 37.7859 623.049 37.7384H623.046C622.87 37.7106 622.683 37.6389 622.472 37.5789C622.468 37.5789 622.464 37.5789 622.46 37.5752C622.257 37.5313 622.054 37.5869 621.902 37.7025C621.898 37.7025 621.894 37.7025 621.894 37.7062C621.89 37.7098 621.886 37.7098 621.886 37.7142C621.759 37.794 621.587 37.933 621.579 38.1722C621.576 38.1883 621.579 38.2 621.579 38.2161C621.584 38.2161 621.58 38.2197 621.584 38.2197C621.607 38.3595 621.695 38.4626 621.775 38.5307C621.855 38.5987 621.926 38.6426 621.97 38.6784C621.974 38.6784 621.978 38.6821 621.982 38.6865C622.364 38.9411 622.787 39.053 623.157 39.1964C623.411 39.3083 623.63 39.4795 623.683 39.6982C623.746 39.9733 623.627 40.2915 623.476 40.5981V40.6024C623.062 41.4152 622.448 42.1234 621.691 42.645C621.293 42.9157 620.847 43.119 620.381 43.2427C620.378 43.2427 620.369 43.2471 620.361 43.2507C620.266 43.2866 620.039 43.3063 619.895 43.5214C619.887 43.5375 619.879 43.5536 619.871 43.5733C619.824 43.7087 619.879 43.8564 619.947 43.9398C620.01 44.0159 620.082 44.0635 620.146 44.0949C620.149 44.0949 620.154 44.0993 620.157 44.0993C620.547 44.3261 620.977 44.4219 621.368 44.5214C621.372 44.5214 621.372 44.5251 621.372 44.5251C621.655 44.5851 621.917 44.6209 622.128 44.7124C622.136 44.7285 622.16 44.8002 622.208 44.9194C622.28 45.1345 622.312 45.3854 622.391 45.6524C622.415 45.7241 622.479 45.7841 622.554 45.8002C622.733 45.8397 622.828 45.7797 622.844 45.7761C622.852 45.7761 622.86 45.7761 622.869 45.7761C623.522 45.6605 624.179 45.561 624.78 45.708C625.409 45.8756 625.959 46.3094 626.576 46.6796V46.6839C626.986 46.9385 627.46 47.1895 628.01 47.2092C628.01 47.2092 628.01 47.2092 628.014 47.2092C628.428 47.2333 628.83 47.2055 629.228 47.1814C629.232 47.1814 629.232 47.1814 629.236 47.1814C629.575 47.1492 629.901 47.0336 630.191 46.8544C630.195 46.85 630.2 46.8463 630.203 46.8463C630.852 46.4762 631.426 46.0336 632.059 45.7549H632.063C632.265 45.6832 632.524 45.6868 632.808 45.6678C632.811 45.6678 632.816 45.6678 632.816 45.6678C633.342 45.6517 633.863 45.6795 634.385 45.7475C634.401 45.7519 634.421 45.7519 634.437 45.7475C634.508 45.7395 634.58 45.6919 634.616 45.648C634.656 45.6042 634.664 45.5639 634.672 45.5368C634.688 45.4849 634.699 45.4608 634.676 45.5047C634.684 45.4886 634.692 45.4769 634.696 45.4608C634.792 45.1462 634.843 44.8631 634.999 44.6882C635.067 44.6202 635.186 44.5887 635.321 44.5887C635.329 44.5887 635.341 44.5887 635.349 44.5887C635.803 44.5368 636.209 44.3737 636.596 44.2383C636.6 44.2347 636.607 44.2347 636.612 44.2347C636.755 44.171 636.97 44.0993 637.118 43.8959C637.118 43.8959 637.118 43.8959 637.118 43.8923C637.242 43.7211 637.182 43.4863 637.01 43.3824Z" fill="white"/>
<mask id="mask0_34_2241" style="mask-type:luminance" maskUnits="userSpaceOnUse" x="534" y="64" width="140" height="271">
<path d="M662.444 334.637H545.362C539.495 334.637 534.738 329.881 534.738 324.014V75.3137C534.738 69.4466 539.495 64.6899 545.362 64.6899H662.444C668.311 64.6899 673.068 69.4466 673.068 75.3137V324.014C673.068 329.881 668.311 334.637 662.444 334.637Z" fill="white"/>
</mask>
<g mask="url(#mask0_34_2241)">
<path d="M608.604 326.831C608.604 324.235 606.499 322.13 603.903 322.13C601.308 322.13 599.203 324.234 599.203 326.831C599.203 329.427 601.308 331.531 603.903 331.531C606.499 331.531 608.604 329.426 608.604 326.831Z" stroke="white" stroke-width="0.731565" stroke-miterlimit="10" stroke-linecap="round" stroke-linejoin="round"/>
</g>
<path d="M663.064 287.44H545.248V314.27H663.064V287.44Z" fill="white"/>
<path d="M663.064 278.109H545.248V279.275H663.064V278.109Z" fill="white"/>
<path d="M663.064 283.358H545.248V284.524H663.064V283.358Z" fill="white"/>
<rect y="0.54187" width="821.201" height="363.753" rx="18.3714" fill="url(#paint0_linear_34_2241)"/>
<mask id="mask1_34_2241" style="mask-type:alpha" maskUnits="userSpaceOnUse" x="0" y="0" width="822" height="365">
<rect y="0.54187" width="821.201" height="363.753" rx="18.3714" fill="#F80B04"/>
</mask>
<g mask="url(#mask1_34_2241)">
<path d="M724.098 80.7375C696.661 95.0435 674.806 116.254 648.784 132.468C615.643 153.119 576.526 165.179 537.085 173.819C487.95 184.583 433.306 192.465 400.257 226.123C371.837 255.066 366.827 296.959 374.077 334.625C407.64 508.992 727.713 499.169 828.676 384.235C882.427 323.046 986.853 130.154 873.03 73.9866C867.95 71.48 862.535 69.4684 857.018 67.8325C814.876 55.3308 762.235 60.8529 724.098 80.7375Z" fill="white" fill-opacity="0.18"/>
<path opacity="0.7" d="M724.098 80.7375C696.661 95.0435 674.806 116.254 648.784 132.468C615.643 153.119 576.526 165.179 537.085 173.819C487.95 184.583 433.306 192.465 400.257 226.123C371.837 255.066 366.827 296.959 374.077 334.625C407.64 508.992 727.713 499.169 828.676 384.235C882.427 323.046 986.853 130.154 873.03 73.9866C867.95 71.48 862.535 69.4684 857.018 67.8325C814.876 55.3308 762.235 60.8529 724.098 80.7375Z" fill="white" fill-opacity="0.18"/>
</g>
<path d="M513.955 56.89L605.982 207.238L717.806 101.299" stroke="#263238" stroke-width="0.731565" stroke-miterlimit="10" stroke-linecap="round" stroke-linejoin="round"/>
<path d="M465.568 214.078L605.983 207.238L503.79 163.899" stroke="#263238" stroke-width="0.731565" stroke-miterlimit="10" stroke-linecap="round" stroke-linejoin="round"/>
<path d="M628.521 39.0801L607.631 210.78L735.783 236.205" stroke="#263238" stroke-width="0.731565" stroke-miterlimit="10" stroke-linecap="round" stroke-linejoin="round"/>
<path d="M505.93 314.246L605.983 207.238L709.781 285.889" stroke="#263238" stroke-width="0.731565" stroke-miterlimit="10" stroke-linecap="round" stroke-linejoin="round"/>
<path d="M462.439 195.062C452.594 195.062 444.586 203.071 444.586 212.915C444.586 222.759 452.594 230.768 462.439 230.768C472.284 230.768 480.292 222.759 480.292 212.915C480.292 203.071 472.284 195.062 462.439 195.062Z" fill="#263238"/>
<path fill-rule="evenodd" clip-rule="evenodd" d="M473.373 212.457C473.234 206.975 468.719 202.575 463.161 202.575C457.67 202.575 453.193 206.875 452.954 212.27C452.949 212.418 452.945 212.566 452.945 212.715C452.945 214.633 453.48 216.422 454.408 217.953L452.566 223.391L458.225 221.593C459.689 222.396 461.372 222.856 463.161 222.856C468.805 222.856 473.377 218.316 473.377 212.716C473.378 212.628 473.378 212.543 473.373 212.457ZM463.161 221.238C461.415 221.238 459.794 220.722 458.436 219.827L455.136 220.88L456.207 217.714C455.178 216.308 454.571 214.581 454.571 212.715C454.571 212.438 454.586 212.16 454.614 211.887C455.035 207.573 458.709 204.191 463.161 204.191C467.672 204.191 471.379 207.659 471.722 212.05C471.741 212.27 471.751 212.489 471.751 212.715C471.752 217.417 467.896 221.238 463.161 221.238Z" fill="white"/>
<path fill-rule="evenodd" clip-rule="evenodd" d="M467.843 214.762C467.589 214.637 466.36 214.035 466.13 213.953C465.9 213.867 465.733 213.829 465.565 214.078C465.398 214.326 464.915 214.886 464.772 215.048C464.623 215.216 464.48 215.235 464.227 215.111C463.978 214.986 463.169 214.728 462.213 213.877C461.472 213.221 460.965 212.408 460.821 212.16C460.678 211.911 460.806 211.777 460.931 211.653C461.046 211.538 461.18 211.361 461.308 211.217C461.342 211.174 461.371 211.136 461.399 211.097C461.456 211.007 461.499 210.92 461.557 210.801C461.643 210.633 461.6 210.49 461.538 210.366C461.476 210.241 460.974 209.017 460.763 208.519C460.558 208.022 460.347 208.108 460.199 208.108C460.056 208.108 459.888 208.085 459.721 208.085C459.553 208.085 459.281 208.147 459.051 208.396C458.822 208.644 458.176 209.247 458.176 210.472C458.176 210.759 458.228 211.046 458.305 211.318C458.558 212.193 459.104 212.915 459.2 213.04C459.324 213.203 460.932 215.795 463.476 216.795C466.025 217.785 466.025 217.455 466.485 217.412C466.944 217.373 467.968 216.814 468.173 216.231C468.384 215.652 468.384 215.155 468.322 215.049C468.259 214.948 468.091 214.886 467.843 214.762Z" fill="white"/>
<path d="M509.762 36.2013C499.917 36.2013 491.908 44.2105 491.908 54.0544C491.908 63.8983 499.917 71.9075 509.761 71.9075H509.762C519.606 71.9075 527.614 63.8983 527.614 54.0544C527.614 44.2105 519.606 36.2013 509.762 36.2013Z" fill="#263238"/>
<path d="M710.407 268.448C700.562 268.448 692.553 276.457 692.553 286.301C692.553 296.146 700.562 304.155 710.407 304.155C720.251 304.155 728.26 296.146 728.26 286.301C728.26 276.457 720.251 268.448 710.407 268.448Z" fill="#263238"/>
<path d="M710.406 277.774C713.184 277.774 713.512 277.785 714.61 277.835C715.624 277.881 716.174 278.051 716.541 278.193C717.027 278.382 717.373 278.608 717.737 278.972C718.101 279.336 718.326 279.682 718.515 280.168C718.658 280.534 718.827 281.085 718.874 282.1C718.924 283.197 718.935 283.526 718.935 286.303C718.935 289.081 718.924 289.409 718.874 290.506C718.828 291.52 718.658 292.071 718.515 292.437C718.327 292.923 718.101 293.27 717.737 293.633C717.373 293.997 717.027 294.223 716.541 294.412C716.174 294.554 715.624 294.724 714.61 294.77C713.513 294.82 713.184 294.831 710.406 294.831C707.628 294.831 707.3 294.82 706.203 294.77C705.189 294.724 704.638 294.554 704.272 294.412C703.786 294.223 703.44 293.997 703.076 293.633C702.712 293.27 702.486 292.923 702.298 292.437C702.155 292.071 701.986 291.52 701.94 290.506C701.89 289.409 701.879 289.08 701.879 286.303C701.879 283.525 701.889 283.197 701.94 282.1C701.986 281.085 702.155 280.535 702.298 280.168C702.487 279.682 702.712 279.336 703.076 278.972C703.44 278.608 703.786 278.382 704.272 278.193C704.638 278.051 705.189 277.882 706.203 277.835C707.3 277.785 707.629 277.774 710.406 277.774ZM710.406 275.9C707.581 275.9 707.227 275.912 706.118 275.963C705.011 276.013 704.254 276.19 703.593 276.447C702.909 276.712 702.329 277.068 701.75 277.646C701.172 278.225 700.816 278.805 700.55 279.488C700.293 280.15 700.117 280.906 700.067 282.013C700.016 283.123 700.004 283.477 700.004 286.301C700.004 289.127 700.016 289.481 700.067 290.59C700.117 291.697 700.293 292.453 700.55 293.114C700.816 293.798 701.172 294.379 701.75 294.957C702.329 295.535 702.908 295.891 703.593 296.157C704.254 296.414 705.011 296.59 706.118 296.641C707.227 296.691 707.581 296.703 710.406 296.703C713.231 296.703 713.585 296.691 714.694 296.641C715.801 296.59 716.558 296.414 717.219 296.157C717.903 295.891 718.483 295.535 719.061 294.957C719.639 294.379 719.995 293.798 720.261 293.114C720.518 292.453 720.694 291.697 720.745 290.59C720.795 289.48 720.807 289.126 720.807 286.301C720.807 283.476 720.795 283.122 720.745 282.013C720.694 280.906 720.518 280.15 720.261 279.488C719.995 278.804 719.639 278.224 719.061 277.646C718.483 277.068 717.903 276.712 717.219 276.447C716.557 276.19 715.801 276.013 714.694 275.963C713.585 275.912 713.231 275.9 710.406 275.9Z" fill="white"/>
<path d="M716.929 126.183C701.989 126.183 689.879 114.073 689.879 99.1333C689.879 84.1941 701.989 72.0837 716.929 72.0837C731.868 72.0837 743.978 84.1941 743.978 99.1333C743.978 114.073 731.868 126.183 716.929 126.183Z" fill="#263238" stroke="#263238" stroke-width="0.731565" stroke-miterlimit="10" stroke-linecap="round" stroke-linejoin="round"/>
<path d="M702.518 108.189C705.134 109.867 708.243 110.846 711.582 110.846C722.562 110.846 728.765 101.572 728.391 93.2545C729.546 92.4213 730.549 91.3803 731.341 90.1929C730.28 90.6633 729.14 90.9815 727.945 91.1242C729.166 90.3941 730.103 89.2346 730.545 87.8526C729.402 88.5308 728.136 89.0231 726.79 89.2887C725.711 88.1394 724.174 87.4218 722.472 87.4218C718.656 87.4218 715.85 90.9837 716.712 94.6825C711.797 94.436 707.44 92.0818 704.524 88.503C702.975 91.1615 703.72 94.6394 706.355 96.3988C705.385 96.3688 704.472 96.1018 703.675 95.6592C703.611 98.3996 705.574 100.962 708.418 101.533C707.586 101.76 706.674 101.811 705.749 101.634C706.5 103.984 708.684 105.693 711.273 105.741C708.787 107.689 705.655 108.56 702.518 108.189Z" fill="white"/>
<path d="M504.752 148.924C496.978 148.924 490.654 155.248 490.654 163.022C490.654 170.796 496.979 177.12 504.752 177.12C512.526 177.12 518.85 170.795 518.85 163.022C518.85 155.248 512.526 148.924 504.752 148.924Z" fill="#808080"/>
<path d="M500.643 159.33H497.543V169.345H500.643V159.33Z" fill="white"/>
<path d="M499.079 158.019C500.092 158.019 500.913 157.19 500.913 156.17C500.913 155.149 500.092 154.322 499.079 154.322C498.067 154.322 497.246 155.149 497.246 156.17C497.246 157.19 498.067 158.019 499.079 158.019Z" fill="white"/>
<path d="M505.601 164.088C505.601 162.681 506.249 161.841 507.49 161.841C508.629 161.841 509.177 162.647 509.177 164.088C509.177 165.531 509.177 169.346 509.177 169.346H512.263C512.263 169.346 512.263 165.688 512.263 163.004C512.263 160.322 510.742 159.025 508.619 159.025C506.495 159.025 505.601 160.679 505.601 160.679V159.33H502.627V169.346H505.601C505.601 169.346 505.601 165.631 505.601 164.088Z" fill="white"/>
<path d="M735.046 248.861C726.952 248.861 720.391 242.299 720.391 234.205C720.391 226.111 726.952 219.55 735.046 219.55C743.14 219.55 749.701 226.111 749.701 234.205C749.701 242.299 743.139 248.861 735.046 248.861Z" fill="#808080"/>
<path d="M732.858 239.78C733.304 239.688 733.69 239.516 734.018 239.265C734.307 239.047 734.55 238.778 734.744 238.458C735.048 237.974 735.201 237.429 735.201 236.821C735.201 236.232 735.067 235.731 734.801 235.318C734.534 234.905 734.139 234.603 733.615 234.412C733.96 234.236 734.221 234.041 734.398 233.828C734.714 233.447 734.874 232.943 734.874 232.317C734.874 231.709 734.716 231.187 734.402 230.751C733.881 230.041 732.994 229.677 731.743 229.658H726.783V239.92H731.407C731.929 239.919 732.413 239.873 732.858 239.78ZM728.831 231.439H731.064C731.555 231.439 731.959 231.493 732.277 231.599C732.645 231.752 732.828 232.068 732.828 232.546C732.828 232.978 732.689 233.278 732.41 233.447C732.133 233.617 731.771 233.701 731.325 233.701H728.831V231.439ZM728.831 238.137V235.401H731.356C731.797 235.406 732.139 235.464 732.382 235.575C732.817 235.774 733.035 236.141 733.035 236.675C733.035 237.306 732.811 237.734 732.361 237.957C732.113 238.077 731.766 238.137 731.322 238.137H728.831V238.137Z" fill="white"/>
<path d="M736.94 239.243C737.712 239.866 738.603 240.177 739.612 240.177C740.836 240.177 741.788 239.808 742.467 239.07C742.905 238.606 743.15 238.148 743.203 237.698H741.177C741.059 237.921 740.923 238.095 740.769 238.22C740.487 238.453 740.119 238.569 739.667 238.569C739.241 238.569 738.877 238.474 738.574 238.283C738.075 237.976 737.811 237.443 737.78 236.682H743.306C743.316 236.027 743.294 235.524 743.241 235.176C743.149 234.581 742.947 234.058 742.636 233.608C742.292 233.096 741.854 232.722 741.324 232.485C740.796 232.248 740.201 232.129 739.54 232.129C738.428 232.129 737.524 232.479 736.827 233.181C736.129 233.882 735.781 234.89 735.781 236.205C735.783 237.608 736.168 238.62 736.94 239.243ZM738.358 234.199C738.639 233.91 739.033 233.766 739.542 233.766C740.01 233.766 740.403 233.902 740.719 234.174C741.035 234.447 741.212 234.848 741.248 235.374H737.83C737.901 234.879 738.078 234.488 738.358 234.199Z" fill="white"/>
<path d="M741.641 230.247H737.182V231.283H741.641V230.247Z" fill="white"/>
<path d="M662.444 334.637H545.362C539.495 334.637 534.738 329.881 534.738 324.014V75.3137C534.738 69.4466 539.495 64.6899 545.362 64.6899H662.444C668.311 64.6899 673.068 69.4466 673.068 75.3137V324.014C673.068 329.881 668.311 334.637 662.444 334.637Z" fill="#263238"/>
<mask id="mask2_34_2241" style="mask-type:luminance" maskUnits="userSpaceOnUse" x="534" y="64" width="140" height="271">
<path d="M662.444 334.637H545.362C539.495 334.637 534.738 329.881 534.738 324.014V75.3137C534.738 69.4466 539.495 64.6899 545.362 64.6899H662.444C668.311 64.6899 673.068 69.4466 673.068 75.3137V324.014C673.068 329.881 668.311 334.637 662.444 334.637Z" fill="white"/>
</mask>
<g mask="url(#mask2_34_2241)">
<path opacity="0.2" d="M546.661 64.6899C540.077 64.6899 534.738 70.0282 534.738 76.6137V322.714C534.738 326.388 536.403 329.671 539.016 331.859L619.717 64.6899H546.661Z" fill="white"/>
</g>
<path d="M662.444 334.637H545.362C539.495 334.637 534.738 329.881 534.738 324.014V75.3137C534.738 69.4466 539.495 64.6899 545.362 64.6899H662.444C668.311 64.6899 673.068 69.4466 673.068 75.3137V324.014C673.068 329.881 668.311 334.637 662.444 334.637Z" stroke="#263238" stroke-width="0.731565" stroke-miterlimit="10" stroke-linecap="round" stroke-linejoin="round"/>
<path d="M666.916 83.0222H540.891V318.615H666.916V83.0222Z" fill="#4AAD4E" stroke="#263238" stroke-width="0.731565" stroke-miterlimit="10" stroke-linecap="round" stroke-linejoin="round"/>
<path d="M601.919 270.939C633.835 270.939 659.708 245.066 659.708 213.15C659.708 181.234 633.835 155.362 601.919 155.362C570.004 155.362 544.131 181.234 544.131 213.15C544.131 245.066 570.004 270.939 601.919 270.939Z" fill="#263238"/>
<path d="M663.064 111.3H545.248V138.13H663.064V111.3Z" fill="white"/>
<path d="M662.629 85.4664H652.18V91.1968H662.629V85.4664Z" stroke="#263238" stroke-width="0.600688" stroke-miterlimit="10" stroke-linecap="round" stroke-linejoin="round"/>
<path d="M660.329 85.4664H652.18V91.1968H660.329V85.4664Z" fill="#263238" stroke="#263238" stroke-width="0.530458" stroke-miterlimit="10" stroke-linecap="round" stroke-linejoin="round"/>
<path d="M664.079 87.0693H662.607V89.5932H664.079V87.0693Z" fill="#263238" stroke="#263238" stroke-width="0.530458" stroke-miterlimit="10" stroke-linecap="round" stroke-linejoin="round"/>
<path d="M545.644 87.2441H543.729V90.5281H545.644V87.2441Z" fill="#263238" stroke="#263238" stroke-width="0.646045" stroke-miterlimit="10" stroke-linecap="round" stroke-linejoin="round"/>
<path d="M548.654 86.0905H546.738V90.5281H548.654V86.0905Z" fill="#263238" stroke="#263238" stroke-width="0.646045" stroke-miterlimit="10" stroke-linecap="round" stroke-linejoin="round"/>
<path d="M551.666 84.7283H549.75V90.5281H551.666V84.7283Z" fill="#263238" stroke="#263238" stroke-width="0.646045" stroke-miterlimit="10" stroke-linecap="round" stroke-linejoin="round"/>
<path d="M663.94 94.3835H542.922V103.481H663.94V94.3835Z" fill="#263238"/>
<mask id="mask3_34_2241" style="mask-type:luminance" maskUnits="userSpaceOnUse" x="546" y="114" width="197" height="155">
<path d="M742.163 114.202H594.851V157.901C567.423 161.377 546.209 184.778 546.209 213.15C546.209 243.917 571.151 268.86 601.919 268.86C620.219 268.86 636.457 260.035 646.613 246.41H742.163V114.202Z" fill="white"/>
</mask>
<g mask="url(#mask3_34_2241)">
<path d="M541.201 267.622C541.201 267.622 556.623 213.928 559.538 202.449C562.453 190.97 566.826 183.5 575.936 181.677C585.046 179.855 601.799 178.165 601.799 178.165C601.799 178.165 616.375 176.707 626.943 177.436C637.51 178.165 647.168 183.814 652.269 187.64C657.371 191.466 672.129 204.767 672.129 204.767L670.306 174.157L683.607 175.25C683.607 175.25 693.263 217.885 694.539 225.72C695.814 233.555 695.814 237.017 694.539 237.927C693.264 238.838 695.45 239.385 683.789 235.559C672.128 231.732 658.463 226.448 650.992 224.262C643.522 222.075 642.611 221.711 642.611 221.711C642.611 221.711 624.332 249.228 618.501 257.426C612.671 265.626 607.883 275.69 607.883 275.69" fill="white"/>
<mask id="mask4_34_2241" style="mask-type:luminance" maskUnits="userSpaceOnUse" x="541" y="174" width="155" height="102">
<path d="M541.201 267.622C541.201 267.622 556.623 213.928 559.538 202.449C562.453 190.97 566.826 183.5 575.936 181.677C585.046 179.855 601.799 178.165 601.799 178.165C601.799 178.165 616.375 176.707 626.943 177.436C637.51 178.165 647.168 183.814 652.269 187.64C657.371 191.466 672.129 204.767 672.129 204.767L670.306 174.157L683.607 175.25C683.607 175.25 693.263 217.885 694.539 225.72C695.814 233.555 695.814 237.017 694.539 237.927C693.264 238.838 695.45 239.385 683.789 235.559C672.128 231.732 658.463 226.448 650.992 224.262C643.522 222.075 642.611 221.711 642.611 221.711C642.611 221.711 624.332 249.228 618.501 257.426C612.671 265.626 607.883 275.69 607.883 275.69" fill="white"/>
</mask>
<g mask="url(#mask4_34_2241)">
<path opacity="0.2" d="M694.541 237.928C695.816 237.017 695.816 233.556 694.541 225.72C693.78 221.047 690.036 203.987 687.139 190.983C688.293 206.323 688.733 221.358 686.372 224.162C681.27 230.22 673.77 222.259 673.77 222.259L672.344 210.453C672.344 210.453 646.839 191.643 637.273 188.455C627.709 185.266 617.507 184.628 607.623 187.817C597.74 191.005 589.45 194.193 583.393 200.25C577.336 206.308 556.293 254.769 556.293 254.769L553.916 269.16L607.884 275.691C607.884 275.691 612.672 265.627 618.503 257.428C624.333 249.229 642.612 221.712 642.612 221.712C642.612 221.712 643.523 222.077 650.994 224.263C658.465 226.45 672.13 231.733 683.791 235.56C695.452 239.386 693.265 238.84 694.541 237.928Z" fill="black"/>
</g>
<path d="M541.201 267.622C541.201 267.622 556.623 213.928 559.538 202.449C562.453 190.97 566.826 183.5 575.936 181.677C585.046 179.855 601.799 178.165 601.799 178.165C601.799 178.165 616.375 176.707 626.943 177.436C637.51 178.165 647.168 183.814 652.269 187.64C657.371 191.466 672.129 204.767 672.129 204.767L670.306 174.157L683.607 175.25C683.607 175.25 693.263 217.885 694.539 225.72C695.814 233.555 695.814 237.017 694.539 237.927C693.264 238.838 695.45 239.385 683.789 235.559C672.128 231.732 658.463 226.448 650.992 224.262C643.522 222.075 642.611 221.711 642.611 221.711C642.611 221.711 624.332 249.228 618.501 257.426C612.671 265.626 607.883 275.69 607.883 275.69" stroke="#263238" stroke-width="0.731565" stroke-miterlimit="10" stroke-linecap="round" stroke-linejoin="round"/>
<path d="M647.81 213.256L642.613 221.712L658.004 213.256" stroke="#263238" stroke-width="0.731565" stroke-miterlimit="10" stroke-linecap="round" stroke-linejoin="round"/>
<path d="M672.129 204.767C672.129 204.767 672.858 219.89 673.769 222.259C674.681 224.627 678.689 225.72 678.689 225.72" fill="white"/>
<path d="M672.129 204.767C672.129 204.767 672.858 219.89 673.769 222.259C674.681 224.627 678.689 225.72 678.689 225.72" stroke="#263238" stroke-width="0.731565" stroke-miterlimit="10" stroke-linecap="round" stroke-linejoin="round"/>
<path d="M591.841 204.305C591.841 204.305 589.853 209.026 590.846 209.026C591.841 209.026 598.301 206.541 601.284 206.541C604.266 206.541 607.496 211.759 607.496 211.759C607.496 211.759 616.194 205.298 618.928 206.043C620.23 206.398 621.532 207.318 622.539 208.183C623.312 208.847 624.507 208.327 624.547 207.308C624.599 205.972 624.643 204.142 624.643 201.819C624.643 196.352 619.922 181.442 611.224 180.696C602.527 179.951 601.036 186.163 597.308 193.619C593.58 201.073 591.841 204.305 591.841 204.305Z" fill="#263238"/>
<path d="M610.545 172.153C610.545 172.153 602.164 173.246 598.338 176.891C594.512 180.535 595.787 186.365 593.782 191.649C591.778 196.933 588.316 207.683 590.138 207.501C591.961 207.319 598.338 202.217 600.159 203.493C601.982 204.768 606.172 210.052 606.901 210.416C607.629 210.78 616.922 204.039 618.197 203.31C619.473 202.582 625.667 210.598 625.85 208.412C626.033 206.226 626.397 193.289 625.122 185.454C623.846 177.619 614.736 172.335 610.545 172.153Z" fill="white" stroke="#263238" stroke-width="0.731565" stroke-miterlimit="10" stroke-linecap="round" stroke-linejoin="round"/>
<path d="M613.461 161.949C613.461 161.949 610.364 171.424 607.813 174.703C605.262 177.983 604.169 178.529 603.258 186.182C602.348 193.835 606.356 211.144 607.631 210.78C608.906 210.415 621.479 190.373 625.669 187.093C629.859 183.813 634.233 180.352 634.233 180.352C634.233 180.352 624.03 177.254 620.568 172.882C617.105 168.508 613.461 161.949 613.461 161.949Z" fill="white"/>
<mask id="mask5_34_2241" style="mask-type:luminance" maskUnits="userSpaceOnUse" x="603" y="161" width="32" height="50">
<path d="M613.461 161.949C613.461 161.949 610.364 171.424 607.813 174.703C605.262 177.983 604.169 178.529 603.258 186.182C602.348 193.835 606.356 211.144 607.631 210.78C608.906 210.415 621.479 190.373 625.669 187.093C629.859 183.813 634.233 180.352 634.233 180.352C634.233 180.352 624.03 177.254 620.568 172.882C617.105 168.508 613.461 161.949 613.461 161.949Z" fill="white"/>
</mask>
<g mask="url(#mask5_34_2241)">
<path opacity="0.2" d="M627.483 185.672C631.031 182.887 634.232 180.352 634.232 180.352C634.232 180.352 624.029 177.255 620.567 172.882C617.106 168.509 613.462 161.95 613.462 161.95C613.462 161.95 611.707 167.315 609.752 171.369C611.29 175.72 615.595 182.775 627.483 185.672Z" fill="black"/>
</g>
<mask id="mask6_34_2241" style="mask-type:luminance" maskUnits="userSpaceOnUse" x="603" y="161" width="32" height="50">
<path d="M613.461 161.949C613.461 161.949 610.364 171.424 607.813 174.703C605.262 177.983 604.169 178.529 603.258 186.182C602.348 193.835 606.356 211.144 607.631 210.78C608.906 210.415 621.479 190.373 625.669 187.093C629.859 183.813 634.233 180.352 634.233 180.352C634.233 180.352 624.03 177.254 620.568 172.882C617.105 168.508 613.461 161.949 613.461 161.949Z" fill="white"/>
</mask>
<g mask="url(#mask6_34_2241)">
<path d="M620.566 172.882C617.105 168.508 613.461 161.949 613.461 161.949C613.461 161.949 612.42 165.131 611.049 168.444C612.188 171.726 614.464 176.614 618.535 179.498C621.962 181.926 626.136 183.38 629.335 184.215C632.072 182.062 634.231 180.352 634.231 180.352C634.231 180.352 624.029 177.254 620.566 172.882Z" fill="#263238"/>
</g>
<path d="M613.461 161.949C613.461 161.949 610.364 171.424 607.813 174.703C605.262 177.983 604.169 178.529 603.258 186.182C602.348 193.835 606.356 211.144 607.631 210.78C608.906 210.415 621.479 190.373 625.669 187.093C629.859 183.813 634.233 180.352 634.233 180.352C634.233 180.352 624.03 177.254 620.568 172.882C617.105 168.508 613.461 161.949 613.461 161.949Z" stroke="#263238" stroke-width="0.731565" stroke-miterlimit="10" stroke-linecap="round" stroke-linejoin="round"/>
<path d="M652.27 137.716C652.27 137.716 651.724 149.924 652.088 153.932C652.452 157.94 653.91 164.864 650.63 171.424C647.35 177.983 644.617 182.174 641.52 183.267C638.422 184.36 628.401 182.174 620.384 176.161C612.367 170.149 610.91 157.759 609.634 153.751C608.359 149.742 609.816 136.077 618.015 131.704C626.215 127.332 635.143 128.242 639.515 129.7C643.889 131.157 652.27 137.716 652.27 137.716Z" fill="white"/>
<mask id="mask7_34_2241" style="mask-type:luminance" maskUnits="userSpaceOnUse" x="609" y="128" width="44" height="56">
<path d="M652.27 137.716C652.27 137.716 651.724 149.924 652.088 153.932C652.452 157.94 653.91 164.864 650.63 171.424C647.35 177.983 644.617 182.174 641.52 183.267C638.422 184.36 628.401 182.174 620.384 176.161C612.367 170.149 610.91 157.759 609.634 153.751C608.359 149.742 609.816 136.077 618.015 131.704C626.215 127.332 635.143 128.242 639.515 129.7C643.889 131.157 652.27 137.716 652.27 137.716Z" fill="white"/>
</mask>
<g mask="url(#mask7_34_2241)">
<path opacity="0.2" d="M618.015 131.703C616.83 132.335 615.79 133.166 614.875 134.129L619.101 137.124C619.101 137.124 624.521 131.703 636.635 139.356C642.892 143.308 648.294 143.94 652.06 143.631C652.15 140.382 652.269 137.716 652.269 137.716C652.269 137.716 643.887 131.157 639.515 129.699C635.142 128.242 626.214 127.331 618.015 131.703Z" fill="black"/>
</g>
<path d="M652.27 137.716C652.27 137.716 651.724 149.924 652.088 153.932C652.452 157.94 653.91 164.864 650.63 171.424C647.35 177.983 644.617 182.174 641.52 183.267C638.422 184.36 628.401 182.174 620.384 176.161C612.367 170.149 610.91 157.759 609.634 153.751C608.359 149.742 609.816 136.077 618.015 131.704C626.215 127.332 635.143 128.242 639.515 129.7C643.889 131.157 652.27 137.716 652.27 137.716Z" stroke="#263238" stroke-width="0.731565" stroke-miterlimit="10" stroke-linecap="round" stroke-linejoin="round"/>
<path d="M635.061 154.181C635.061 155.482 634.557 156.536 633.934 156.536C633.312 156.536 632.809 155.482 632.809 154.181C632.809 152.881 633.313 151.827 633.934 151.827C634.556 151.827 635.061 152.881 635.061 154.181Z" fill="#263238"/>
<path d="M648.371 155.41C648.371 156.711 647.867 157.765 647.245 157.765C646.623 157.765 646.119 156.711 646.119 155.41C646.119 154.11 646.623 153.056 647.245 153.056C647.867 153.056 648.371 154.11 648.371 155.41Z" fill="#263238"/>
<path d="M644.8 151.928C644.8 151.928 641.338 155.39 642.249 156.848C643.159 158.306 645.272 159.127 644.617 161.221C643.934 163.406 639.151 164.136 637.512 161.221" stroke="#263238" stroke-width="0.731565" stroke-miterlimit="10" stroke-linecap="round" stroke-linejoin="round"/>
<path d="M627.125 163.225C627.125 163.225 630.769 168.327 638.24 168.691C638.24 168.691 630.77 173.611 627.49 173.064C624.211 172.517 627.125 163.225 627.125 163.225Z" fill="#263238" stroke="#263238" stroke-width="0.731565" stroke-miterlimit="10" stroke-linecap="round" stroke-linejoin="round"/>
<path d="M628.869 147.236C628.869 147.236 632.048 142.813 638.406 145.577" stroke="#263238" stroke-width="0.731565" stroke-miterlimit="10" stroke-linecap="round" stroke-linejoin="round"/>
<path d="M646.076 147.374C646.076 147.374 650.079 146.45 651.537 150.277" stroke="#263238" stroke-width="0.731565" stroke-miterlimit="10" stroke-linecap="round" stroke-linejoin="round"/>
<path d="M610.91 158.67C610.91 158.67 612.549 151.564 616.558 149.013C620.567 146.462 624.394 147.008 622.025 143.547C619.656 140.085 618.381 136.623 623.482 134.983C628.584 133.343 638.605 136.076 644.435 138.263C650.266 140.449 661.563 141.178 664.478 132.979C666.279 127.913 661.013 123.885 657.145 121.812C652.886 119.529 648.098 118.396 643.288 119.243C640.391 119.753 637.574 120.898 634.642 121.194C629.694 121.695 625.326 119.396 620.385 120.592C616.313 121.577 612.457 123.875 609.816 127.149C605.262 132.797 603.987 143 610.91 158.67Z" fill="#263238"/>
<mask id="mask8_34_2241" style="mask-type:luminance" maskUnits="userSpaceOnUse" x="606" y="118" width="59" height="41">
<path d="M610.91 158.67C610.91 158.67 612.549 151.564 616.558 149.013C620.567 146.462 624.394 147.008 622.025 143.547C619.656 140.085 618.381 136.623 623.482 134.983C628.584 133.343 638.605 136.076 644.435 138.263C650.266 140.449 661.563 141.178 664.478 132.979C666.279 127.913 661.013 123.885 657.145 121.812C652.886 119.529 648.098 118.396 643.288 119.243C640.391 119.753 637.574 120.898 634.642 121.194C629.694 121.695 625.326 119.396 620.385 120.592C616.313 121.577 612.457 123.875 609.816 127.149C605.262 132.797 603.987 143 610.91 158.67Z" fill="white"/>
</mask>
<g mask="url(#mask8_34_2241)">
<path d="M653.104 118.901C653.104 118.901 662.571 124.013 655.944 132.533C649.318 141.053 643.069 135.183 627.354 132.154C611.639 129.125 602.361 136.887 602.361 136.887" stroke="#808080" stroke-width="0.731565" stroke-miterlimit="10" stroke-linecap="round" stroke-linejoin="round"/>
</g>
<mask id="mask9_34_2241" style="mask-type:luminance" maskUnits="userSpaceOnUse" x="606" y="118" width="59" height="41">
<path d="M610.91 158.67C610.91 158.67 612.549 151.564 616.558 149.013C620.567 146.462 624.394 147.008 622.025 143.547C619.656 140.085 618.381 136.623 623.482 134.983C628.584 133.343 638.605 136.076 644.435 138.263C650.266 140.449 661.563 141.178 664.478 132.979C666.279 127.913 661.013 123.885 657.145 121.812C652.886 119.529 648.098 118.396 643.288 119.243C640.391 119.753 637.574 120.898 634.642 121.194C629.694 121.695 625.326 119.396 620.385 120.592C616.313 121.577 612.457 123.875 609.816 127.149C605.262 132.797 603.987 143 610.91 158.67Z" fill="white"/>
</mask>
<g mask="url(#mask9_34_2241)">
<path d="M603.688 146.166C603.688 146.166 606.717 140.296 616.562 138.592C626.408 136.888 626.976 138.402 626.976 138.402" stroke="#808080" stroke-width="0.731565" stroke-miterlimit="10" stroke-linecap="round" stroke-linejoin="round"/>
</g>
<path d="M610.91 158.67C610.91 158.67 612.549 151.564 616.558 149.013C620.567 146.462 624.394 147.008 622.025 143.547C619.656 140.085 618.381 136.623 623.482 134.983C628.584 133.343 638.605 136.076 644.435 138.263C650.266 140.449 661.563 141.178 664.478 132.979C666.279 127.913 661.013 123.885 657.145 121.812C652.886 119.529 648.098 118.396 643.288 119.243C640.391 119.753 637.574 120.898 634.642 121.194C629.694 121.695 625.326 119.396 620.385 120.592C616.313 121.577 612.457 123.875 609.816 127.149C605.262 132.797 603.987 143 610.91 158.67Z" stroke="#263238" stroke-width="0.731565" stroke-miterlimit="10" stroke-linecap="round" stroke-linejoin="round"/>
<path d="M615.034 156.084C615.034 156.084 610.306 145.262 606.142 150.894C601.977 156.525 609.525 163.652 615.184 162.266" fill="white"/>
<path d="M615.034 156.084C615.034 156.084 610.306 145.262 606.142 150.894C601.977 156.525 609.525 163.652 615.184 162.266" stroke="#263238" stroke-width="0.731565" stroke-miterlimit="10" stroke-linecap="round" stroke-linejoin="round"/>
<path d="M666.482 154.844C666.482 154.844 663.385 154.479 662.838 157.03C662.292 159.581 661.745 163.589 662.838 163.589C663.931 163.589 665.935 163.043 666.664 161.403C667.393 159.763 668.121 154.661 668.121 154.661L666.482 154.844Z" fill="white" stroke="#263238" stroke-width="0.731565" stroke-miterlimit="10" stroke-linecap="round" stroke-linejoin="round"/>
<path d="M671.403 153.933C671.403 153.933 667.03 153.204 666.483 154.843C665.936 156.484 665.208 162.131 665.754 162.313C666.301 162.496 669.58 161.038 669.58 161.038L671.403 153.933Z" fill="white" stroke="#263238" stroke-width="0.731565" stroke-miterlimit="10" stroke-linecap="round" stroke-linejoin="round"/>
<path d="M677.232 154.297C677.232 154.297 672.13 151.017 670.855 152.657C669.58 154.297 669.58 161.038 669.58 161.038C669.58 161.038 671.22 161.403 672.131 160.31C673.042 159.217 674.136 157.759 674.136 157.759C674.136 157.759 677.779 158.67 678.326 158.487C678.872 158.305 680.148 158.487 679.783 156.665C679.419 154.843 677.232 154.297 677.232 154.297Z" fill="white" stroke="#263238" stroke-width="0.731565" stroke-miterlimit="10" stroke-linecap="round" stroke-linejoin="round"/>
<path d="M684.156 157.577C684.156 157.577 680.512 155.208 678.689 151.382C676.867 147.556 675.956 147.738 675.045 149.377C674.135 151.017 675.228 152.657 675.956 154.115C676.685 155.572 679.782 159.035 679.782 159.035L684.156 157.577Z" fill="white" stroke="#263238" stroke-width="0.731565" stroke-miterlimit="10" stroke-linecap="round" stroke-linejoin="round"/>
<path d="M651.383 183.071C651.383 183.071 648.742 205.624 649.148 206.842C649.555 208.061 654.024 209.484 655.04 208.671C656.056 207.859 655.447 206.233 655.04 205.218C654.634 204.201 658.494 185.307 658.494 185.307L651.383 183.071Z" fill="#4AAD4E" stroke="#263238" stroke-width="0.731565" stroke-miterlimit="10" stroke-linecap="round" stroke-linejoin="round"/>
<path d="M584.847 190.882L598.219 232.645C598.219 232.645 628.953 214.752 636.145 205.42C643.336 196.088 647.501 185.553 650.023 184.565C652.546 183.577 661.552 186.039 662.871 187.457C664.19 188.874 663.875 190.525 662.28 192.032C660.686 193.538 659.781 193.748 659.781 193.748C659.781 193.748 659.698 197.032 658.986 197.601C658.274 198.169 658.435 197.435 658.274 198.169C658.114 198.903 657.954 199.637 657.43 200.382C656.906 201.127 656.734 201.497 656.194 201.695C655.653 201.894 656.018 201.883 652.944 202.705C649.869 203.527 648.231 203.577 646.962 203.797C645.692 204.018 637.436 220.309 629.709 230.021C621.982 239.734 597.5 261.986 593.676 262.101C589.851 262.217 567.274 224.953 562.439 215.803" fill="white"/>
<mask id="mask10_34_2241" style="mask-type:luminance" maskUnits="userSpaceOnUse" x="562" y="184" width="102" height="79">
<path d="M584.847 190.882L598.219 232.645C598.219 232.645 628.953 214.752 636.145 205.42C643.336 196.088 647.501 185.553 650.023 184.565C652.546 183.577 661.552 186.039 662.871 187.457C664.19 188.874 663.875 190.525 662.28 192.032C660.686 193.538 659.781 193.748 659.781 193.748C659.781 193.748 659.698 197.032 658.986 197.601C658.274 198.169 658.435 197.435 658.274 198.169C658.114 198.903 657.954 199.637 657.43 200.382C656.906 201.127 656.734 201.497 656.194 201.695C655.653 201.894 656.018 201.883 652.944 202.705C649.869 203.527 648.231 203.577 646.962 203.797C645.692 204.018 637.436 220.309 629.709 230.021C621.982 239.734 597.5 261.986 593.676 262.101C589.851 262.217 567.274 224.953 562.439 215.803" fill="white"/>
</mask>
<g mask="url(#mask10_34_2241)">
<path opacity="0.2" d="M657.429 200.382C657.954 199.637 658.113 198.903 658.273 198.169C658.433 197.435 658.273 198.169 658.985 197.601C659.697 197.032 659.78 193.748 659.78 193.748C659.78 193.748 660.685 193.538 662.28 192.032C663.875 190.526 664.189 188.875 662.87 187.457C661.551 186.038 652.545 183.576 650.023 184.564C649.364 184.822 648.59 185.738 647.682 187.109C649.022 189.316 650.567 190.643 649.129 194.479C646.934 200.332 641.813 207.647 637.424 213.865C633.034 220.084 596.456 254.467 592.067 253.736C588.483 253.139 578.073 240.595 574.373 236.011C582.298 248.731 591.375 262.171 593.674 262.102C597.499 261.986 621.98 239.735 629.707 230.022C637.434 220.309 645.69 204.018 646.96 203.798C648.229 203.577 649.868 203.527 652.942 202.705C656.015 201.884 655.651 201.894 656.192 201.696C656.733 201.497 656.905 201.127 657.429 200.382Z" fill="black"/>
</g>
<path d="M584.847 190.882L598.219 232.645C598.219 232.645 628.953 214.752 636.145 205.42C643.336 196.088 647.501 185.553 650.023 184.565C652.546 183.577 661.552 186.039 662.871 187.457C664.19 188.874 663.875 190.525 662.28 192.032C660.686 193.538 659.781 193.748 659.781 193.748C659.781 193.748 659.698 197.032 658.986 197.601C658.274 198.169 658.435 197.435 658.274 198.169C658.114 198.903 657.954 199.637 657.43 200.382C656.906 201.127 656.734 201.497 656.194 201.695C655.653 201.894 656.018 201.883 652.944 202.705C649.869 203.527 648.231 203.577 646.962 203.797C645.692 204.018 637.436 220.309 629.709 230.021C621.982 239.734 597.5 261.986 593.676 262.101C589.851 262.217 567.274 224.953 562.439 215.803" stroke="#263238" stroke-width="0.731565" stroke-miterlimit="10" stroke-linecap="round" stroke-linejoin="round"/>
<path d="M598.22 232.646C598.22 232.646 594.719 232.793 591.746 242.138" stroke="#263238" stroke-width="0.731565" stroke-miterlimit="10" stroke-linecap="round" stroke-linejoin="round"/>
<path d="M652.944 202.705C656.018 201.883 655.653 201.894 656.194 201.696C656.734 201.497 656.906 201.128 657.43 200.383C657.955 199.638 658.114 198.904 658.274 198.17C658.435 197.436 658.908 197.186 659.621 196.617C660.332 196.049 659.781 193.749 659.781 193.749C659.781 193.749 660.686 193.539 662.281 192.033C663.876 190.526 664.191 188.876 662.872 187.457C661.553 186.039 652.546 183.577 650.024 184.566C647.608 185.512 643.683 195.216 637.037 204.234L643.193 209.279C645.127 206.063 646.501 203.878 646.961 203.798C648.231 203.577 649.87 203.528 652.944 202.705Z" fill="white"/>
<mask id="mask11_34_2241" style="mask-type:luminance" maskUnits="userSpaceOnUse" x="637" y="184" width="27" height="26">
<path d="M652.944 202.705C656.018 201.883 655.653 201.894 656.194 201.696C656.734 201.497 656.906 201.128 657.43 200.383C657.955 199.638 658.114 198.904 658.274 198.17C658.435 197.436 658.908 197.186 659.621 196.617C660.332 196.049 659.781 193.749 659.781 193.749C659.781 193.749 660.686 193.539 662.281 192.033C663.876 190.526 664.191 188.876 662.872 187.457C661.553 186.039 652.546 183.577 650.024 184.566C647.608 185.512 643.683 195.216 637.037 204.234L643.193 209.279C645.127 206.063 646.501 203.878 646.961 203.798C648.231 203.577 649.87 203.528 652.944 202.705Z" fill="white"/>
</mask>
<g mask="url(#mask11_34_2241)">
<path opacity="0.2" d="M657.431 200.382C657.956 199.637 658.115 198.903 658.275 198.169C658.435 197.435 658.275 198.169 658.987 197.601C659.699 197.032 659.782 193.748 659.782 193.748C659.782 193.748 660.687 193.538 662.282 192.032C663.877 190.526 664.191 188.875 662.872 187.457C661.553 186.038 652.547 183.576 650.025 184.564C649.365 184.822 648.592 185.738 647.684 187.109C649.024 189.316 650.569 190.643 649.131 194.479C646.936 200.332 641.815 207.647 637.426 213.865C633.036 220.084 596.458 254.467 592.069 253.736C588.485 253.139 578.075 240.595 574.375 236.011C582.3 248.731 591.377 262.171 593.676 262.102C597.5 261.986 621.982 239.735 629.709 230.022C637.436 220.309 645.692 204.018 646.962 203.798C648.231 203.577 649.87 203.527 652.944 202.705C656.017 201.884 655.653 201.894 656.194 201.696C656.735 201.497 656.906 201.127 657.431 200.382Z" fill="black"/>
</g>
<path d="M652.944 202.705C656.018 201.883 655.653 201.894 656.194 201.696C656.734 201.497 656.906 201.128 657.43 200.383C657.955 199.638 658.114 198.904 658.274 198.17C658.435 197.436 658.908 197.186 659.621 196.617C660.332 196.049 659.781 193.749 659.781 193.749C659.781 193.749 660.686 193.539 662.281 192.033C663.876 190.526 664.191 188.876 662.872 187.457C661.553 186.039 652.546 183.577 650.024 184.566C647.608 185.512 643.683 195.216 637.037 204.234L643.193 209.279C645.127 206.063 646.501 203.878 646.961 203.798C648.231 203.577 649.87 203.528 652.944 202.705Z" stroke="#263238" stroke-width="0.731565" stroke-miterlimit="10" stroke-linecap="round" stroke-linejoin="round"/>
<path d="M644.982 168.326C642.969 168.326 641.338 171.223 641.338 174.795C641.338 178.367 642.969 181.263 644.982 181.263L689.622 194.746V154.297L644.982 168.326Z" fill="#4AAD4E" stroke="#263238" stroke-width="0.731565" stroke-miterlimit="10" stroke-linecap="round" stroke-linejoin="round"/>
<path d="M670.092 162.944L652.68 167.953" stroke="#263238" stroke-width="0.731565" stroke-miterlimit="10" stroke-linecap="round" stroke-linejoin="round"/>
<path d="M675.911 161.27L672.268 162.318" stroke="#263238" stroke-width="0.731565" stroke-miterlimit="10" stroke-linecap="round" stroke-linejoin="round"/>
<path d="M650.699 166.53L644.984 168.327C642.971 168.327 641.34 171.223 641.34 174.796C641.34 178.368 642.971 181.264 644.984 181.264L650.139 182.821C646.802 175.39 649.125 169.344 650.699 166.53Z" fill="#263238" stroke="#263238" stroke-width="0.731565" stroke-miterlimit="10" stroke-linecap="round" stroke-linejoin="round"/>
<path d="M693.447 201.957C701.898 201.957 708.749 189.796 708.749 174.795C708.749 159.794 701.898 147.633 693.447 147.633C684.996 147.633 678.145 159.794 678.145 174.795C678.145 189.796 684.996 201.957 693.447 201.957Z" fill="#D6D6D6" stroke="#263238" stroke-width="0.731565" stroke-miterlimit="10" stroke-linecap="round" stroke-linejoin="round"/>
<path d="M693.447 168.768L678.871 164.865L677.596 175.251L679.236 185.818L693.447 180.821L693.994 169.056" fill="#D6D6D6"/>
<path d="M693.447 168.768L678.871 164.865L677.596 175.251L679.236 185.818L693.447 180.821L693.994 169.056" stroke="#263238" stroke-width="0.731565" stroke-miterlimit="10" stroke-linecap="round" stroke-linejoin="round"/>
<path d="M693.448 145.187C684.235 145.187 676.768 158.443 676.768 174.795C676.768 191.147 684.235 204.403 693.448 204.403C702.661 204.403 710.128 191.147 710.128 174.795C710.128 158.443 702.661 145.187 693.448 145.187ZM693.861 200.198C686.184 200.198 679.961 188.825 679.961 174.795C679.961 160.765 686.184 149.391 693.861 149.391C701.537 149.391 707.76 160.765 707.76 174.795C707.76 188.825 701.537 200.198 693.861 200.198Z" fill="#263238" stroke="#263238" stroke-width="0.731565" stroke-miterlimit="10" stroke-linecap="round" stroke-linejoin="round"/>
<path d="M693.448 180.821C695.323 180.821 696.843 178.123 696.843 174.795C696.843 171.466 695.323 168.768 693.448 168.768C691.573 168.768 690.053 171.466 690.053 174.795C690.053 178.123 691.573 180.821 693.448 180.821Z" fill="#4AAD4E" stroke="#263238" stroke-width="0.731565" stroke-miterlimit="10" stroke-linecap="round" stroke-linejoin="round"/>
</g>
<mask id="mask12_34_2241" style="mask-type:luminance" maskUnits="userSpaceOnUse" x="546" y="114" width="197" height="155">
<path d="M742.163 114.202H594.851V157.901C567.423 161.377 546.209 184.778 546.209 213.15C546.209 243.917 571.151 268.86 601.919 268.86C620.219 268.86 636.457 260.035 646.613 246.41H742.163V114.202Z" fill="white"/>
</mask>
<g mask="url(#mask12_34_2241)">
<path d="M736.463 144.08L739.849 143.032" stroke="#263238" stroke-width="0.731565" stroke-miterlimit="10" stroke-linecap="round" stroke-linejoin="round"/>
<path d="M712.213 151.586L732.29 145.372" stroke="#263238" stroke-width="0.731565" stroke-miterlimit="10" stroke-linecap="round" stroke-linejoin="round"/>
<path d="M714.844 173.3L733.267 173.958" stroke="#263238" stroke-width="0.731565" stroke-miterlimit="10" stroke-linecap="round" stroke-linejoin="round"/>
<path d="M730.109 200.363L733.927 201.594" stroke="#263238" stroke-width="0.731565" stroke-miterlimit="10" stroke-linecap="round" stroke-linejoin="round"/>
<path d="M713.529 195.014L727.081 199.385" stroke="#263238" stroke-width="0.731565" stroke-miterlimit="10" stroke-linecap="round" stroke-linejoin="round"/>
<path d="M714.186 161.456L724.056 160.14" stroke="#263238" stroke-width="0.731565" stroke-miterlimit="10" stroke-linecap="round" stroke-linejoin="round"/>
<path d="M709.58 202.252L716.818 208.174" stroke="#263238" stroke-width="0.731565" stroke-miterlimit="10" stroke-linecap="round" stroke-linejoin="round"/>
</g>
<defs>
<linearGradient id="paint0_linear_34_2241" x1="-6.11842e-06" y1="182.419" x2="821.201" y2="182.419" gradientUnits="userSpaceOnUse">
<stop stop-color="#4CB050"/>
<stop offset="1" stop-color="#204A22"/>
</linearGradient>
</defs>
</svg>
