<svg width="822" height="364" viewBox="0 0 822 364" fill="none" xmlns="http://www.w3.org/2000/svg">
<mask id="mask0_34_3098" style="mask-type:alpha" maskUnits="userSpaceOnUse" x="0" y="0" width="822" height="364">
<rect x="0.337891" y="0.246582" width="821.201" height="363.753" rx="18.3714" fill="#F80B04"/>
</mask>
<g mask="url(#mask0_34_3098)">
<path d="M724.436 80.4421C696.999 94.7481 675.144 115.958 649.121 132.173C615.981 152.824 576.864 164.883 537.423 173.524C488.288 184.288 433.644 192.17 400.595 225.827C372.174 254.771 367.165 296.664 374.415 334.33C407.978 508.696 728.05 498.873 829.013 383.939C882.765 322.75 987.191 129.858 873.368 73.6912C868.288 71.1845 862.873 69.173 857.356 67.5371C815.214 55.0354 762.573 60.5575 724.436 80.4421Z" fill="white" fill-opacity="0.18"/>
<path opacity="0.7" d="M724.436 80.4421C696.999 94.7481 675.144 115.958 649.121 132.173C615.981 152.824 576.864 164.883 537.423 173.524C488.288 184.288 433.644 192.17 400.595 225.827C372.174 254.771 367.165 296.664 374.415 334.33C407.978 508.696 728.05 498.873 829.013 383.939C882.765 322.75 987.191 129.858 873.368 73.6912C868.288 71.1845 862.873 69.173 857.356 67.5371C815.214 55.0354 762.573 60.5575 724.436 80.4421Z" fill="white" fill-opacity="0.18"/>
</g>
<rect x="0.337891" y="0.246582" width="821.201" height="363.753" rx="18.3714" fill="url(#paint0_linear_34_3098)"/>
<path d="M740.923 188.575C740.923 188.575 740.923 184.84 735.693 179.61C730.463 174.38 727.101 171.392 727.101 171.392C727.101 171.392 724.487 179.983 729.342 185.213C734.198 190.443 740.922 195.298 740.922 195.298L740.923 188.575Z" fill="#FF9E5F"/>
<path d="M733.332 211.903C733.332 211.903 733.332 208.167 728.102 202.938C722.873 197.708 719.511 194.72 719.511 194.72C719.511 194.72 716.897 203.311 721.753 208.541C726.609 213.77 733.332 218.626 733.332 218.626V211.903Z" fill="#FF9E5F"/>
<path d="M740.593 194.937C740.593 194.937 740.988 191.223 746.741 186.575C752.494 181.928 756.152 179.311 756.152 179.311C756.152 179.311 757.845 188.13 752.464 192.817C747.082 197.504 739.883 201.622 739.883 201.622L740.593 194.937Z" fill="#FF9E5F"/>
<path d="M731.423 222.487C731.423 222.487 732.206 218.835 738.415 214.817C744.625 210.799 748.538 208.582 748.538 208.582C748.538 208.582 749.294 217.53 743.451 221.626C737.607 225.722 730.016 229.061 730.016 229.061L731.423 222.487Z" fill="#FF9E5F"/>
<path d="M733.146 252.525C733.146 252.525 733.146 248.789 738.376 243.559C743.606 238.33 746.968 235.342 746.968 235.342C746.968 235.342 749.582 243.933 744.727 249.163C739.871 254.392 733.147 259.248 733.147 259.248L733.146 252.525Z" fill="#FF9E5F"/>
<path d="M733.06 259.856C733.06 259.856 733.591 256.158 729.158 250.239C724.725 244.32 721.821 240.883 721.821 240.883C721.821 240.883 718.012 249.016 722.075 254.883C726.139 260.749 732.104 266.511 732.104 266.511L733.06 259.856Z" fill="#FF9E5F"/>
<path d="M727.904 281.585C727.904 281.585 727.904 277.849 733.134 272.621C738.364 267.391 741.725 264.403 741.725 264.403C741.725 264.403 744.339 272.994 739.484 278.224C734.628 283.453 727.904 288.309 727.904 288.309V281.585Z" fill="#FF9E5F"/>
<path d="M731.396 301.285C731.396 301.285 730.45 297.671 734.185 291.289C737.919 284.905 740.415 281.163 740.415 281.163C740.415 281.163 745.12 288.813 741.746 295.101C738.374 301.39 733.098 307.79 733.098 307.79L731.396 301.285Z" fill="#FF9E5F"/>
<path d="M741.395 187.617C741.088 191.61 740.635 195.741 739.963 199.216C737.895 209.896 732.728 216.787 730.66 226.433C728.593 236.08 734.528 248.508 732.939 260.899C731.35 273.29 726.527 280.181 727.905 288.449C729.283 296.717 736.518 319.113 736.518 319.113" stroke="#263238" stroke-width="0.4466" stroke-miterlimit="10" stroke-linecap="round" stroke-linejoin="round"/>
<path d="M740.541 197.419L746.177 193.094" stroke="#263238" stroke-width="0.4466" stroke-miterlimit="10" stroke-linecap="round" stroke-linejoin="round"/>
<path d="M740.804 192.439L738.445 188.245" stroke="#263238" stroke-width="0.4466" stroke-miterlimit="10" stroke-linecap="round" stroke-linejoin="round"/>
<path d="M730.975 225.991C730.975 225.991 735.693 222.452 740.542 218.914" stroke="#263238" stroke-width="0.4466" stroke-miterlimit="10" stroke-linecap="round" stroke-linejoin="round"/>
<path d="M733.332 218.627C733.332 218.627 729.401 210.919 724.945 205.807" stroke="#263238" stroke-width="0.4466" stroke-miterlimit="10" stroke-linecap="round" stroke-linejoin="round"/>
<path d="M733.334 257.838C733.334 257.838 737.004 250.63 743.425 244.339" stroke="#263238" stroke-width="0.4466" stroke-miterlimit="10" stroke-linecap="round" stroke-linejoin="round"/>
<path d="M732.415 263.081C732.415 263.081 730.056 257.446 727.304 253.383C724.551 249.32 724.158 248.795 724.158 248.795" stroke="#263238" stroke-width="0.4466" stroke-miterlimit="10" stroke-linecap="round" stroke-linejoin="round"/>
<path d="M727.904 288.45C727.904 288.45 729.794 283.658 732.153 279.857C734.512 276.057 737.658 272.649 737.658 272.649" stroke="#263238" stroke-width="0.4466" stroke-miterlimit="10" stroke-linecap="round" stroke-linejoin="round"/>
<path d="M733.099 307.79C733.099 307.79 732.547 303.316 734.513 299.516C736.479 295.715 738.706 290.735 739.624 288.769" stroke="#263238" stroke-width="0.4466" stroke-miterlimit="10" stroke-linecap="round" stroke-linejoin="round"/>
<path d="M706.678 238.477C706.678 238.477 706.272 236.135 708.984 232.288C711.696 228.441 713.479 226.202 713.479 226.202C713.479 226.202 716.052 231.306 713.574 235.111C711.096 238.918 707.408 242.693 707.408 242.693L706.678 238.477Z" fill="#FF9E5F"/>
<path d="M713.969 252.282C713.969 252.282 713.563 249.94 716.275 246.092C718.987 242.245 720.77 240.005 720.77 240.005C720.77 240.005 723.343 245.109 720.865 248.915C718.387 252.722 714.698 256.497 714.698 256.497L713.969 252.282Z" fill="#FF9E5F"/>
<path d="M707.574 242.43C707.574 242.43 706.924 240.144 702.811 237.854C698.699 235.564 696.121 234.32 696.121 234.32C696.121 234.32 696.018 240.034 699.9 242.389C703.784 244.745 708.745 246.545 708.745 246.545L707.574 242.43Z" fill="#FF9E5F"/>
<path d="M716.314 258.712C716.314 258.712 715.427 256.506 711.096 254.661C706.766 252.816 704.072 251.85 704.072 251.85C704.072 251.85 704.569 257.543 708.678 259.478C712.787 261.412 717.911 262.682 717.911 262.682L716.314 258.712Z" fill="#FF9E5F"/>
<path d="M718.494 277.734C718.494 277.734 718.088 275.392 714.241 272.68C710.394 269.969 707.962 268.46 707.962 268.46C707.962 268.46 707.255 274.131 710.868 276.883C714.481 279.635 719.224 281.95 719.224 281.95L718.494 277.734Z" fill="#FF9E5F"/>
<path d="M719.346 282.322C719.346 282.322 718.612 280.062 720.75 275.868C722.887 271.675 724.334 269.206 724.334 269.206C724.334 269.206 727.606 273.892 725.694 278.012C723.783 282.131 720.667 286.393 720.667 286.393L719.346 282.322Z" fill="#FF9E5F"/>
<path d="M725.908 301.216C725.908 301.216 726.18 298.855 729.865 295.928C733.552 293.002 735.894 291.355 735.894 291.355C735.894 291.355 736.923 296.977 733.473 299.931C730.023 302.885 725.42 305.467 725.42 305.467L725.908 301.216Z" fill="#FF9E5F"/>
<path d="M724.937 295.388C724.937 295.388 724.532 293.046 720.685 290.335C716.838 287.623 714.406 286.114 714.406 286.114C714.406 286.114 713.698 291.785 717.311 294.538C720.924 297.29 725.667 299.605 725.667 299.605L724.937 295.388Z" fill="#FF9E5F"/>
<path d="M724.887 308.121C724.887 308.121 725.088 305.752 722.052 302.154C719.017 298.556 717.047 296.481 717.047 296.481C717.047 296.481 714.927 301.788 717.725 305.365C720.523 308.943 724.525 312.384 724.525 312.384L724.887 308.121Z" fill="#FF9E5F"/>
<path d="M706.275 237.928C706.901 240.398 707.634 242.94 708.432 245.045C710.888 251.518 714.877 255.278 717.221 261.103C719.564 266.927 717.192 275.365 719.533 282.963C721.875 290.561 725.647 294.358 725.681 299.693C725.714 305.028 723.609 319.856 723.609 319.856" stroke="#263238" stroke-width="0.4466" stroke-miterlimit="10" stroke-linecap="round" stroke-linejoin="round"/>
<path d="M707.876 243.982L703.873 241.881" stroke="#263238" stroke-width="0.4466" stroke-miterlimit="10" stroke-linecap="round" stroke-linejoin="round"/>
<path d="M707.172 240.887L708.195 238.001" stroke="#263238" stroke-width="0.4466" stroke-miterlimit="10" stroke-linecap="round" stroke-linejoin="round"/>
<path d="M716.977 260.86C716.977 260.86 713.634 259.153 710.209 257.46" stroke="#263238" stroke-width="0.4466" stroke-miterlimit="10" stroke-linecap="round" stroke-linejoin="round"/>
<path d="M714.699 256.497C714.699 256.497 716.328 251.237 718.567 247.548" stroke="#263238" stroke-width="0.4466" stroke-miterlimit="10" stroke-linecap="round" stroke-linejoin="round"/>
<path d="M718.954 281.086C718.954 281.086 715.87 276.964 711.16 273.716" stroke="#263238" stroke-width="0.4466" stroke-miterlimit="10" stroke-linecap="round" stroke-linejoin="round"/>
<path d="M720.1 284.274C720.1 284.274 720.967 280.484 722.252 277.638C723.538 274.791 723.727 274.419 723.727 274.419" stroke="#263238" stroke-width="0.4466" stroke-miterlimit="10" stroke-linecap="round" stroke-linejoin="round"/>
<path d="M725.502 303.74C725.502 303.74 728.156 300.487 729.807 299.27C731.459 298.053 732.603 296.839 732.603 296.839" stroke="#263238" stroke-width="0.4466" stroke-miterlimit="10" stroke-linecap="round" stroke-linejoin="round"/>
<path d="M725.684 299.693C725.684 299.693 723.979 296.892 722.086 294.766C720.194 292.638 717.852 290.843 717.852 290.843" stroke="#263238" stroke-width="0.4466" stroke-miterlimit="10" stroke-linecap="round" stroke-linejoin="round"/>
<path d="M724.524 312.384C724.524 312.384 724.385 309.52 722.739 307.349C721.094 305.179 719.156 302.298 718.367 301.165" stroke="#263238" stroke-width="0.4466" stroke-miterlimit="10" stroke-linecap="round" stroke-linejoin="round"/>
<path d="M744.419 345.623H715.644C714.143 345.623 712.928 344.406 712.928 342.907V317.27H747.136V342.907C747.136 344.407 745.919 345.623 744.419 345.623Z" fill="#263238"/>
<path d="M746.838 321.732H712.927C711.449 321.732 710.25 320.534 710.25 319.056C710.25 317.577 711.449 316.379 712.927 316.379H746.838C748.316 316.379 749.515 317.577 749.515 319.056C749.515 320.534 748.316 321.732 746.838 321.732Z" fill="#263238"/>
<path d="M681.765 83.297C698.538 83.297 712.134 69.7004 712.134 52.9281C712.134 36.1559 698.538 22.5593 681.765 22.5593C664.993 22.5593 651.396 36.1559 651.396 52.9281C651.396 69.7004 664.993 83.297 681.765 83.297Z" fill="#263238"/>
<path d="M691.677 77.3388C705.158 71.8704 711.654 56.5088 706.186 43.0277C700.717 29.5466 685.356 23.051 671.875 28.5194C658.393 33.9878 651.898 49.3494 657.366 62.8305C662.835 76.3116 678.196 82.8072 691.677 77.3388Z" fill="white"/>
<path d="M664.68 57.7718L681.765 52.928V29.0295" stroke="#263238" stroke-width="1.7864" stroke-miterlimit="10"/>
<path d="M534.416 188.697H501.075L457.424 71.5486H490.765L534.416 188.697Z" fill="#263238"/>
<path opacity="0.2" d="M534.416 188.697H501.075L457.424 71.5486H490.765L534.416 188.697Z" fill="white"/>
<path d="M481.858 100.159H473.285C472.215 100.159 471.027 99.2923 470.628 98.2231L467.318 89.3394C466.92 88.2702 467.464 87.4038 468.532 87.4038H477.105C478.174 87.4038 479.363 88.2702 479.761 89.3394L483.071 98.2231C483.47 99.2923 482.926 100.159 481.858 100.159Z" fill="#263238"/>
<path d="M492.971 77.4696H459.63L457.424 71.5486H490.765L492.971 77.4696Z" fill="#263238"/>
<path d="M471.021 78.4397L471.979 81.0085" stroke="#263238" stroke-width="0.8932" stroke-miterlimit="10" stroke-linecap="round" stroke-linejoin="round"/>
<path d="M472.307 78.4397L473.264 81.0085" stroke="#263238" stroke-width="0.8932" stroke-miterlimit="10" stroke-linecap="round" stroke-linejoin="round"/>
<path d="M473.59 78.4397L474.547 81.0085" stroke="#263238" stroke-width="0.8932" stroke-miterlimit="10" stroke-linecap="round" stroke-linejoin="round"/>
<path d="M474.875 78.4397L475.833 81.0085" stroke="#263238" stroke-width="0.8932" stroke-miterlimit="10" stroke-linecap="round" stroke-linejoin="round"/>
<path d="M476.16 78.4397L477.118 81.0085" stroke="#263238" stroke-width="0.8932" stroke-miterlimit="10" stroke-linecap="round" stroke-linejoin="round"/>
<path d="M477.443 78.4397L478.401 81.0085" stroke="#263238" stroke-width="0.8932" stroke-miterlimit="10" stroke-linecap="round" stroke-linejoin="round"/>
<path d="M478.73 78.4397L479.688 81.0085" stroke="#263238" stroke-width="0.8932" stroke-miterlimit="10" stroke-linecap="round" stroke-linejoin="round"/>
<path d="M480.016 78.4397L480.973 81.0085" stroke="#263238" stroke-width="0.8932" stroke-miterlimit="10" stroke-linecap="round" stroke-linejoin="round"/>
<path d="M481.299 78.4397L482.256 81.0085" stroke="#263238" stroke-width="0.8932" stroke-miterlimit="10" stroke-linecap="round" stroke-linejoin="round"/>
<path d="M482.584 78.4397L483.542 81.0085" stroke="#263238" stroke-width="0.8932" stroke-miterlimit="10" stroke-linecap="round" stroke-linejoin="round"/>
<path d="M479.083 94.5887L471.012 89.4698C470.821 89.3492 470.61 89.3277 470.477 89.4162C470.343 89.5037 470.311 89.6832 470.399 89.8717L474.098 97.8515C474.188 98.0472 474.387 98.2106 474.595 98.2606C474.639 98.2713 474.681 98.2758 474.72 98.2758C474.87 98.2758 474.987 98.2035 475.028 98.0757L475.88 95.4515L479.099 95.4149C479.293 95.4122 479.421 95.289 479.417 95.1041C479.414 94.9192 479.281 94.7137 479.083 94.5887Z" fill="white"/>
<path d="M478.92 94.9477L470.848 89.8287L474.546 97.8086L475.462 94.987L478.92 94.9477Z" fill="#263238"/>
<path d="M494.009 94.9478L485.938 89.8289L489.636 97.8087L490.552 94.9871L494.009 94.9478Z" fill="white"/>
<path d="M498.144 99.4862L497.416 97.8427L496.467 99.2244L498.144 99.4862Z" fill="white"/>
<path d="M517.651 151.841L516.923 150.198L515.973 151.58L517.651 151.841Z" fill="white"/>
<path d="M523.639 167.908L522.91 166.265L521.961 167.647L523.639 167.908Z" fill="white"/>
<path d="M529.779 184.386L529.051 182.742L528.102 184.125L529.779 184.386Z" fill="white"/>
<path d="M495.398 133.29L494.67 131.647L493.721 133.029L495.398 133.29Z" fill="white"/>
<path d="M502.312 151.841L501.584 150.198L500.635 151.58L502.312 151.841Z" fill="white"/>
<path d="M508.299 167.908L507.571 166.265L506.621 167.647L508.299 167.908Z" fill="white"/>
<path d="M514.438 184.386L513.71 182.742L512.76 184.125L514.438 184.386Z" fill="white"/>
<path d="M479.08 117.114L480.484 118.022L484.34 109.969L482.936 109.061L479.08 117.114Z" fill="white"/>
<path d="M480.812 109.233C478.771 107.637 478.627 107.319 479.127 105.514C478.071 106.96 477.762 106.986 475.52 105.813C477.56 107.408 477.703 107.725 477.204 109.531C478.261 108.085 478.569 108.059 480.812 109.233Z" fill="white"/>
<path d="M487.547 110.099C486.286 109.113 486.198 108.917 486.507 107.801C485.854 108.695 485.664 108.71 484.277 107.986C485.539 108.972 485.627 109.167 485.318 110.284C485.971 109.39 486.161 109.374 487.547 110.099Z" fill="white"/>
<path d="M487.164 113.884C486.264 113.18 486.2 113.039 486.421 112.244C485.955 112.881 485.819 112.893 484.83 112.376C485.73 113.08 485.794 113.219 485.573 114.016C486.039 113.378 486.175 113.366 487.164 113.884Z" fill="white"/>
<path d="M507.404 149.585L508.272 150.198L512.128 142.144L511.259 141.531L507.404 149.585Z" fill="white"/>
<path d="M504.171 115.039L497.049 110.522L500.313 117.563L501.121 115.073L504.171 115.039Z" fill="white"/>
<path d="M498.815 115.45C496.204 115.45 493.507 113.911 492.801 112.02C492.096 110.128 493.647 108.589 496.258 108.589C498.868 108.589 501.566 110.128 502.271 112.02C502.976 113.911 501.426 115.45 498.815 115.45ZM496.411 109C494.027 109 492.593 110.354 493.213 112.02C493.833 113.684 496.277 115.039 498.661 115.039C501.045 115.039 502.48 113.684 501.86 112.02C501.239 110.355 498.795 109 496.411 109Z" fill="white"/>
<path d="M495.676 114.764C495.033 114.764 494.315 114.241 494.074 113.598C493.835 112.955 494.163 112.431 494.806 112.431C495.449 112.431 496.168 112.955 496.407 113.598C496.648 114.241 496.319 114.764 495.676 114.764ZM494.96 112.843C494.543 112.843 494.331 113.182 494.486 113.598C494.642 114.014 495.106 114.353 495.522 114.353C495.939 114.353 496.151 114.014 495.996 113.598C495.841 113.182 495.376 112.843 494.96 112.843Z" fill="white"/>
<path d="M495.789 115.987L495.506 115.6C496.02 115.388 496.301 115.075 496.34 114.671C496.39 114.158 496.037 113.673 496.034 113.668L496.368 113.527C496.387 113.554 496.842 114.18 496.777 114.846C496.73 115.354 496.396 115.738 495.789 115.987Z" fill="white"/>
<path d="M491.324 127.602L486.354 123.98L485.299 125.661L490.269 129.283L491.324 127.602Z" fill="white"/>
<path d="M483.362 132.292L484.175 132.885L485.994 129.985C485.788 129.768 485.712 129.486 485.829 129.3C485.969 129.077 486.33 129.077 486.636 129.3C486.942 129.524 487.076 129.885 486.937 130.108C486.82 130.294 486.549 130.322 486.285 130.198L484.466 133.097L485.221 133.648L489.717 132.386L489.997 129.734L485.089 126.158L482.83 127.369L483.362 132.292Z" fill="white"/>
<path d="M478.658 120.924H507.356" stroke="#263238" stroke-width="0.8932" stroke-miterlimit="10" stroke-linecap="round" stroke-linejoin="round"/>
<path d="M503.619 123.98L502.564 125.661L507.535 129.283L508.59 127.602L503.619 123.98Z" fill="white"/>
<path d="M500.098 127.368L500.627 132.292L501.441 132.885L503.26 129.985C503.055 129.768 502.979 129.486 503.095 129.3C503.235 129.077 503.596 129.077 503.903 129.3C504.209 129.524 504.343 129.885 504.204 130.108C504.087 130.294 503.816 130.322 503.552 130.198L501.732 133.097L502.488 133.648L506.983 132.386L507.264 129.734L502.356 126.158L500.098 127.368Z" fill="white"/>
<path d="M498.869 128.813C498.916 128.467 498.966 128.09 499.001 127.67C499.07 126.823 498.833 126.07 498.296 125.431C497.446 124.421 496.167 124.096 496.113 124.082C495.977 124.048 495.874 124.122 495.888 124.247C495.9 124.371 496.022 124.499 496.159 124.533C496.169 124.536 497.26 124.813 497.948 125.63C498.376 126.138 498.563 126.76 498.504 127.477C498.47 127.892 498.42 128.262 498.375 128.602C498.135 130.386 497.99 131.462 500.955 133.241C501.01 133.274 501.066 133.29 501.116 133.29C501.185 133.29 501.244 133.259 501.267 133.199C501.308 133.097 501.235 132.951 501.102 132.872C498.532 131.33 498.63 130.593 498.869 128.813Z" fill="white"/>
<path d="M486.164 140.756L486.338 141.222C486.399 141.385 486.941 142.831 487.235 143.324L488.07 143.121C487.935 142.895 487.666 142.242 487.45 141.689H490.995L493.962 149.651H492.633L492.98 150.584H496.572L496.224 149.651H494.895L491.929 141.689H495.378C495.566 142.193 495.857 142.977 496.001 143.365L496.935 143.367C496.713 142.766 496.138 141.222 496.138 141.222L495.963 140.756H486.164Z" fill="white"/>
<path opacity="0.44" d="M504.817 162.844C505.579 164.891 503.9 166.55 501.065 166.55C498.23 166.55 495.314 164.891 494.551 162.844C493.788 160.796 495.468 159.137 498.302 159.137C501.137 159.137 504.054 160.795 504.817 162.844Z" fill="white"/>
<path d="M504.817 162.844C505.579 164.891 503.9 166.55 501.065 166.55C498.23 166.55 495.314 164.891 494.551 162.844C493.788 160.796 495.468 159.137 498.302 159.137C501.137 159.137 504.054 160.795 504.817 162.844Z" stroke="white" stroke-width="0.8932" stroke-miterlimit="10"/>
<path d="M515.383 162.949L518.747 156.832C518.887 156.579 519.247 156.525 519.608 156.703C520.036 156.914 520.313 157.372 520.221 157.716L518.41 164.475L515.383 162.949Z" fill="white"/>
<path d="M514.827 163.462C516.151 163.287 518.741 164.416 518.813 166.129C518.831 166.557 518.543 166.849 518.212 167.05C517.215 167.659 515.806 167.686 514.445 167.702C514.771 167.471 514.909 167.043 514.805 166.576C514.7 166.097 514.366 165.612 514.193 165.127C513.948 164.441 514.077 163.514 514.827 163.462Z" fill="white"/>
<path d="M507.818 176.888C507.426 176.034 506.932 175.506 506.596 175.216L505.58 176.836C505.974 177.166 506.546 177.766 506.988 178.73C507.383 179.591 507.74 180.205 508 180.597L508.996 179.01C508.67 178.552 508.243 177.816 507.818 176.888Z" fill="white"/>
<path d="M506.644 178.76C506.252 177.907 505.759 177.378 505.422 177.088L504.406 178.708C504.8 179.038 505.372 179.638 505.813 180.602C506.208 181.463 506.566 182.077 506.825 182.469L507.821 180.882C507.496 180.424 507.069 179.688 506.644 178.76Z" fill="white"/>
<path d="M508.162 176.858C508.556 177.719 508.914 178.333 509.174 178.725L510.64 176.386L507.36 173.997L506.754 174.964C507.148 175.295 507.72 175.895 508.162 176.858Z" fill="white"/>
<path d="M505.469 180.632C505.077 179.778 504.584 179.249 504.247 178.96L503.396 180.315L503.541 183.403C503.551 183.618 503.831 183.821 504.018 183.747L506.626 182.725C506.303 182.265 505.885 181.539 505.469 180.632ZM504.313 182.695L504.236 181.052L505.729 182.14L504.313 182.695Z" fill="white"/>
<path d="M518.338 178.347L517.219 180.131L522.991 184.336L524.11 182.552L524.46 182.807L527.098 178.601L520.627 173.887L517.989 178.092L518.338 178.347ZM522.611 183.317L518.239 180.131L519.038 178.857L523.411 182.042L522.611 183.317Z" fill="white"/>
<path d="M463.861 73.1134L464.072 73.6806L463.27 74.6649L464.806 75.6492L465.016 76.2155L462.598 74.6649L463.861 73.1134Z" fill="white"/>
<path d="M461.846 73.1134L462.057 73.6806L461.255 74.6649L462.79 75.6492L463.002 76.2155L460.582 74.6649L461.846 73.1134Z" fill="white"/>
<path d="M598.992 141.805H530.029L508.947 82.9985H577.91L598.992 141.805Z" fill="#263238"/>
<path d="M594.1 138.598H532.621L513.84 86.2061H575.319L594.1 138.598Z" fill="#FF9E5F"/>
<path d="M582.407 105.987L572.24 98.5018L564.211 119.352L543.392 113.471L532.619 138.597H594.098L582.407 105.987Z" fill="white"/>
<path d="M540.05 97.4326C538.621 93.4472 534.232 90.2156 530.245 90.2156C526.26 90.2156 524.187 93.4463 525.616 97.4326C527.045 101.419 531.434 104.65 535.421 104.65C539.406 104.65 541.479 101.419 540.05 97.4326Z" fill="white"/>
<path d="M606.138 131.682H537.175L516.094 72.876H585.057L606.138 131.682Z" fill="#263238"/>
<path d="M601.247 128.474H539.768L520.986 76.0835H582.465L601.247 128.474Z" fill="#FF9E5F"/>
<path d="M589.555 95.8634L579.388 88.3793L571.359 109.228L550.54 103.348L539.768 128.474H601.247L589.555 95.8634Z" fill="white"/>
<path d="M547.197 87.3101C545.767 83.3246 541.378 80.093 537.392 80.093C533.406 80.093 531.333 83.3246 532.762 87.3101C534.192 91.2964 538.581 94.5271 542.567 94.5271C546.553 94.5271 548.626 91.2964 547.197 87.3101Z" fill="white"/>
<path d="M606.448 63.6492L608.109 67.6712H607.628C607.276 66.9629 606.964 66.4574 606.694 66.1537C606.253 65.6651 605.774 65.3043 605.255 65.072C604.736 64.8407 604.122 64.7246 603.414 64.7246H600.998L605.789 77.8278C606.175 78.8818 606.529 79.5401 606.852 79.8009C607.302 80.1546 607.86 80.3324 608.526 80.3324H609.121L609.292 80.8004H602.02L601.848 80.3324H602.456C603.181 80.3324 603.615 80.1126 603.758 79.675C603.844 79.4052 603.712 78.7898 603.36 77.8287L598.569 64.7255H596.508C595.707 64.7255 595.159 64.7844 594.865 64.9023C594.486 65.0622 594.222 65.3704 594.077 65.8259C593.932 66.2814 593.971 66.8969 594.196 67.6721H593.716L592.447 63.6501L606.448 63.6492Z" fill="black"/>
<path d="M616.889 71.7281H622.139" stroke="#263238" stroke-width="0.4466" stroke-miterlimit="10"/>
<path d="M621.968 85.6344H595.563L585.783 58.8911H612.188L621.968 85.6344Z" stroke="#263238" stroke-width="0.4466" stroke-miterlimit="10"/>
<path d="M591.802 72.7178H589.823L589.1 70.7394H591.078L591.802 72.7178Z" fill="white" stroke="#263238" stroke-width="0.4466" stroke-miterlimit="10"/>
<path d="M618.239 72.7178H616.261L615.537 70.7394H617.516L618.239 72.7178Z" fill="white" stroke="#263238" stroke-width="0.4466" stroke-miterlimit="10"/>
<path d="M587.161 60.0264H585.182L584.459 58.048H586.437L587.161 60.0264Z" fill="white" stroke="#263238" stroke-width="0.4466" stroke-miterlimit="10"/>
<path d="M613.599 60.0264H611.62L610.896 58.048H612.876L613.599 60.0264Z" fill="white" stroke="#263238" stroke-width="0.4466" stroke-miterlimit="10"/>
<path d="M600.391 60.0264H598.413L597.689 58.048H599.668L600.391 60.0264Z" fill="white" stroke="#263238" stroke-width="0.4466" stroke-miterlimit="10"/>
<path d="M596.829 86.4651H594.85L594.127 84.4857H596.105L596.829 86.4651Z" fill="white" stroke="#263238" stroke-width="0.4466" stroke-miterlimit="10"/>
<path d="M623.266 86.4651H621.288L620.564 84.4857H622.543L623.266 86.4651Z" fill="white" stroke="#263238" stroke-width="0.4466" stroke-miterlimit="10"/>
<path d="M608.918 86.1051L610.837 91.3553" stroke="#263238" stroke-width="0.4466" stroke-miterlimit="10"/>
<path d="M610.057 86.4651H608.079L607.355 84.4857H609.334L610.057 86.4651Z" fill="white" stroke="#263238" stroke-width="0.4466" stroke-miterlimit="10"/>
<path d="M612.208 92.3442H610.229L609.506 90.3657H611.484L612.208 92.3442Z" fill="#263238"/>
<path d="M593.979 80.6173H616.159" stroke="#263238" stroke-width="0.4466" stroke-miterlimit="10"/>
<path d="M623.181 71.7282C622.97 71.1529 622.333 70.6858 621.758 70.6858C621.183 70.6858 620.886 71.152 621.097 71.7282C621.308 72.3034 621.945 72.7705 622.52 72.7705C623.096 72.7705 623.392 72.3043 623.181 71.7282Z" fill="#263238"/>
<path opacity="0.2" d="M500.771 213.543L524.7 234.052L501.896 345.623H503.439L528.802 236.103L552.047 255.587L519.23 345.489L521.282 345.147L555.806 257.639L651.861 345.147H710.314L641.947 211.15L500.771 213.543Z" fill="black"/>
<path d="M503.438 345.623H501.895L499.58 211.635H505.753L503.438 345.623Z" fill="#263238" stroke="#263238" stroke-width="0.8932" stroke-miterlimit="10" stroke-linecap="round" stroke-linejoin="round"/>
<path d="M636.399 345.623H634.855L632.541 211.635H638.713L636.399 345.623Z" fill="#263238" stroke="#263238" stroke-width="0.8932" stroke-miterlimit="10" stroke-linecap="round" stroke-linejoin="round"/>
<path d="M645.817 209.564H497.225V213.042H645.817V209.564Z" fill="white" stroke="#263238" stroke-width="0.8932" stroke-miterlimit="10" stroke-linecap="round" stroke-linejoin="round"/>
<path d="M463.67 281.5L460.969 287.203C460.969 287.203 464.27 290.804 465.771 290.804C467.273 290.804 467.872 289.304 469.673 288.703C471.474 288.103 474.476 282.4 474.476 282.4C474.476 282.4 472.675 279.399 470.874 279.099C469.074 278.799 466.373 277.898 464.871 277.598C463.37 277.297 463.67 281.5 463.67 281.5Z" fill="white" stroke="#263238" stroke-width="0.8932" stroke-miterlimit="10" stroke-linecap="round" stroke-linejoin="round"/>
<path d="M463.668 281.5L465.469 284.501V287.202C465.469 287.202 467.269 288.102 467.87 287.202C468.47 286.302 471.171 283.301 471.171 283.301L469.97 280.599" stroke="#263238" stroke-width="0.8932" stroke-miterlimit="10" stroke-linecap="round" stroke-linejoin="round"/>
<path d="M465.472 287.202L462.17 286.602" stroke="#263238" stroke-width="0.8932" stroke-miterlimit="10" stroke-linecap="round" stroke-linejoin="round"/>
<path d="M515.391 335.499L509.324 337.237C509.324 337.237 508.8 342.095 509.79 343.221C510.781 344.348 512.305 343.808 513.945 344.764C515.585 345.719 521.85 344.208 521.85 344.208C521.85 344.208 522.914 340.874 521.95 339.323C520.987 337.772 519.879 335.149 519.114 333.824C518.348 332.499 515.391 335.499 515.391 335.499Z" fill="white" stroke="#263238" stroke-width="0.8932" stroke-miterlimit="10" stroke-linecap="round" stroke-linejoin="round"/>
<path d="M515.39 335.499L514.325 338.833L512.297 340.617C512.297 340.617 512.81 342.564 513.882 342.421C514.955 342.277 518.992 342.323 518.992 342.323L520.228 339.638" stroke="#263238" stroke-width="0.8932" stroke-miterlimit="10" stroke-linecap="round" stroke-linejoin="round"/>
<path d="M512.298 340.617L510.568 337.741" stroke="#263238" stroke-width="0.8932" stroke-miterlimit="10" stroke-linecap="round" stroke-linejoin="round"/>
<path d="M454.064 280.299C454.064 280.299 448.961 283.601 449.863 285.402C450.764 287.204 451.363 288.403 452.264 289.004C453.164 289.604 455.865 290.504 456.765 289.904C457.666 289.304 459.766 287.803 460.067 285.402C460.367 283.001 461.267 282.701 460.367 281.501C459.466 280.299 454.064 280.299 454.064 280.299Z" fill="white" stroke="#263238" stroke-width="0.8932" stroke-miterlimit="10" stroke-linecap="round" stroke-linejoin="round"/>
<path d="M449.861 285.401L453.463 287.802L456.464 287.502L457.664 284.201C457.664 284.201 457.664 282.4 455.864 282.4C454.063 282.4 453.163 283.301 453.163 283.301L453.763 285.101" stroke="#263238" stroke-width="0.8932" stroke-miterlimit="10" stroke-linecap="round" stroke-linejoin="round"/>
<path d="M476.274 276.097C476.274 276.097 471.771 280.299 472.371 283.301C472.972 286.302 478.675 288.704 478.675 288.704L485.578 284.802L483.478 279.399L478.976 276.998L476.274 276.097Z" fill="white" stroke="#263238" stroke-width="0.8932" stroke-miterlimit="10" stroke-linecap="round" stroke-linejoin="round"/>
<path d="M472.373 283.301L477.176 285.101L482.579 283.301L480.477 278.498" stroke="#263238" stroke-width="0.8932" stroke-miterlimit="10" stroke-linecap="round" stroke-linejoin="round"/>
<path d="M476.275 276.097L475.975 282.4L479.576 283.601" stroke="#263238" stroke-width="0.8932" stroke-miterlimit="10" stroke-linecap="round" stroke-linejoin="round"/>
<path d="M489.781 332.524C489.781 332.524 485.278 336.726 485.879 339.728C486.48 342.729 492.183 345.131 492.183 345.131L499.086 341.229L496.986 335.826L492.484 333.425L489.781 332.524Z" fill="white" stroke="#263238" stroke-width="0.8932" stroke-miterlimit="10" stroke-linecap="round" stroke-linejoin="round"/>
<path d="M485.879 339.728L490.681 341.528L496.084 339.728L493.983 334.926" stroke="#263238" stroke-width="0.8932" stroke-miterlimit="10" stroke-linecap="round" stroke-linejoin="round"/>
<path d="M489.781 332.524L489.48 338.827L493.083 340.028" stroke="#263238" stroke-width="0.8932" stroke-miterlimit="10" stroke-linecap="round" stroke-linejoin="round"/>
<path d="M459.765 271.595C459.765 271.595 455.263 275.797 455.864 278.799C456.464 281.8 462.167 284.202 462.167 284.202L469.071 280.3L466.97 274.897L462.468 272.496L459.765 271.595Z" fill="white" stroke="#263238" stroke-width="0.8932" stroke-miterlimit="10" stroke-linecap="round" stroke-linejoin="round"/>
<path d="M455.863 278.798L460.665 280.6L466.068 278.798L463.967 273.996" stroke="#263238" stroke-width="0.8932" stroke-miterlimit="10" stroke-linecap="round" stroke-linejoin="round"/>
<path d="M459.765 271.595L459.465 277.898L463.067 279.098" stroke="#263238" stroke-width="0.8932" stroke-miterlimit="10" stroke-linecap="round" stroke-linejoin="round"/>
<path d="M484.95 345.623H449.331L443.988 286.578H490.294L484.95 345.623Z" fill="#263238" stroke="#263238" stroke-width="0.8932" stroke-miterlimit="10" stroke-linecap="round" stroke-linejoin="round"/>
<path d="M461.267 335.826C461.267 335.826 456.165 339.127 457.066 340.929C457.966 342.73 458.566 343.93 459.466 344.53C460.367 345.131 463.068 346.031 463.968 345.431C464.869 344.831 466.969 343.33 467.269 340.929C467.57 338.528 468.47 338.228 467.57 337.028C466.67 335.826 461.267 335.826 461.267 335.826Z" fill="white" stroke="#263238" stroke-width="0.8932" stroke-miterlimit="10" stroke-linecap="round" stroke-linejoin="round"/>
<path d="M457.066 340.928L460.668 343.329L463.669 343.029L464.869 339.728C464.869 339.728 464.869 337.927 463.069 337.927C461.268 337.927 460.368 338.827 460.368 338.827L460.968 340.628" stroke="#263238" stroke-width="0.8932" stroke-miterlimit="10" stroke-linecap="round" stroke-linejoin="round"/>
<path d="M555.715 168.73C555.715 169.662 554.831 170.418 553.739 170.418C552.648 170.418 551.764 169.662 551.764 168.73C551.764 167.797 552.648 167.042 553.739 167.042C554.831 167.042 555.715 167.797 555.715 168.73Z" fill="#808080" stroke="#263238" stroke-width="0.8932" stroke-miterlimit="10" stroke-linecap="round" stroke-linejoin="round"/>
<path d="M557.612 173.875C557.612 174.807 556.727 175.563 555.636 175.563C554.544 175.563 553.66 174.807 553.66 173.875C553.66 172.942 554.544 172.187 555.636 172.187C556.727 172.187 557.612 172.942 557.612 173.875Z" fill="#808080" stroke="#263238" stroke-width="0.8932" stroke-miterlimit="10" stroke-linecap="round" stroke-linejoin="round"/>
<path d="M559.51 179.019C559.51 179.952 558.625 180.708 557.534 180.708C556.444 180.708 555.559 179.952 555.559 179.019C555.559 178.087 556.443 177.331 557.534 177.331C558.626 177.331 559.51 178.088 559.51 179.019Z" fill="#808080" stroke="#263238" stroke-width="0.8932" stroke-miterlimit="10" stroke-linecap="round" stroke-linejoin="round"/>
<path d="M561.407 184.165C561.407 185.098 560.522 185.853 559.431 185.853C558.339 185.853 557.455 185.098 557.455 184.165C557.455 183.233 558.339 182.477 559.431 182.477C560.521 182.477 561.407 183.233 561.407 184.165Z" fill="#808080" stroke="#263238" stroke-width="0.8932" stroke-miterlimit="10" stroke-linecap="round" stroke-linejoin="round"/>
<path d="M534.653 209.234H521.123L519.094 186.806H536.683L534.653 209.234Z" fill="#263238" stroke="#263238" stroke-width="0.8932" stroke-miterlimit="10" stroke-linecap="round" stroke-linejoin="round"/>
<path d="M536.015 194.179L520.477 202.094L521.122 209.234H528.364L535.383 201.163L536.015 194.179Z" fill="#FF9E5F" stroke="#263238" stroke-width="0.8932" stroke-miterlimit="10" stroke-linecap="round" stroke-linejoin="round"/>
<path d="M538.249 184.124H517.527V189H538.249V184.124Z" fill="#FF9E5F" stroke="#263238" stroke-width="0.8932" stroke-miterlimit="10" stroke-linecap="round" stroke-linejoin="round"/>
<path d="M574.681 209.489H550.338C548.633 209.489 547.252 208.107 547.252 206.403C547.252 204.699 548.633 203.317 550.338 203.317H574.681C576.386 203.317 577.767 204.699 577.767 206.403C577.767 208.107 576.386 209.489 574.681 209.489Z" fill="#263238" stroke="#263238" stroke-width="0.8932" stroke-miterlimit="10" stroke-linecap="round" stroke-linejoin="round"/>
<path d="M639.419 209.564H564.491L546.621 160.921H621.55L639.419 209.564Z" fill="#263238" stroke="#263238" stroke-width="0.8932" stroke-miterlimit="10" stroke-linecap="round" stroke-linejoin="round"/>
<path d="M634.664 204.506H570.683L555.424 162.97H619.406L634.664 204.506Z" fill="#808080" stroke="#263238" stroke-width="0.8932" stroke-miterlimit="10" stroke-linecap="round" stroke-linejoin="round"/>
<path d="M647.24 226.938C647.24 226.938 644.003 231.687 641.355 234.092C638.706 236.495 630.587 244.016 623.864 255.401C617.141 266.787 612.462 278.431 608.019 288.503C603.575 298.574 595.553 317.178 591.48 322.836C587.408 328.495 584.729 331.531 584.729 331.531C584.729 331.531 578.075 331.683 570.195 330.986C562.316 330.288 559.061 328.865 558.962 330.917C558.863 332.97 564.288 338.613 568.196 339.594C572.106 340.574 577.097 342.082 578.306 343.248C579.516 344.414 581.034 345.754 582.974 344.898C584.915 344.043 590.854 335.784 597.459 330.09C604.065 324.396 611.934 318.762 619.065 305.497C626.195 292.231 626.562 284.652 631.551 279.672C636.539 274.69 641.824 266.875 648.196 262.752C654.568 258.629 673.612 251.004 679.693 243.069C685.774 235.134 682.601 225.485 676.754 222.036C670.909 218.587 651.819 217.348 647.24 226.938Z" fill="#263238" stroke="#263238" stroke-width="0.8932" stroke-miterlimit="10" stroke-linecap="round" stroke-linejoin="round"/>
<path d="M596.188 314.471C594.389 318.078 592.745 321.081 591.482 322.836C587.41 328.495 584.731 331.531 584.731 331.531C584.731 331.531 578.077 331.683 570.197 330.986C562.318 330.288 559.063 328.864 558.964 330.917C558.865 332.97 564.289 338.613 568.198 339.594C572.107 340.574 577.099 342.082 578.308 343.248C579.518 344.414 581.035 345.754 582.976 344.898C584.917 344.043 590.856 335.784 597.461 330.09C600.535 327.441 603.882 324.794 607.302 321.396C601.908 320.097 598.262 316.876 596.188 314.471Z" fill="white" stroke="#263238" stroke-width="0.8932" stroke-miterlimit="10" stroke-linecap="round" stroke-linejoin="round"/>
<path d="M582.974 344.898C583.568 344.637 584.54 343.676 585.787 342.313C580.449 341.249 577.687 338.558 575.243 337.877C571.807 336.919 568.891 335.037 568.891 335.037L571.552 331.098C571.104 331.064 570.652 331.026 570.195 330.986C562.316 330.288 559.061 328.865 558.962 330.917C558.863 332.97 564.288 338.613 568.196 339.594C572.105 340.574 577.097 342.082 578.306 343.248C579.517 344.414 581.034 345.754 582.974 344.898Z" fill="#FF9E5F" stroke="#263238" stroke-width="0.8932" stroke-miterlimit="10" stroke-linecap="round" stroke-linejoin="round"/>
<path d="M592.23 252.087C592.23 252.087 593.653 258.726 596.814 265.049C599.976 271.372 606.932 278.011 611.99 281.805C617.048 285.599 633.33 300.142 641.392 311.682C642.404 313.131 638.546 318.005 633.804 322.274C629.062 326.541 627.007 328.122 629.536 328.913C632.065 329.703 638.072 329.387 644.079 324.329C650.086 319.271 654.038 315.951 655.934 311.841C656.883 309.786 651.667 307.257 648.505 304.57C645.344 301.882 633.645 284.178 630.01 275.958C626.374 267.738 617.206 256.04 610.409 251.93" fill="#263238"/>
<path d="M592.23 252.087C592.23 252.087 593.653 258.726 596.814 265.049C599.976 271.372 606.932 278.011 611.99 281.805C617.048 285.599 633.33 300.142 641.392 311.682C642.404 313.131 638.546 318.005 633.804 322.274C629.062 326.541 627.007 328.122 629.536 328.913C632.065 329.703 638.072 329.387 644.079 324.329C650.086 319.271 654.038 315.951 655.934 311.841C656.883 309.786 651.667 307.257 648.505 304.57C645.344 301.882 633.645 284.178 630.01 275.958C626.374 267.738 617.206 256.04 610.409 251.93" stroke="#263238" stroke-width="0.8932" stroke-miterlimit="10" stroke-linecap="round" stroke-linejoin="round"/>
<path d="M655.937 311.84C656.885 309.785 651.669 307.255 648.507 304.569C645.849 302.309 637.157 289.434 632.296 280.506L621.535 290.017C628.223 296.205 636.39 304.52 641.394 311.682C642.406 313.131 638.548 318.005 633.806 322.274C629.064 326.541 627.009 328.122 629.537 328.913C632.067 329.703 638.074 329.387 644.08 324.329C650.088 319.27 654.04 315.951 655.937 311.84Z" fill="white" stroke="#263238" stroke-width="0.8932" stroke-miterlimit="10" stroke-linecap="round" stroke-linejoin="round"/>
<path d="M652.686 307.647C651.837 308.916 650.733 310.635 649.454 312.789C646.45 317.847 638.23 324.328 637.124 323.222C636.505 322.603 635.887 321.54 635.461 320.722C634.926 321.244 634.372 321.763 633.804 322.274C629.062 326.541 627.006 328.122 629.535 328.913C632.065 329.703 638.071 329.387 644.078 324.329C650.085 319.271 654.037 315.951 655.934 311.841C656.511 310.593 654.814 309.171 652.686 307.647Z" fill="#FF9E5F" stroke="#263238" stroke-width="0.8932" stroke-miterlimit="10" stroke-linecap="round" stroke-linejoin="round"/>
<path d="M695.614 322.115H641.867V324.645H695.614V322.115Z" fill="white" stroke="#263238" stroke-width="0.8932" stroke-miterlimit="10" stroke-linecap="round" stroke-linejoin="round"/>
<path d="M646.767 254.3L637.361 344.212C637.319 344.638 637.653 345.006 638.081 345.006C638.44 345.006 638.744 344.744 638.796 344.388L652.775 254.299H646.767V254.3Z" fill="white" stroke="#263238" stroke-width="0.8932" stroke-miterlimit="10" stroke-linecap="round" stroke-linejoin="round"/>
<path d="M689.765 254.3L699.171 344.212C699.213 344.638 698.879 345.006 698.452 345.006C698.093 345.006 697.789 344.744 697.736 344.388L683.758 254.299H689.765V254.3Z" fill="white" stroke="#263238" stroke-width="0.8932" stroke-miterlimit="10" stroke-linecap="round" stroke-linejoin="round"/>
<path d="M672.69 254.3L673.161 344.28C673.163 344.681 672.839 345.007 672.439 345.007H672.428C672.044 345.007 671.726 344.706 671.706 344.322L666.684 254.3H672.69Z" fill="white" stroke="#263238" stroke-width="0.8932" stroke-miterlimit="10" stroke-linecap="round" stroke-linejoin="round"/>
<path d="M692.755 255.249H642.985C640.534 255.249 638.547 253.262 638.547 250.81V245.143C638.547 242.692 640.533 240.705 642.985 240.705H692.756C695.207 240.705 697.194 242.692 697.194 245.143V250.81C697.194 253.261 695.206 255.249 692.755 255.249Z" fill="#FF9E5F"/>
<mask id="mask1_34_3098" style="mask-type:luminance" maskUnits="userSpaceOnUse" x="638" y="240" width="60" height="16">
<path d="M692.755 255.249H642.985C640.534 255.249 638.547 253.262 638.547 250.81V245.143C638.547 242.692 640.533 240.705 642.985 240.705H692.756C695.207 240.705 697.194 242.692 697.194 245.143V250.81C697.194 253.261 695.206 255.249 692.755 255.249Z" fill="white"/>
</mask>
<g mask="url(#mask1_34_3098)">
<path opacity="0.2" d="M692.754 240.706H644.123L642.671 243.749C642.671 243.749 687.581 244.528 687.581 247.123C687.581 249.719 688.36 253.094 679.533 253.094C672.387 253.094 648.405 253.435 639.527 253.564C639.882 254.009 640.316 254.379 640.814 254.661L643.419 255.25H692.754C695.205 255.25 697.192 253.263 697.192 250.811V245.144C697.192 242.692 695.205 240.706 692.754 240.706Z" fill="black"/>
</g>
<path d="M692.755 255.249H642.985C640.534 255.249 638.547 253.262 638.547 250.81V245.143C638.547 242.692 640.533 240.705 642.985 240.705H692.756C695.207 240.705 697.194 242.692 697.194 245.143V250.81C697.194 253.261 695.206 255.249 692.755 255.249Z" stroke="#263238" stroke-width="0.8932" stroke-miterlimit="10" stroke-linecap="round" stroke-linejoin="round"/>
<path d="M593.494 257.778C592.387 254.142 587.804 246.871 609.776 231.695C621.424 223.65 646.608 217.468 646.608 217.468L648.98 214.781C648.98 214.781 655.777 221.894 669.055 221.42C682.334 220.945 690.554 215.097 692.135 215.571C693.716 216.045 693.874 220.155 693.241 227.901C692.609 235.647 691.818 239.598 685.654 241.495C679.489 243.393 665.894 244.025 656.093 243.867C646.292 243.709 641.55 243.076 641.55 243.076C641.55 243.076 620.526 256.355 607.406 257.303" fill="#263238"/>
<path d="M593.494 257.778C592.387 254.142 587.804 246.871 609.776 231.695C621.424 223.65 646.608 217.468 646.608 217.468L648.98 214.781C648.98 214.781 655.777 221.894 669.055 221.42C682.334 220.945 690.554 215.097 692.135 215.571C693.716 216.045 693.874 220.155 693.241 227.901C692.609 235.647 691.818 239.598 685.654 241.495C679.489 243.393 665.894 244.025 656.093 243.867C646.292 243.709 641.55 243.076 641.55 243.076C641.55 243.076 620.526 256.355 607.406 257.303" stroke="#263238" stroke-width="0.8932" stroke-miterlimit="10" stroke-linecap="round" stroke-linejoin="round"/>
<path d="M642.182 170.678C641.229 170.978 612.306 176.685 609.777 176.21C607.248 175.736 600.608 170.045 598.237 170.203C595.866 170.362 591.124 171.152 590.649 172.417C590.175 173.682 591.756 177.949 591.756 177.949C591.756 177.949 590.175 180.321 590.966 181.427C591.756 182.534 596.34 179.846 596.34 179.846C596.34 179.846 601.556 183.64 603.928 182.85C606.299 182.06 608.828 181.111 608.828 181.111C608.828 181.111 645.976 183.325 646.45 183.483C646.925 183.641 651.508 184.589 651.983 177.95C652.457 171.31 647.715 168.939 642.182 170.678Z" fill="white" stroke="#263238" stroke-width="0.8932" stroke-miterlimit="10" stroke-linecap="round" stroke-linejoin="round"/>
<path d="M591.756 177.949L598.238 172.574" stroke="#263238" stroke-width="0.8932" stroke-miterlimit="10" stroke-linecap="round" stroke-linejoin="round"/>
<path d="M594.127 175.578L597.605 164.67L599.027 164.986L597.289 172.89L594.127 175.578Z" fill="#263238"/>
<path d="M619.576 182.217C619.576 182.217 581.163 192.809 574.998 192.018C568.833 191.228 566.936 188.541 565.513 188.541C564.09 188.541 560.139 190.438 558.4 190.28C556.661 190.122 554.606 189.648 554.606 190.754C554.606 191.861 556.186 193.6 557.135 193.6C558.084 193.6 561.877 193.442 561.877 193.442C561.877 193.442 554.447 195.655 554.131 197.077C553.815 198.5 554.764 199.765 556.186 200.081C557.609 200.397 558.242 201.03 558.242 201.03C558.242 201.03 558.874 203.401 559.823 204.507C560.771 205.614 563.617 206.088 566.778 205.455C569.939 204.823 575.472 201.977 576.737 201.187C578.002 200.396 616.414 196.919 619.26 196.287C622.106 195.654 625.583 195.654 626.689 193.757C627.796 191.86 619.576 182.217 619.576 182.217Z" fill="white"/>
<mask id="mask2_34_3098" style="mask-type:luminance" maskUnits="userSpaceOnUse" x="554" y="182" width="73" height="24">
<path d="M619.576 182.217C619.576 182.217 581.163 192.809 574.998 192.018C568.833 191.228 566.936 188.541 565.513 188.541C564.09 188.541 560.139 190.438 558.4 190.28C556.661 190.122 554.606 189.648 554.606 190.754C554.606 191.861 556.186 193.6 557.135 193.6C558.084 193.6 561.877 193.442 561.877 193.442C561.877 193.442 554.447 195.655 554.131 197.077C553.815 198.5 554.764 199.765 556.186 200.081C557.609 200.397 558.242 201.03 558.242 201.03C558.242 201.03 558.874 203.401 559.823 204.507C560.771 205.614 563.617 206.088 566.778 205.455C569.939 204.823 575.472 201.977 576.737 201.187C578.002 200.396 616.414 196.919 619.26 196.287C622.106 195.654 625.583 195.654 626.689 193.757C627.796 191.86 619.576 182.217 619.576 182.217Z" fill="white"/>
</mask>
<g mask="url(#mask2_34_3098)">
<path d="M573.122 199.668C566.523 199.668 567.99 193.069 565.79 194.169C563.871 195.128 556.374 196.089 554.248 198.508C554.562 199.283 555.273 199.877 556.186 200.08C557.609 200.396 558.242 201.029 558.242 201.029C558.242 201.029 558.874 203.4 559.823 204.506C560.771 205.613 563.617 206.087 566.778 205.455C569.939 204.822 575.472 201.977 576.737 201.187C578.002 200.396 616.415 196.919 619.26 196.287C621.559 195.776 624.27 195.677 625.81 194.657C626.356 194.106 626.689 193.757 626.689 193.757L622.613 189.77C622.613 189.77 579.721 199.668 573.122 199.668Z" fill="#FF9E5F"/>
</g>
<mask id="mask3_34_3098" style="mask-type:luminance" maskUnits="userSpaceOnUse" x="554" y="182" width="73" height="24">
<path d="M619.576 182.217C619.576 182.217 581.163 192.809 574.998 192.018C568.833 191.228 566.936 188.541 565.513 188.541C564.09 188.541 560.139 190.438 558.4 190.28C556.661 190.122 554.606 189.648 554.606 190.754C554.606 191.861 556.186 193.6 557.135 193.6C558.084 193.6 561.877 193.442 561.877 193.442C561.877 193.442 554.447 195.655 554.131 197.077C553.815 198.5 554.764 199.765 556.186 200.081C557.609 200.397 558.242 201.03 558.242 201.03C558.242 201.03 558.874 203.401 559.823 204.507C560.771 205.614 563.617 206.088 566.778 205.455C569.939 204.823 575.472 201.977 576.737 201.187C578.002 200.396 616.414 196.919 619.26 196.287C622.106 195.654 625.583 195.654 626.689 193.757C627.796 191.86 619.576 182.217 619.576 182.217Z" fill="white"/>
</mask>
<g mask="url(#mask3_34_3098)">
<path opacity="0.5" d="M573.122 199.668C566.523 199.668 567.99 193.069 565.79 194.169C563.871 195.128 556.374 196.089 554.248 198.508C554.562 199.283 555.273 199.877 556.186 200.08C557.609 200.396 558.242 201.029 558.242 201.029C558.242 201.029 558.874 203.4 559.823 204.506C560.771 205.613 563.617 206.087 566.778 205.455C569.939 204.822 575.472 201.977 576.737 201.187C578.002 200.396 616.415 196.919 619.26 196.287C621.559 195.776 624.27 195.677 625.81 194.657C626.356 194.106 626.689 193.757 626.689 193.757L622.613 189.77C622.613 189.77 579.721 199.668 573.122 199.668Z" fill="white"/>
</g>
<path d="M619.576 182.217C619.576 182.217 581.163 192.809 574.998 192.018C568.833 191.228 566.936 188.541 565.513 188.541C564.09 188.541 560.139 190.438 558.4 190.28C556.661 190.122 554.606 189.648 554.606 190.754C554.606 191.861 556.186 193.6 557.135 193.6C558.084 193.6 561.877 193.442 561.877 193.442C561.877 193.442 554.447 195.655 554.131 197.077C553.815 198.5 554.764 199.765 556.186 200.081C557.609 200.397 558.242 201.03 558.242 201.03C558.242 201.03 558.874 203.401 559.823 204.507C560.771 205.614 563.617 206.088 566.778 205.455C569.939 204.823 575.472 201.977 576.737 201.187C578.002 200.396 616.414 196.919 619.26 196.287C622.106 195.654 625.583 195.654 626.689 193.757C627.796 191.86 619.576 182.217 619.576 182.217Z" stroke="#263238" stroke-width="0.8932" stroke-miterlimit="10" stroke-linecap="round" stroke-linejoin="round"/>
<path d="M651.983 143.488C651.983 143.488 648.505 152.973 644.079 159.296C639.653 165.619 637.756 172.258 640.602 179.371C643.447 186.485 649.612 188.066 649.612 188.066C649.612 188.066 647.399 208.932 648.031 214.464C648.664 219.997 657.2 226.478 670.004 226.952C682.808 227.426 693.874 222.842 693.874 218.416C693.874 213.99 684.863 190.436 684.863 185.535C684.863 180.635 685.654 165.302 681.386 151.549C677.117 137.797 662.1 133.372 651.983 143.488Z" fill="#FF9E5F"/>
<mask id="mask4_34_3098" style="mask-type:luminance" maskUnits="userSpaceOnUse" x="639" y="137" width="55" height="90">
<path d="M651.983 143.488C651.983 143.488 648.505 152.973 644.079 159.296C639.653 165.619 637.756 172.258 640.602 179.371C643.447 186.485 649.612 188.066 649.612 188.066C649.612 188.066 647.399 208.932 648.031 214.464C648.664 219.997 657.2 226.478 670.004 226.952C682.808 227.426 693.874 222.842 693.874 218.416C693.874 213.99 684.863 190.436 684.863 185.535C684.863 180.635 685.654 165.302 681.386 151.549C677.117 137.797 662.1 133.372 651.983 143.488Z" fill="white"/>
</mask>
<g mask="url(#mask4_34_3098)">
<path opacity="0.2" d="M681.385 151.55C679.086 144.141 673.665 139.445 667.573 138.265C664.633 138.917 656.609 140.799 654.604 141.27C653.703 141.914 652.824 142.646 651.983 143.488C651.983 143.488 648.505 152.973 644.079 159.296C641.112 163.535 639.29 167.918 639.264 172.489C650.928 175.246 668.736 179.733 666.972 180.237C664.405 180.97 653.407 175.105 656.707 178.77C660.006 182.436 677.602 199.3 672.47 197.833C667.338 196.366 655.974 184.269 658.906 190.134C661.838 196 669.904 205.531 667.338 205.531C664.772 205.531 651.208 191.967 655.974 200.033C660.74 208.098 682.369 220.928 675.403 222.761C671.383 223.82 662.852 223.537 657.901 224.374C661.256 225.803 665.342 226.779 670.004 226.951C682.808 227.426 693.874 222.841 693.874 218.415C693.874 213.989 684.863 190.435 684.863 185.534C684.863 180.636 685.654 165.303 681.385 151.55Z" fill="black"/>
</g>
<path d="M651.983 143.488C651.983 143.488 648.505 152.973 644.079 159.296C639.653 165.619 637.756 172.258 640.602 179.371C643.447 186.485 649.612 188.066 649.612 188.066C649.612 188.066 647.399 208.932 648.031 214.464C648.664 219.997 657.2 226.478 670.004 226.952C682.808 227.426 693.874 222.842 693.874 218.416C693.874 213.99 684.863 190.436 684.863 185.535C684.863 180.635 685.654 165.302 681.386 151.549C677.117 137.797 662.1 133.372 651.983 143.488Z" stroke="#263238" stroke-width="0.8932" stroke-miterlimit="10" stroke-linecap="round" stroke-linejoin="round"/>
<path d="M653.926 181.846C653.926 181.846 665.537 200.604 682.508 205.963" stroke="#263238" stroke-width="0.8932" stroke-miterlimit="10" stroke-linecap="round" stroke-linejoin="round"/>
<path d="M652.588 184.973C652.588 184.973 657.054 199.71 668.665 206.856" stroke="#263238" stroke-width="0.8932" stroke-miterlimit="10" stroke-linecap="round" stroke-linejoin="round"/>
<path d="M654.982 173.165C654.982 173.165 665.474 168.592 669.777 165.633" stroke="#263238" stroke-width="0.8932" stroke-miterlimit="10" stroke-linecap="round" stroke-linejoin="round"/>
<path d="M650.678 174.242C650.678 174.242 654.443 175.049 664.128 174.242" stroke="#263238" stroke-width="0.8932" stroke-miterlimit="10" stroke-linecap="round" stroke-linejoin="round"/>
<path d="M651.034 145.859C651.034 145.859 648.03 147.598 644.395 151.392C640.76 155.185 623.213 181.743 623.213 181.743C623.213 181.743 628.429 192.651 630.01 192.966C631.591 193.282 659.096 169.728 661.626 166.884C664.155 164.038 665.736 158.821 664.946 156.609" fill="#FF9E5F"/>
<mask id="mask5_34_3098" style="mask-type:luminance" maskUnits="userSpaceOnUse" x="623" y="145" width="43" height="48">
<path d="M651.034 145.859C651.034 145.859 648.03 147.598 644.395 151.392C640.76 155.185 623.213 181.743 623.213 181.743C623.213 181.743 628.429 192.651 630.01 192.966C631.591 193.282 659.096 169.728 661.626 166.884C664.155 164.038 665.736 158.821 664.946 156.609" fill="white"/>
</mask>
<g mask="url(#mask5_34_3098)">
<path opacity="0.2" d="M661.625 166.884C664.155 164.038 665.736 158.822 664.945 156.609L658.701 151.784L656.707 153.845C656.707 153.845 656.569 161.939 649.376 166.308C642.183 170.678 639.111 170.707 638.012 176.206C636.912 181.704 640.578 183.171 636.179 183.904C631.78 184.638 628.848 185.004 628.848 187.937C628.848 188.807 628.946 190.454 629.178 192.29C629.509 192.676 629.795 192.924 630.012 192.967C631.591 193.282 659.096 169.729 661.625 166.884Z" fill="black"/>
</g>
<path d="M651.034 145.859C651.034 145.859 648.03 147.598 644.395 151.392C640.76 155.185 623.213 181.743 623.213 181.743C623.213 181.743 628.429 192.651 630.01 192.966C631.591 193.282 659.096 169.728 661.626 166.884C664.155 164.038 665.736 158.821 664.946 156.609" stroke="#263238" stroke-width="0.8932" stroke-miterlimit="10" stroke-linecap="round" stroke-linejoin="round"/>
<path d="M617.206 183.324C617.206 183.324 622.106 195.021 623.213 196.286C624.32 197.551 630.168 196.76 632.065 195.337C633.963 193.914 633.646 191.07 633.646 191.07C633.646 191.07 626.375 178.266 625.584 177.633C624.794 177.001 624.478 178.424 621.159 179.53C617.839 180.636 616.574 181.11 617.206 183.324Z" fill="white" stroke="#263238" stroke-width="0.8932" stroke-miterlimit="10" stroke-linecap="round" stroke-linejoin="round"/>
<path d="M625.109 113.612C625.109 113.612 624.793 118.196 625.584 119.619C626.374 121.042 628.587 122.465 628.587 124.361C628.587 126.258 627.006 128.787 627.481 130.209C627.955 131.632 630.485 131.79 630.485 131.79C630.485 131.79 635.227 137.639 636.649 139.694C638.072 141.75 638.705 140.959 640.917 140.327C643.131 139.694 647.873 135.585 650.56 132.423C653.248 129.261 648.821 119.619 642.972 113.138C637.124 106.657 628.429 106.815 626.532 108.712C624.635 110.608 625.109 113.612 625.109 113.612Z" fill="white"/>
<mask id="mask6_34_3098" style="mask-type:luminance" maskUnits="userSpaceOnUse" x="625" y="107" width="27" height="35">
<path d="M625.109 113.612C625.109 113.612 624.793 118.196 625.584 119.619C626.374 121.042 628.587 122.465 628.587 124.361C628.587 126.258 627.006 128.787 627.481 130.209C627.955 131.632 630.485 131.79 630.485 131.79C630.485 131.79 635.227 137.639 636.649 139.694C638.072 141.75 638.705 140.959 640.917 140.327C643.131 139.694 647.873 135.585 650.56 132.423C653.248 129.261 648.821 119.619 642.972 113.138C637.124 106.657 628.429 106.815 626.532 108.712C624.635 110.608 625.109 113.612 625.109 113.612Z" fill="white"/>
</mask>
<g mask="url(#mask6_34_3098)">
<path d="M637.644 109.182C636.912 112.794 636.18 118.896 638.378 123.05C641.678 129.281 644.244 132.581 642.411 137.713C642.084 138.627 641.746 139.432 641.412 140.145C643.776 139.131 648.059 135.368 650.561 132.423C653.249 129.261 648.822 119.619 642.974 113.138C641.348 111.336 639.502 110.062 637.644 109.182Z" fill="#FF9E5F"/>
</g>
<mask id="mask7_34_3098" style="mask-type:luminance" maskUnits="userSpaceOnUse" x="625" y="107" width="27" height="35">
<path d="M625.109 113.612C625.109 113.612 624.793 118.196 625.584 119.619C626.374 121.042 628.587 122.465 628.587 124.361C628.587 126.258 627.006 128.787 627.481 130.209C627.955 131.632 630.485 131.79 630.485 131.79C630.485 131.79 635.227 137.639 636.649 139.694C638.072 141.75 638.705 140.959 640.917 140.327C643.131 139.694 647.873 135.585 650.56 132.423C653.248 129.261 648.821 119.619 642.972 113.138C637.124 106.657 628.429 106.815 626.532 108.712C624.635 110.608 625.109 113.612 625.109 113.612Z" fill="white"/>
</mask>
<g mask="url(#mask7_34_3098)">
<path opacity="0.5" d="M637.644 109.182C636.912 112.794 636.18 118.896 638.378 123.05C641.678 129.281 644.244 132.581 642.411 137.713C642.084 138.627 641.746 139.432 641.412 140.145C643.776 139.131 648.059 135.368 650.561 132.423C653.249 129.261 648.822 119.619 642.974 113.138C641.348 111.336 639.502 110.062 637.644 109.182Z" fill="white"/>
</g>
<mask id="mask8_34_3098" style="mask-type:luminance" maskUnits="userSpaceOnUse" x="625" y="107" width="27" height="35">
<path d="M625.109 113.612C625.109 113.612 624.793 118.196 625.584 119.619C626.374 121.042 628.587 122.465 628.587 124.361C628.587 126.258 627.006 128.787 627.481 130.209C627.955 131.632 630.485 131.79 630.485 131.79C630.485 131.79 635.227 137.639 636.649 139.694C638.072 141.75 638.705 140.959 640.917 140.327C643.131 139.694 647.873 135.585 650.56 132.423C653.248 129.261 648.821 119.619 642.972 113.138C637.124 106.657 628.429 106.815 626.532 108.712C624.635 110.608 625.109 113.612 625.109 113.612Z" fill="white"/>
</mask>
<g mask="url(#mask8_34_3098)">
<path d="M628.586 120.409C628.586 120.409 628.586 118.038 631.432 119.619" stroke="#263238" stroke-width="0.8932" stroke-miterlimit="10" stroke-linecap="round" stroke-linejoin="round"/>
</g>
<mask id="mask9_34_3098" style="mask-type:luminance" maskUnits="userSpaceOnUse" x="625" y="107" width="27" height="35">
<path d="M625.109 113.612C625.109 113.612 624.793 118.196 625.584 119.619C626.374 121.042 628.587 122.465 628.587 124.361C628.587 126.258 627.006 128.787 627.481 130.209C627.955 131.632 630.485 131.79 630.485 131.79C630.485 131.79 635.227 137.639 636.649 139.694C638.072 141.75 638.705 140.959 640.917 140.327C643.131 139.694 647.873 135.585 650.56 132.423C653.248 129.261 648.821 119.619 642.972 113.138C637.124 106.657 628.429 106.815 626.532 108.712C624.635 110.608 625.109 113.612 625.109 113.612Z" fill="white"/>
</mask>
<g mask="url(#mask9_34_3098)">
<path d="M630.613 122.613L630.989 124.795C630.989 124.795 632.72 125.397 633.999 123.139" stroke="#263238" stroke-width="0.8932" stroke-miterlimit="10" stroke-linecap="round" stroke-linejoin="round"/>
</g>
<path d="M625.109 113.612C625.109 113.612 624.793 118.196 625.584 119.619C626.374 121.042 628.587 122.465 628.587 124.361C628.587 126.258 627.006 128.787 627.481 130.209C627.955 131.632 630.485 131.79 630.485 131.79C630.485 131.79 635.227 137.639 636.649 139.694C638.072 141.75 638.705 140.959 640.917 140.327C643.131 139.694 647.873 135.585 650.56 132.423C653.248 129.261 648.821 119.619 642.972 113.138C637.124 106.657 628.429 106.815 626.532 108.712C624.635 110.608 625.109 113.612 625.109 113.612Z" stroke="#263238" stroke-width="0.8932" stroke-miterlimit="10" stroke-linecap="round" stroke-linejoin="round"/>
<path d="M620.209 106.656L620.185 107.287L619.893 115.034L628.429 116.141L630.326 112.822V116.457C630.326 116.457 633.961 115.983 638.072 117.564C642.181 119.145 647.399 130.368 647.082 134.952C646.766 139.536 642.815 140.485 643.289 147.44C643.763 154.396 654.354 161.351 662.416 156.925C670.478 152.499 671.743 146.808 675.062 147.915C678.381 149.021 683.44 155.819 686.601 146.176C689.762 136.533 688.34 130.368 680.911 122.464C673.481 114.56 667.632 115.192 666.684 108.869C665.735 102.546 663.68 94.0099 656.883 89.2679C650.085 84.5259 640.284 84.2098 631.906 87.8451C623.528 91.4804 620.209 102.546 620.209 106.656Z" fill="#263238"/>
<mask id="mask10_34_3098" style="mask-type:luminance" maskUnits="userSpaceOnUse" x="619" y="85" width="70" height="74">
<path d="M620.209 106.656L620.185 107.287L619.893 115.034L628.429 116.141L630.326 112.822V116.457C630.326 116.457 633.961 115.983 638.072 117.564C642.181 119.145 647.399 130.368 647.082 134.952C646.766 139.536 642.815 140.485 643.289 147.44C643.763 154.396 654.354 161.351 662.416 156.925C670.478 152.499 671.743 146.808 675.062 147.915C678.381 149.021 683.44 155.819 686.601 146.176C689.762 136.533 688.34 130.368 680.911 122.464C673.481 114.56 667.632 115.192 666.684 108.869C665.735 102.546 663.68 94.0099 656.883 89.2679C650.085 84.5259 640.284 84.2098 631.906 87.8451C623.528 91.4804 620.209 102.546 620.209 106.656Z" fill="white"/>
</mask>
<g mask="url(#mask10_34_3098)">
<path d="M624.962 110.287C624.905 110.287 624.85 110.281 624.793 110.268C623.879 110.063 623.752 108.478 623.666 104.636C623.644 103.64 623.621 102.612 623.558 101.791C623.551 101.709 623.543 101.641 623.536 101.585C622.784 102.494 621.169 106.275 619.958 109.649L619.117 109.347C622.349 100.344 623.403 100.475 623.748 100.526C624.363 100.609 624.426 101.418 624.449 101.723C624.514 102.568 624.538 103.609 624.56 104.616C624.595 106.202 624.653 108.807 624.991 109.354C625.121 109.252 625.434 108.915 625.987 107.809C626.918 105.948 627.738 105.091 628.594 105.137C629.652 105.186 630.2 106.587 630.599 107.611C630.719 107.916 630.842 108.232 630.925 108.357C631.317 108.461 632.712 107.038 633.458 106.273C633.677 106.047 633.896 105.822 634.109 105.609C634.445 105.273 634.888 104.899 635.378 104.971C635.874 105.046 636.118 105.51 636.378 106C636.618 106.453 636.888 106.968 637.383 107.362C637.665 107.588 637.814 107.554 637.871 107.54C638.516 107.385 639.294 105.652 640.196 103.644C640.406 103.177 640.628 102.681 640.867 102.165C641.161 101.525 641.566 100.78 642.223 100.844C643.061 100.906 643.439 102.211 644.013 104.185C644.481 105.795 645.01 107.621 645.794 108.627C645.991 108.881 646.273 109.168 646.53 109.135C647.23 109.027 647.999 106.96 648.458 105.725C648.739 104.968 648.982 104.315 649.226 103.908C649.477 103.49 649.798 103.411 649.989 103.419C650.651 103.441 651.1 104.318 651.721 105.53C652.185 106.438 652.821 107.68 653.348 107.891C653.453 107.932 653.492 107.914 653.514 107.904C653.861 107.729 654.162 106.579 654.403 105.656C654.684 104.583 654.975 103.474 655.491 102.7C655.804 102.23 656.214 101.951 656.708 101.872C657.875 101.684 659.178 102.693 660.046 103.369C660.001 102.915 659.906 102.287 659.824 101.742C659.376 98.7734 659.248 97.33 659.991 96.9236C660.337 96.7343 660.75 96.8432 661.217 97.2514C661.837 97.7945 662.646 98.6993 663.502 99.6577C665.139 101.492 667.62 104.265 668.622 103.996C668.902 103.922 669.048 103.496 669.121 103.15L669.996 103.338C669.812 104.195 669.427 104.707 668.851 104.86C667.417 105.239 665.456 103.188 662.837 100.253C661.999 99.3156 661.209 98.4295 660.63 97.924C660.534 97.8391 660.463 97.7909 660.414 97.7632C660.214 98.3286 660.546 100.521 660.708 101.608C661.025 103.709 661.091 104.27 660.68 104.532C660.499 104.646 660.276 104.638 660.082 104.51C659.93 104.409 659.737 104.259 659.516 104.085C658.815 103.54 657.636 102.633 656.852 102.752C656.606 102.792 656.409 102.932 656.235 103.194C655.802 103.844 655.53 104.879 655.269 105.881C654.922 107.203 654.624 108.344 653.917 108.7C653.725 108.797 653.413 108.878 653.018 108.721C652.18 108.386 651.543 107.141 650.927 105.938C650.647 105.393 650.241 104.599 649.997 104.362C649.995 104.364 649.994 104.366 649.993 104.368C649.791 104.703 649.551 105.351 649.297 106.036C648.636 107.814 647.885 109.83 646.666 110.018C646.122 110.1 645.59 109.818 645.09 109.176C644.201 108.033 643.646 106.121 643.156 104.434C642.85 103.379 642.432 101.942 642.137 101.735C642.137 101.772 641.962 101.926 641.679 102.538C641.441 103.052 641.22 103.544 641.011 104.009C639.891 106.502 639.152 108.149 638.082 108.407C637.661 108.508 637.242 108.391 636.827 108.058C636.187 107.547 635.842 106.894 635.59 106.417C635.474 106.198 635.316 105.898 635.231 105.849C635.235 105.857 635.094 105.888 634.742 106.239C634.532 106.449 634.316 106.67 634.098 106.894C632.617 108.416 631.671 109.327 630.855 109.26C630.578 109.235 630.345 109.093 630.183 108.851C630.046 108.645 629.923 108.332 629.769 107.934C629.511 107.276 629.033 106.05 628.554 106.029C628.407 105.999 627.809 106.161 626.786 108.207C626.058 109.661 625.515 110.287 624.962 110.287Z" fill="#575757"/>
<path d="M642.727 146.175C642.727 146.175 644.939 137.929 647.151 140.543C649.364 143.157 650.973 143.962 651.174 141.75C651.375 139.537 651.174 136.319 653.387 139.336C655.599 142.354 661.03 145.37 661.432 140.744C661.834 136.118 662.438 129.883 665.052 133.101C667.666 136.319 669.879 138.733 670.081 136.923C670.282 135.112 672.092 133.705 672.896 135.716C673.701 137.728 674.304 139.739 674.908 135.112C675.511 130.487 672.695 125.458 675.712 126.665C678.73 127.872 680.137 131.895 680.137 129.683C680.137 127.47 676.517 124.856 679.735 125.66C682.954 126.464 683.356 128.475 683.758 127.268C684.16 126.062 681.948 123.245 684.764 123.245" stroke="#575757" stroke-width="0.8932" stroke-miterlimit="10"/>
</g>
<path d="M620.209 106.656L620.185 107.287L619.893 115.034L628.429 116.141L630.326 112.822V116.457C630.326 116.457 633.961 115.983 638.072 117.564C642.181 119.145 647.399 130.368 647.082 134.952C646.766 139.536 642.815 140.485 643.289 147.44C643.763 154.396 654.354 161.351 662.416 156.925C670.478 152.499 671.743 146.808 675.062 147.915C678.381 149.021 683.44 155.819 686.601 146.176C689.762 136.533 688.34 130.368 680.911 122.464C673.481 114.56 667.632 115.192 666.684 108.869C665.735 102.546 663.68 94.0099 656.883 89.2679C650.085 84.5259 640.284 84.2098 631.906 87.8451C623.528 91.4804 620.209 102.546 620.209 106.656Z" stroke="#263238" stroke-width="0.8932" stroke-miterlimit="10" stroke-linecap="round" stroke-linejoin="round"/>
<path d="M435.74 345.623H762.6" stroke="#263238" stroke-width="0.8932" stroke-miterlimit="10"/>
<defs>
<linearGradient id="paint0_linear_34_3098" x1="0.337885" y1="182.123" x2="821.539" y2="182.123" gradientUnits="userSpaceOnUse">
<stop stop-color="#FE7620"/>
<stop offset="1" stop-color="#984713"/>
</linearGradient>
</defs>
</svg>
