<svg width="230" height="10" viewBox="0 0 230 10" fill="none" xmlns="http://www.w3.org/2000/svg">
<g clip-path="url(#clip0_0_3265)">
<path d="M5.01438 4.71729C6.84053 4.71729 8.66668 4.66239 10.4843 4.63244L12.7048 4.57256L22.5043 4.28811C26.3795 4.17166 30.2833 4.0519 34.2157 3.9288L50.9511 3.38485L54.7835 3.28005L64.5315 2.9956L74.2796 2.74608C75.557 2.71115 76.8517 2.66624 78.1034 2.64129L93.6556 2.35683L103.224 2.18216C104.467 2.18216 105.719 2.12727 106.97 2.11729L122 1.99752L136.841 1.86777C138.153 1.86777 139.413 1.86777 140.759 1.86777L150.447 1.84282L165.493 1.78793H170.423H180.711H181.569C173.83 1.84781 166.09 1.91102 158.351 1.97756L148.689 2.09733C147.3 2.09733 145.902 2.09733 144.505 2.13226L130.479 2.35184L114.266 2.60635C113.358 2.60635 112.449 2.65126 111.549 2.67621L102.906 2.91076L85.3909 3.37986C84.5334 3.37986 83.6761 3.43475 82.8188 3.46969L74.2453 3.81402L58.933 4.43283C57.527 4.48772 56.1209 4.56757 54.7149 4.63744L44.9068 5.13648L32.4324 5.73033L15.0882 6.61363L10.9215 6.82323C8.43519 6.94799 5.95746 7.13263 3.47972 7.29236C3.4107 7.287 3.3405 7.29029 3.27385 7.302C3.2072 7.31371 3.14561 7.33357 3.09322 7.36029C3.04083 7.38693 2.99885 7.41986 2.97009 7.45679C2.94132 7.49371 2.92645 7.53371 2.92645 7.57429C2.92645 7.61479 2.94132 7.65486 2.97009 7.69179C2.99885 7.72871 3.04083 7.76157 3.09322 7.78829C3.14561 7.815 3.2072 7.83486 3.27385 7.84657C3.3405 7.85829 3.4107 7.86157 3.47972 7.85621L6.19751 7.92607C6.08066 8.06257 6.01907 8.21279 6.01747 8.36529C6.01972 8.64014 6.20833 8.90343 6.54228 9.09779C6.87621 9.29214 7.32849 9.40193 7.80076 9.40329C14.8911 9.14379 21.9813 8.86429 29.0802 8.66964L47.5646 8.17064L67.9953 7.60671L74.4339 7.42707C75.0512 7.42707 75.6685 7.38714 76.2858 7.37714L109.208 6.87812L126.8 6.60864C128.927 6.57869 131.045 6.54876 133.162 6.52879L166.831 6.22438L181.26 6.08964C185.366 6.04971 189.473 6.03474 193.58 5.94491L203.757 5.72035C205.471 5.68541 207.185 5.66046 208.832 5.60058L220.363 5.14646C220.149 5.36416 220.09 5.62239 220.2 5.86507C220.311 6.10031 220.576 6.30094 220.937 6.42399C221.122 6.48829 221.326 6.52989 221.538 6.5462C221.751 6.56251 221.966 6.55319 222.172 6.51881C223.03 6.32419 223.887 6.12457 224.684 5.91996H224.633L224.813 5.87505L225.027 5.82016H224.951L226.279 5.49579L227.677 5.15144C228.174 5.02169 228.662 4.86699 229.142 4.71729C229.407 4.62374 229.626 4.49173 229.776 4.33424C229.926 4.17674 230.004 3.99917 230 3.81901C229.999 3.59271 229.872 3.37271 229.636 3.19254C229.402 3.01236 229.071 2.88186 228.696 2.82094C228.26 2.77602 227.84 2.74109 227.402 2.71115H227.111C226.819 2.71115 226.52 2.71115 226.253 2.74608C225.602 2.74608 224.951 2.83091 224.298 2.85587L222.695 2.92574L218.408 3.10539L217.294 3.1503C217.429 3.06073 217.528 2.95514 217.586 2.8409C217.653 2.75094 217.69 2.65447 217.697 2.55644L217.748 2.34186C217.747 2.25146 217.717 2.16196 217.662 2.07737L217.774 2.04743C218.041 1.95604 218.265 1.82741 218.426 1.67315C218.569 1.51626 218.646 1.34172 218.649 1.16413C218.644 0.978364 218.559 0.796307 218.4 0.635147L218.117 0.425551C217.897 0.296594 217.621 0.203661 217.32 0.156071C216.769 0.0430955 216.188 -0.009363 215.605 0.00136854C215.133 0.00136854 214.645 0.00136854 214.173 0.0263205H212.099C211.121 0.0263205 210.152 0.0263205 209.174 0.0263205H201.459C199.032 0.0263205 196.607 0.0263205 194.18 0.0263205H187.561C178.765 0.0263205 169.977 0.0562628 161.181 0.106166L141.393 0.285821C138.444 0.285821 135.503 0.325744 132.554 0.365666L112.732 0.610196L107.082 0.680061C105.984 0.680061 104.895 0.724971 103.798 0.749929L84.2077 1.1791L78.2062 1.31384C77.0917 1.33879 75.9685 1.37871 74.854 1.41365L55.4265 2.02247C52.0742 2.12727 48.7305 2.24704 45.3784 2.36681L28.1885 2.9956C23.2245 3.17525 18.2604 3.33494 13.2963 3.49464L10.9387 3.57449L7.12345 3.69426C5.99175 3.72419 4.86005 3.73916 3.69406 3.72419C3.64045 3.63703 3.5414 3.56179 3.41075 3.50901C3.28008 3.45621 3.12435 3.42851 2.96531 3.42976C2.23656 3.46469 1.50781 3.50961 0.779069 3.55452C0.609725 3.56126 0.447628 3.59711 0.313316 3.65751C0.179005 3.71793 0.0785226 3.80019 0.0246013 3.89387C-0.0274417 4.01298 0.00380807 4.13924 0.111495 4.24496C0.219183 4.35068 0.394513 4.42721 0.599026 4.45779L1.55068 4.58754C1.8671 4.62554 2.18817 4.64889 2.51091 4.6574C3.34255 4.70231 4.18275 4.71229 5.01438 4.71729ZM205.634 3.11537H208.832C208.924 3.2544 209.071 3.37908 209.26 3.47966C208.849 3.49963 208.438 3.5146 208.026 3.52458L205.694 3.57449L195.5 3.78907C193.949 3.82401 192.396 3.87391 190.845 3.88888L183.566 3.95375L166.933 4.10846L134.645 4.40788C126.929 4.47774 119.213 4.61748 111.497 4.73724L76.7231 5.27121C74.3996 5.31114 72.0677 5.39598 69.7442 5.46085L49.9737 6.01479L30.5719 6.55374L28.7715 6.60365L34.0014 6.36411L52.2715 5.55068L58.6501 5.26623L61.9424 5.14646L80.9412 4.49271C82.1758 4.4478 83.4103 4.39291 84.6535 4.36296L90.0463 4.22823L109.637 3.78408L113.923 3.68926C114.301 3.68926 114.678 3.68926 115.064 3.68926L118.09 3.65433L137.715 3.41979C140.724 3.38485 143.716 3.34493 146.752 3.32996C156.482 3.28504 166.204 3.22516 175.901 3.20021C185.821 3.16029 195.731 3.12036 205.642 3.11537H205.634Z" fill="#2092ED"/>
</g>
<defs>
<clipPath id="clip0_0_3265">
<rect width="230" height="10" fill="white"/>
</clipPath>
</defs>
</svg>
