<svg width="37" height="37" viewBox="0 0 37 37" fill="none" xmlns="http://www.w3.org/2000/svg">
<circle cx="18.5" cy="18.5" r="18.5" fill="#0C91CF"/>
<g clip-path="url(#clip0_0_4255)">
<path d="M27.6875 20.4688H25.0625V17.8438H23.75V23.75H13.25V13.25L19.1562 13.2494V11.9375H16.5312V9.3125H15.2188V11.9375H13.25C12.902 11.9378 12.5684 12.0762 12.3223 12.3223C12.0762 12.5684 11.9378 12.902 11.9375 13.25V15.2188H9.3125V16.5312H11.9375V20.4688H9.3125V21.7812H11.9375V23.75C11.9379 24.098 12.0763 24.4316 12.3224 24.6776C12.5684 24.9237 12.902 25.0621 13.25 25.0625H15.2188V27.6875H16.5312V25.0625H20.4688V27.6875H21.7812V25.0625H23.75C24.098 25.062 24.4315 24.9236 24.6776 24.6776C24.9236 24.4315 25.062 24.098 25.0625 23.75V21.7812H27.6875V20.4688Z" fill="white"/>
<path d="M21.7812 21.7812H15.2188V15.2188H21.7812V21.7812ZM16.5312 20.4688H20.4688V16.5312H16.5312V20.4688Z" fill="white"/>
<path d="M28.3438 16.5312H27.0312C27.0292 14.7914 26.3372 13.1234 25.1069 11.8931C23.8766 10.6628 22.2086 9.97078 20.4688 9.96875V8.65625C22.5566 8.65853 24.5583 9.48894 26.0347 10.9653C27.5111 12.4417 28.3415 14.4434 28.3438 16.5312Z" fill="white"/>
<path d="M25.0625 16.5312H23.75C23.749 15.6613 23.4029 14.8273 22.7878 14.2122C22.1727 13.5971 21.3387 13.251 20.4688 13.25V11.9375C21.6866 11.939 22.8542 12.4234 23.7154 13.2846C24.5766 14.1458 25.061 15.3134 25.0625 16.5312Z" fill="white"/>
</g>
<defs>
<clipPath id="clip0_0_4255">
<rect width="21" height="21" fill="white" transform="translate(8 8)"/>
</clipPath>
</defs>
</svg>
