<svg width="37" height="37" viewBox="0 0 37 37" fill="none" xmlns="http://www.w3.org/2000/svg">
<circle cx="18.5" cy="18.5" r="18.5" fill="#0C91CF"/>
<g clip-path="url(#clip0_0_3431)">
<path d="M13.5961 16.7799C13.699 16.7326 13.8037 16.6748 13.9182 16.6169C14.145 16.4995 14.3952 16.3654 14.6829 16.2501C14.8233 16.1897 14.9701 16.1267 15.1216 16.0616C15.2769 16.0084 15.4378 15.9539 15.6029 15.8973C15.7804 15.8237 15.9719 15.7726 16.1676 15.7225C15.9136 16.1791 15.7676 16.7042 15.7676 17.2629C15.7676 19.0165 17.1944 20.4429 18.9476 20.4429C20.7008 20.4429 22.1276 19.0165 22.1276 17.2629C22.1276 16.7033 21.9812 16.1777 21.7263 15.7203C21.9225 15.7705 22.1148 15.8216 22.2931 15.8956C22.4582 15.9518 22.6191 16.0067 22.7745 16.0598C22.9259 16.1254 23.0723 16.1884 23.2132 16.2488C23.5026 16.3658 23.7472 16.4956 23.9719 16.6118C24.0851 16.6688 24.1894 16.7259 24.2924 16.773C24.3899 16.8326 24.4792 16.8871 24.56 16.9365C24.8839 17.1335 25.0787 17.2352 25.0787 17.2352C25.0787 17.2352 24.9579 17.0513 24.7294 16.7493C24.672 16.6739 24.6082 16.5905 24.5388 16.4999C24.4609 16.4139 24.3698 16.3276 24.2741 16.231C24.083 16.0374 23.8622 15.8114 23.589 15.6234C23.4545 15.522 23.3145 15.4161 23.1699 15.3067C23.0132 15.2148 22.8511 15.1195 22.6847 15.022C22.3545 14.8131 21.9664 14.6795 21.5749 14.5097C21.1681 14.391 20.7485 14.2416 20.3026 14.1846C19.8622 14.0884 19.4039 14.0825 18.9481 14.0557C18.4923 14.0825 18.034 14.0876 17.5936 14.1837C17.1472 14.2395 16.728 14.3905 16.3208 14.5084C15.9289 14.6782 15.5408 14.8118 15.2106 15.0208C15.0442 15.1187 14.8821 15.2136 14.7254 15.3055C14.5808 15.4149 14.4407 15.5208 14.3063 15.6225C14.0314 15.8118 13.8161 16.034 13.6268 16.2263C13.5323 16.3225 13.4413 16.408 13.3638 16.494C13.2923 16.5863 13.2272 16.6714 13.1681 16.748C12.9348 17.0549 12.8179 17.2361 12.8179 17.2361C12.8179 17.2361 13.0162 17.1318 13.3353 16.9391C13.4127 16.8905 13.5004 16.8377 13.5961 16.7799ZM18.9467 19.1662C17.8974 19.1662 17.0433 18.3126 17.0433 17.2628C17.0433 16.213 17.8974 15.3594 18.9467 15.3594C19.9961 15.3594 20.8502 16.213 20.8502 17.2628C20.8502 18.3126 19.9961 19.1662 18.9467 19.1662Z" fill="white"/>
<path d="M12.617 23.8934H16.5927L16.2949 26.8721H14.5319C14.1796 26.8721 13.8936 27.1576 13.8936 27.5104C13.8936 27.8632 14.1796 28.1487 14.5319 28.1487H16.8724H21.5532C21.5567 28.1491 21.56 28.1487 21.5618 28.1487H23.4682C23.8205 28.1487 24.1065 27.8632 24.1065 27.5104C24.1065 27.1576 23.8205 26.8721 23.4682 26.8721H22.1311L21.8328 23.8934H25.383C27.3775 23.8934 29 22.2708 29 20.2764V13.4678C29 11.4734 27.3775 9.85083 25.383 9.85083H12.617C10.6225 9.85083 9 11.4734 9 13.4678V20.2764C9 22.2708 10.6225 23.8934 12.617 23.8934ZM20.8481 26.8721H17.5774L17.8753 23.8934H20.5498L20.8481 26.8721ZM10.2766 13.4678C10.2766 12.1772 11.3268 11.1274 12.617 11.1274H25.383C26.6732 11.1274 27.7234 12.1772 27.7234 13.4678V20.2764C27.7234 21.567 26.6732 22.6168 25.383 22.6168H21.1276H17.2978H12.6169C11.3267 22.6168 10.2765 21.567 10.2765 20.2764L10.2766 13.4678Z" fill="white"/>
</g>
<defs>
<clipPath id="clip0_0_3431">
<rect width="20" height="20" fill="white" transform="translate(9 9)"/>
</clipPath>
</defs>
</svg>
