<svg width="37" height="37" viewBox="0 0 37 37" fill="none" xmlns="http://www.w3.org/2000/svg">
<circle cx="18.5" cy="18.5" r="18.5" fill="#0C91CF"/>
<g clip-path="url(#clip0_0_3454)">
<path d="M27.652 13.2291C27.1249 12.3666 25.9749 11.9353 24.4895 11.9353C23.6476 11.935 22.8096 12.0478 21.9978 12.2708C21.1832 9.63534 19.9374 7.95825 18.4999 7.95825C17.0624 7.95825 15.8166 9.63534 15.002 12.2708C14.1902 12.0478 13.3521 11.935 12.5103 11.9353C11.0249 11.9353 9.87489 12.3666 9.34781 13.2291C8.82073 14.0916 9.44364 16.4874 11.2645 18.4999C9.44364 20.5124 8.62906 22.477 9.34781 23.7708C10.0666 25.0645 11.0249 25.0645 12.5103 25.0645C13.3521 25.0649 14.1902 24.9521 15.002 24.7291C15.8166 27.3645 17.0624 29.0416 18.4999 29.0416C19.9374 29.0416 21.1832 27.3645 21.9978 24.7291C22.8096 24.9521 23.6476 25.0649 24.4895 25.0645C25.9749 25.0645 27.1249 24.6333 27.652 23.7708C28.1791 22.9083 27.5561 20.5124 25.7353 18.4999C27.5561 16.4874 28.3707 14.5228 27.652 13.2291ZM18.4999 9.39575C19.027 9.39575 19.9374 10.4978 20.6082 12.6541C19.8907 12.8671 19.1866 13.1231 18.4999 13.4208C17.8131 13.1231 17.1091 12.8671 16.3916 12.6541C17.0624 10.4978 17.9728 9.39575 18.4999 9.39575ZM21.3749 18.4999C21.3749 19.1708 21.327 19.7937 21.2791 20.3687L20.0332 21.1833L18.4999 21.9499L16.9666 21.1833L15.7207 20.3687C15.6728 19.7937 15.6249 19.1708 15.6249 18.4999C15.6249 17.8291 15.6728 17.2062 15.7207 16.6312L16.9666 15.8166L18.4999 15.0499L20.0332 15.8166L21.2791 16.6312C21.327 17.2062 21.3749 17.8291 21.3749 18.4999ZM22.8124 17.6853L23.7228 18.4999L22.8124 19.3145V17.6853ZM21.0874 22.2374L20.9436 22.9562L20.2249 22.7166L20.752 22.4291L21.0874 22.2374ZM16.7749 22.7166L16.0561 22.9562L15.9124 22.2374L16.2478 22.4291L16.7749 22.7166ZM14.1874 19.3145L13.277 18.4999L14.1874 17.6853V19.3145ZM15.9124 14.7624L16.0561 14.0437L16.7749 14.2833L16.2478 14.5708L15.9124 14.7624ZM20.752 14.5708L20.2249 14.2833L20.9436 14.0437L21.0874 14.7624L20.752 14.5708ZM10.5936 13.9478C10.8332 13.6124 11.552 13.3728 12.5103 13.3728C13.2381 13.3803 13.9622 13.4768 14.6666 13.6603C14.5228 14.3312 14.427 15.0499 14.3311 15.8166C13.6048 16.3252 12.9162 16.8857 12.2707 17.4937C10.7853 15.8645 10.3061 14.4749 10.5936 13.9478ZM12.5103 23.627C11.552 23.627 10.8332 23.3874 10.5936 23.052C10.3541 22.7166 10.7853 21.1353 12.2707 19.5062C12.9162 20.1141 13.6048 20.6746 14.3311 21.1833C14.427 21.9499 14.5228 22.6687 14.6666 23.3395C13.9622 23.523 13.2381 23.6196 12.5103 23.627ZM18.4999 27.6041C17.9728 27.6041 17.0624 26.502 16.3916 24.3458C17.1091 24.1328 17.8131 23.8767 18.4999 23.5791C19.1866 23.8767 19.8907 24.1328 20.6082 24.3458C19.9374 26.502 19.027 27.6041 18.4999 27.6041ZM26.4061 23.052C26.1666 23.3874 25.4478 23.627 24.4895 23.627C23.7617 23.6196 23.0375 23.523 22.3332 23.3395C22.477 22.6687 22.5728 21.9499 22.6686 21.1833C23.395 20.6746 24.0836 20.1141 24.7291 19.5062C26.2145 21.1353 26.6936 22.5249 26.4061 23.052ZM24.7291 17.4937C24.0836 16.8857 23.395 16.3252 22.6686 15.8166C22.5728 15.0499 22.477 14.3312 22.3332 13.6603C23.0375 13.4768 23.7617 13.3803 24.4895 13.3728C25.4478 13.3728 26.1666 13.6124 26.4061 13.9478C26.6457 14.2833 26.2145 15.8645 24.7291 17.4937Z" fill="white"/>
<path d="M18.5 19.9375C19.2939 19.9375 19.9375 19.2939 19.9375 18.5C19.9375 17.7061 19.2939 17.0625 18.5 17.0625C17.7061 17.0625 17.0625 17.7061 17.0625 18.5C17.0625 19.2939 17.7061 19.9375 18.5 19.9375Z" fill="white"/>
</g>
<defs>
<clipPath id="clip0_0_3454">
<rect width="23" height="23" fill="white" transform="translate(7 7)"/>
</clipPath>
</defs>
</svg>
